<?xml version="1.0" encoding="UTF-8" standalone="no"?>
<!-- Created with Inkscape (http://www.inkscape.org/) -->

<svg
   version="1.1"
   id="svg1"
   width="17cm"
   height="9.6999998cm"
   viewBox="0 0 17 9.6999998"
   sodipodi:docname="voltage-wave.svg"
   xml:space="preserve"
   inkscape:export-filename="13.2+Sinusoidal+AC+Voltage+Characteristics+and+Definitions.png"
   inkscape:export-xdpi="96"
   inkscape:export-ydpi="96"
   inkscape:version="1.3.2 (091e20e, 2023-11-25)"
   xmlns:inkscape="http://www.inkscape.org/namespaces/inkscape"
   xmlns:sodipodi="http://sodipodi.sourceforge.net/DTD/sodipodi-0.dtd"
   xmlns="http://www.w3.org/2000/svg"
   xmlns:svg="http://www.w3.org/2000/svg"><sodipodi:namedview
     id="namedview1"
     pagecolor="#ffffff"
     bordercolor="#999999"
     borderopacity="1"
     inkscape:showpageshadow="0"
     inkscape:pageopacity="0"
     inkscape:pagecheckerboard="0"
     inkscape:deskcolor="#d1d1d1"
     showgrid="false"
     inkscape:zoom="1.246431"
     inkscape:cx="346.18844"
     inkscape:cy="109.11154"
     inkscape:window-width="1440"
     inkscape:window-height="847"
     inkscape:window-x="0"
     inkscape:window-y="25"
     inkscape:window-maximized="1"
     inkscape:current-layer="g28"
     showguides="true"
     inkscape:document-units="cm"><inkscape:grid
       id="grid30"
       units="px"
       originx="0"
       originy="0"
       spacingx="1"
       spacingy="1"
       empcolor="#0099e5"
       empopacity="0.30196078"
       color="#0099e5"
       opacity="0.14901961"
       empspacing="5"
       dotted="false"
       gridanglex="30"
       gridanglez="30"
       visible="false" /></sodipodi:namedview><defs
     id="defs1"><marker
   style="overflow:visible"
   id="marker42"
   refX="0"
   refY="0"
   orient="auto-start-reverse"
   inkscape:stockid="Concave triangle arrow"
   markerWidth="1"
   markerHeight="1"
   viewBox="0 0 1 1"
   inkscape:isstock="true"
   inkscape:collect="always"
   preserveAspectRatio="xMidYMid"><path
     transform="scale(0.7)"
     d="M -2,-4 9,0 -2,4 c 2,-2.33 2,-5.66 0,-8 z"
     style="fill:context-stroke;fill-rule:evenodd;stroke:none"
     id="path42" /></marker><marker
   style="overflow:visible"
   id="ConcaveTriangle"
   refX="0"
   refY="0"
   orient="auto-start-reverse"
   inkscape:stockid="Concave triangle arrow"
   markerWidth="1"
   markerHeight="1"
   viewBox="0 0 1 1"
   inkscape:isstock="true"
   inkscape:collect="always"
   preserveAspectRatio="xMidYMid"><path
     transform="scale(0.7)"
     d="M -2,-4 9,0 -2,4 c 2,-2.33 2,-5.66 0,-8 z"
     style="fill:context-stroke;fill-rule:evenodd;stroke:none"
     id="path7" /></marker><marker
   style="overflow:visible"
   id="DartArrow"
   refX="0"
   refY="0"
   orient="auto-start-reverse"
   inkscape:stockid="Dart arrow"
   markerWidth="1"
   markerHeight="1"
   viewBox="0 0 1 1"
   inkscape:isstock="true"
   inkscape:collect="always"
   preserveAspectRatio="xMidYMid"><path
     style="fill:context-stroke;fill-rule:evenodd;stroke:none"
     d="M 0,0 5,-5 -12.5,0 5,5 Z"
     transform="scale(-0.5)"
     id="path6" /></marker><defs
   id="id-6b80ee5a-f069-47ff-a9c6-e9e0ef9e5d93">
    <g
   id="id-4db1cdec-f1a3-408f-b715-fa2556c595fc">
      <g
   id="id-fa50e2e4-42f1-441c-afc5-a7cfa22048ae">
        <path
   d="m 4.578125,-3.1875 c 0,-0.796875 -0.046875,-1.59375 -0.390625,-2.328125 -0.453125,-0.96875 -1.28125,-1.125 -1.6875,-1.125 -0.609375,0 -1.328125,0.265625 -1.75,1.1875 -0.3125,0.6875 -0.359375,1.46875 -0.359375,2.265625 0,0.75 0.03125,1.640625 0.453125,2.40625 0.421875,0.796875 1.15625,1 1.640625,1 0.53125,0 1.296875,-0.203125 1.734375,-1.15625 0.3125,-0.6875 0.359375,-1.46875 0.359375,-2.25 z M 2.484375,0 C 2.09375,0 1.5,-0.25 1.328125,-1.203125 1.21875,-1.796875 1.21875,-2.71875 1.21875,-3.3125 c 0,-0.640625 0,-1.296875 0.078125,-1.828125 0.1875,-1.1875 0.9375,-1.28125 1.1875,-1.28125 0.328125,0 0.984375,0.1875 1.171875,1.171875 0.109375,0.5625 0.109375,1.3125 0.109375,1.9375 0,0.75 0,1.421875 -0.109375,2.0625 C 3.5,-0.296875 2.9375,0 2.484375,0 Z m 0,0"
   id="id-949d7d34-c4f1-4d12-9f6e-e43d4e201337" />
      </g>
    </g>
  </defs>
  
</defs><g
     inkscape:groupmode="layer"
     inkscape:label="Image"
     id="g1"><g
       id="g28"
       transform="translate(0.04065977,0.01718456)"><path
         style="fill:none;stroke:#ffccaa;stroke-width:0.0352778;stroke-linecap:square;stroke-miterlimit:0.3;stroke-dasharray:none;stroke-opacity:1"
         d="m 2.6791068,5.0967774 0.039044,0.0026 0.039035,0.00782 0.039035,0.012999 0.039044,0.018132 0.039035,0.023187 0.039035,0.028146 0.039035,0.032999 0.039044,0.037727 0.039035,0.042292 0.039035,0.046701 0.039044,0.050911 0.039035,0.054935 0.039035,0.05873 0.039044,0.062292 0.039035,0.065604 0.039035,0.068667 0.039035,0.071439 0.039044,0.073954 0.039035,0.076149 0.039035,0.078055 0.039044,0.079644 0.039035,0.080925 0.039035,0.081878 0.039044,0.082504 0.039035,0.082803 0.039035,0.082783 0.039035,0.082427 0.039044,0.081734 0.039035,0.080733 0.039035,0.079403 0.039044,0.077757 0.039035,0.075811 0.039035,0.073549 0.039044,0.070997 0.039035,0.068174 0.039035,0.065074 0.039035,0.061714 0.039044,0.058113 0.039035,0.054271 0.039035,0.050226 0.039044,0.045979 0.039035,0.041541 0.039035,0.036947 0.039035,0.032201 0.039044,0.027327 0.039035,0.02235 0.039035,0.017284 0.039044,0.012142 0.039035,0.00695 0.039035,0.00175 0.039044,-0.00349 0.039035,-0.00869 0.039035,-0.013866 0.039035,-0.01897 0.039044,-0.024024 0.039035,-0.028965 0.039035,-0.033799 0.039044,-0.038498 0.039035,-0.043043 0.039035,-0.047405 0.039044,-0.051603 0.039035,-0.055581 0.039035,-0.059336 0.039035,-0.06286 0.039044,-0.066143 0.039035,-0.069138 0.039035,-0.071883 0.039044,-0.074338 0.039035,-0.076485 0.039035,-0.078343 0.039044,-0.079885 0.039035,-0.081098 0.039035,-0.082003 0.039035,-0.082581 0.039044,-0.082831 0.039035,-0.082735 0.039035,-0.08234 0.039044,-0.081589 0.039035,-0.080539 0.039035,-0.079143 0.039044,-0.077458 0.039035,-0.075445 0.039035,-0.073145 0.039035,-0.070555 0.039044,-0.067674 0.039035,-0.064526 0.039035,-0.061136 0.039044,-0.057486 0.039035,-0.053616 0.039035,-0.049523 0.039035,-0.045256 0.039044,-0.040781 0.039035,-0.036167 0.039035,-0.0314 0.039044,-0.026508 0.039035,-0.021503 0.039035,-0.016428 0.039044,-0.011286 0.039035,-0.00608 0.039035,-8.666e-4 0.039035,0.00434 0.039044,0.00955 0.039035,0.014714 0.039035,0.019826 0.039044,0.024843 0.039035,0.029783 0.039035,0.034599 0.039044,0.039259 0.039035,0.043784 0.039035,0.048127 0.039035,0.052277 0.039044,0.056216 0.039035,0.059943 0.039035,0.063428 0.039044,0.066654 0.039035,0.069619 0.039035,0.072316 0.039044,0.074714 0.039035,0.076813 0.039035,0.078623 0.039035,0.080106 0.039044,0.081281 0.039035,0.082119 0.039035,0.082639 0.039044,0.08284 0.039035,0.082696 0.039035,0.082234 0.039044,0.081435 0.039035,0.080328 0.039035,0.078893 0.039035,0.07714 0.039044,0.075079 0.039035,0.07273 0.039035,0.070092 0.039044,0.067173 0.039035,0.063976 0.039035,0.06054 0.039035,0.056861 0.039044,0.052952 0.039035,0.048829 0.039035,0.044516 0.039044,0.040029 0.039035,0.035378 0.039035,0.030593 0.039044,0.025681 0.039035,0.020665 0.039035,0.015581 0.039035,0.010409 0.039044,0.00522 h 0.039035 l 0.039035,-0.00522 0.039044,-0.010409 0.039035,-0.015581 0.039035,-0.020665 0.039044,-0.025681 0.039035,-0.030593 0.039035,-0.035378 0.039035,-0.040029 0.039044,-0.044516 0.039035,-0.048829 0.039035,-0.052952 0.039044,-0.056861 0.039035,-0.06054 0.039035,-0.063976 0.039044,-0.067173 0.039035,-0.070092 0.039035,-0.07273 0.039035,-0.075079 0.039044,-0.07714 0.039035,-0.078893 0.039035,-0.080328 0.039044,-0.081435 0.039007,-0.082234 0.039134,-0.082696 0.039044,-0.08284 0.039044,-0.082639 0.039044,-0.082119 0.038952,-0.081281 0.039044,-0.080106 0.039044,-0.078623 0.039044,-0.076813 0.039044,-0.074714 0.039044,-0.072316 0.039044,-0.069619 0.039044,-0.066654 0.039044,-0.063428 0.039044,-0.059943 0.039045,-0.056216 0.03905,-0.052277 0.03905,-0.048127 0.03905,-0.043784 0.03896,-0.039259 0.03905,-0.034599 0.03905,-0.029783 0.03905,-0.024843 0.03905,-0.019826 0.03905,-0.014714 0.03905,-0.00955 0.03905,-0.00434 0.03905,8.666e-4 0.03905,0.00608 0.03905,0.011286 0.03905,0.016428 0.03905,0.021503 0.03905,0.026508 0.03896,0.0314 0.03905,0.036167 0.03905,0.040781 0.03905,0.045256 0.03905,0.049523 0.03905,0.053616 0.03905,0.057486 0.03905,0.061136 0.03905,0.064526 0.03905,0.067674 0.03905,0.070555 0.03905,0.073145 0.03905,0.075445 0.03905,0.077458 0.03896,0.079143 0.03905,0.080539 0.03905,0.081589 0.03905,0.08234 0.03905,0.082735 0.03905,0.082831 0.03905,0.082581 0.03905,0.082003 0.03905,0.081098 0.03905,0.079885 0.03905,0.078343 0.03905,0.076485 0.03905,0.074338 0.03905,0.071883 0.03905,0.069138 0.03896,0.066143 0.03905,0.06286 0.03905,0.059336 0.03905,0.055581 0.03905,0.051603 0.03905,0.047405 0.03905,0.043043 0.03905,0.038498 0.03905,0.033799 0.03905,0.028965 0.03905,0.024024 0.03905,0.01897 0.03905,0.013866 0.03905,0.00869 0.03896,0.00349 0.03905,-0.00175 0.03905,-0.00695 0.03905,-0.012142 0.03905,-0.017284 0.03905,-0.02235 0.03905,-0.027327 0.03905,-0.032201 0.03905,-0.036947 0.03905,-0.041541 0.03905,-0.045979 0.03905,-0.050226 0.03905,-0.054271 0.03905,-0.058113 0.03896,-0.061714 0.03905,-0.065074 0.03905,-0.068174 0.03905,-0.070997 0.03905,-0.073549 0.03905,-0.075811 0.03905,-0.077757 0.03905,-0.079403 0.03905,-0.080733 0.03905,-0.081734 0.03905,-0.082427 0.03905,-0.082783 0.03905,-0.082803 0.03905,-0.082504 0.03896,-0.081878 0.03905,-0.080925 0.03905,-0.079644 0.03905,-0.078055 0.03905,-0.076149 0.03905,-0.073954 0.03905,-0.071439 0.03905,-0.068667 0.03905,-0.065604 0.03905,-0.062292 0.03905,-0.05873 0.03905,-0.054935 0.03905,-0.050911 0.03905,-0.046701 0.03905,-0.042292 0.03896,-0.037727 0.03905,-0.032999 0.03905,-0.028146 0.03905,-0.023187 0.03905,-0.018132 0.03905,-0.012999 0.03905,-0.00782 0.03905,-0.0026"
         title="sin(x) * sin(x)"
         id="path1" /><text
         xml:space="preserve"
         style="font-style:normal;font-weight:normal;font-size:14.6667px;line-height:1.25;font-family:sans-serif;fill:#000000;fill-opacity:1;stroke:none"
         x="360.78912"
         y="128.84074"
         id="text46"><tspan
           sodipodi:role="line"
           id="tspan46"
           x="360.78912"
           y="128.84074"
           style="font-size:14.6667px" /></text><path
         style="fill:none;stroke:#666666;stroke-width:0.0226796;stroke-linecap:square;stroke-miterlimit:0.3;stroke-dasharray:0.0907179, 0.0226796;stroke-dashoffset:0;stroke-opacity:0.908425;marker-start:url(#DartArrow);marker-end:url(#ConcaveTriangle)"
         d="M 2.7905878,8.7877945 14.17348,8.7844636"
         id="path32"
         sodipodi:nodetypes="cc"
         inkscape:transform-center-x="-0.11332709"
         inkscape:transform-center-y="-0.21079138" /><path
         style="fill:none;stroke:#666666;stroke-width:0.0224563;stroke-linecap:square;stroke-miterlimit:0.3;stroke-dasharray:0.0898262, 0.0224563;stroke-dashoffset:0;stroke-opacity:0.908425;marker-start:url(#DartArrow);marker-end:url(#ConcaveTriangle)"
         d="m 2.7830597,7.0887843 5.5431922,-0.00167"
         id="path33"
         sodipodi:nodetypes="cc"
         inkscape:transform-center-x="-0.055187568"
         inkscape:transform-center-y="-0.10071263" /><path
         style="fill:none;stroke:#b3b3b3;stroke-width:0.0226681;stroke-linecap:square;stroke-miterlimit:0.3;stroke-dasharray:0.0906722, 0.0453362;stroke-dashoffset:0;stroke-opacity:0.908425"
         d="M 8.4815107,5.0544284 V 7.4317481"
         id="path35" /><path
         style="fill:none;stroke:#b3b3b3;stroke-width:0.0290456;stroke-linecap:square;stroke-miterlimit:0.3;stroke-dasharray:0.116182, 0.0580913;stroke-dashoffset:0;stroke-opacity:0.908425"
         d="M 14.332614,5.0645633 V 8.967762"
         id="path44" /><path
         style="fill:none;stroke:#b3b3b3;stroke-width:0.0175171;stroke-linecap:square;stroke-miterlimit:0.3;stroke-dasharray:0.0700683, 0.035034;stroke-dashoffset:0;stroke-opacity:0.908425"
         d="M 2.6833302,2.3876715 H 11.744809"
         id="path46"
         sodipodi:nodetypes="cc" /><path
         style="fill:none;stroke:#b3b3b3;stroke-width:0.0176389;stroke-linecap:square;stroke-miterlimit:0.3;stroke-dasharray:0.0705556, 0.0352777;stroke-dashoffset:0;stroke-opacity:0.908425"
         d="M 2.6747107,3.0712367 H 5.5662845"
         id="path20" /><path
         style="fill:none;stroke:#666666;stroke-width:0.0237803;stroke-linecap:square;stroke-miterlimit:0.3;stroke-dasharray:0.0951215, 0.0475606;stroke-dashoffset:0;stroke-opacity:0.908425"
         d="M 5.5632311,2.432793 V 5.0491427"
         id="path47" /><path
         style="fill:none;stroke:#666666;stroke-width:0.0220536;stroke-linecap:square;stroke-miterlimit:0.3;stroke-dasharray:none;stroke-dashoffset:0;stroke-opacity:0.908425;marker-start:url(#marker42);marker-end:url(#marker42)"
         d="M 11.436096,2.5357104 V 7.5806991"
         id="path48" /><path
         style="fill:none;stroke:#1a1a1a;stroke-width:0.0672479;stroke-linecap:square;stroke-miterlimit:0.3;stroke-dasharray:0.268992, 0.0672479;stroke-dashoffset:0;stroke-opacity:1"
         d="m 2.6345849,5.0685398 0.058721,-0.084177 0.058721,-0.084084 0.05872,-0.08391 0.058721,-0.083641 0.05872,-0.083336 0.058721,-0.08292 0.058719,-0.082401 0.058721,-0.081845 0.05873,-0.081161 0.058719,-0.080438 0.058719,-0.079604 0.058739,-0.078697 0.058721,-0.077726 0.058721,-0.076671 0.05872,-0.075533 0.058739,-0.07431 0.058721,-0.073051 0.058718,-0.071681 0.058721,-0.070283 0.058739,-0.068766 0.058719,-0.067211 0.058721,-0.065553 0.058719,-0.063878 0.058739,-0.062119 0.05872,-0.060306 0.05872,-0.058397 0.05872,-0.056492 0.058739,-0.054465 0.058719,-0.052438 0.058719,-0.050326 0.058721,-0.048179 0.058739,-0.045985 0.058719,-0.043746 0.058721,-0.041449 0.058719,-0.039108 0.058739,-0.036758 0.058718,-0.034333 0.05872,-0.031897 0.058721,-0.029445 0.058739,-0.026917 0.058719,-0.024428 0.05872,-0.021871 0.058721,-0.019279 0.058739,-0.01669 0.058721,-0.014097 0.05872,-0.011459 0.058719,-0.00885 0.058739,-0.00616 0.058721,-0.00353 0.058719,-0.00101 0.058721,0.00168 0.058739,0.00444 0.05872,0.00706 0.058721,0.00973 0.058719,0.012313 0.058721,0.014938 0.058739,0.017564 0.058719,0.020155 0.058721,0.022711 0.058718,0.025236 0.058739,0.027759 0.058719,0.030249 0.058721,0.032741 0.05872,0.035137 0.058739,0.037553 0.058721,0.039895 0.05872,0.042209 0.058721,0.044468 0.058739,0.046726 0.05872,0.048901 0.058721,0.05103 0.058719,0.053122 0.058739,0.055169 0.05872,0.057112 0.058719,0.059066 0.058721,0.060898 0.058739,0.062722 0.058719,0.064434 0.05872,0.066117 0.058721,0.067729 0.058739,0.069284 0.05872,0.070756 0.05872,0.072134 0.05872,0.073485 0.058739,0.074745 0.05872,0.075903 0.05872,0.07705 0.05872,0.078049 0.058739,0.079013 0.058721,0.079873 0.058719,0.080679 0.05872,0.08141 0.058739,0.08203 0.058721,0.082584 0.05872,0.083066 0.058719,0.083455 0.058739,0.083742 0.058721,0.083973 0.058719,0.084122 0.058721,0.08416 0.058739,0.08416 0.05872,0.084019 0.05872,0.083853 0.058719,0.083558 0.058739,0.083187 0.05872,0.082752 0.058721,0.082232 0.058721,0.081614 0.058739,0.080938 0.05872,0.080169 0.058721,0.079317 0.058721,0.078391 0.058739,0.077374 0.05872,0.076299 0.058719,0.075142 0.05872,0.073893 0.058739,0.072617 0.058719,0.071209 0.058719,0.069784 0.058721,0.068247 0.058739,0.066675 0.05872,0.065016 0.058721,0.063275 0.058719,0.061527 0.058739,0.059677 0.058721,0.057778 0.05872,0.055806 0.05872,0.053797 0.05874,0.051733 0.05872,0.049623 0.05872,0.047448 0.05872,0.045236 0.05874,0.042976 0.05872,0.040683 0.05872,0.03833 0.05872,0.035943 0.05874,0.033546 0.05872,0.031092 0.05872,0.028602 0.05872,0.026113 0.05872,0.023548 0.05874,0.020994 0.05872,0.018401 0.05872,0.015845 0.05872,0.013189 0.05874,0.01057 0.05872,0.00796 0.05872,0.00527 0.05872,0.0027 h 0.05874 l 0.05872,-0.0027 0.05872,-0.00527 0.05872,-0.00796 0.05874,-0.01057 0.05872,-0.013189 0.05872,-0.015845 0.05872,-0.018401 0.05874,-0.020994 0.05872,-0.023548 0.05871,-0.026113 0.05872,-0.028602 0.05873,-0.031092 0.05871,-0.033546 0.05872,-0.035943 0.05872,-0.03833 0.05874,-0.040683 0.05871,-0.042976 0.05872,-0.045236 0.05872,-0.047448 0.05874,-0.049623 0.05871,-0.051733 0.05872,-0.053797 0.05872,-0.055806 0.05873,-0.057778 0.05871,-0.059677 0.05872,-0.061527 0.05872,-0.063275 0.05873,-0.065016 0.05872,-0.066675 0.05871,-0.068247 0.05872,-0.069784 0.05874,-0.071209 0.05871,-0.072617 0.05871,-0.073893 0.05871,-0.075142 0.05875,-0.076299 0.05874,-0.077374 0.05871,-0.078391 0.05873,-0.079317 0.05874,-0.080169 0.05874,-0.080938 0.05874,-0.081614 0.05871,-0.082232 0.05875,-0.082752 0.05872,-0.083187 0.05871,-0.083558 0.05874,-0.083853 0.05875,-0.084019 0.05871,-0.08416 0.05874,-0.08416"
         id="path36" /><path
         style="fill:none;stroke:#1a1a1a;stroke-width:0.0442804;stroke-linecap:square;stroke-miterlimit:0.3;stroke-dasharray:0.177121, 0.0442804;stroke-dashoffset:0;stroke-opacity:1;marker-end:url(#marker42)"
         d="M 2.6552917,5.0826384 H 15.200892"
         id="path49" /><path
         style="fill:none;stroke:#1a1a1a;stroke-width:0.0453249;stroke-linecap:square;stroke-miterlimit:0.3;stroke-dasharray:0.181299, 0.0453249;stroke-dashoffset:0;stroke-opacity:1;marker-end:url(#marker42)"
         d="M 2.6250652,9.0670695 V 1.0695297"
         id="path41" /><text
         xml:space="preserve"
         style="font-style:normal;font-variant:normal;font-weight:normal;font-stretch:normal;font-size:0.388056px;line-height:1.25;font-family:'Latin Modern Math';-inkscape-font-specification:'Latin Modern Math, Normal';font-variant-ligatures:normal;font-variant-caps:normal;font-variant-numeric:normal;font-variant-east-asian:normal;fill:#000000;fill-opacity:1;stroke:none;stroke-width:0.0340021"
         x="4.5870481"
         y="7.6402693"
         id="text43"
         transform="scale(1.014307,0.98589481)"><tspan
           sodipodi:role="line"
           id="tspan43"
           x="4.5870481"
           y="7.6402693"
           style="font-style:normal;font-variant:normal;font-weight:normal;font-stretch:normal;font-size:0.388056px;font-family:'Latin Modern Math';-inkscape-font-specification:'Latin Modern Math, Normal';font-variant-ligatures:normal;font-variant-caps:normal;font-variant-numeric:normal;font-variant-east-asian:normal;stroke-width:0.0340021">Half Cycle</tspan></text><text
         xml:space="preserve"
         style="font-style:normal;font-variant:normal;font-weight:normal;font-stretch:normal;font-size:0.388056px;line-height:1.25;font-family:'Latin Modern Math';-inkscape-font-specification:'Latin Modern Math, Normal';font-variant-ligatures:normal;font-variant-caps:normal;font-variant-numeric:normal;font-variant-east-asian:normal;fill:#000000;fill-opacity:1;stroke:none;stroke-width:0.0340021"
         x="7.0726671"
         y="9.3918877"
         id="text44"
         transform="scale(1.014307,0.98589481)"><tspan
           sodipodi:role="line"
           id="tspan44"
           x="7.0726671"
           y="9.3918877"
           style="font-style:normal;font-variant:normal;font-weight:normal;font-stretch:normal;font-size:0.388056px;font-family:'Latin Modern Math';-inkscape-font-specification:'Latin Modern Math, Normal';font-variant-ligatures:normal;font-variant-caps:normal;font-variant-numeric:normal;font-variant-east-asian:normal;stroke-width:0.0340021">One Full Cycle</tspan></text><text
         xml:space="preserve"
         style="font-style:normal;font-weight:normal;font-size:1.05833px;line-height:1.25;font-family:sans-serif;fill:#000000;fill-opacity:1;stroke:none;stroke-width:0.0264583"
         x="1.6384113"
         y="2.7568979"
         id="text10"><tspan
           sodipodi:role="line"
           id="tspan10"
           style="stroke-width:0.0264583"
           x="1.6384113"
           y="2.7568979" /></text><text
         xml:space="preserve"
         style="font-size:0.493152px;line-height:1.25;font-family:sans-serif;stroke-width:0.0336239"
         x="5.1815186"
         y="5.6052976"
         id="text11"><tspan
           sodipodi:role="line"
           id="tspan11"
           style="font-style:normal;font-variant:normal;font-weight:normal;font-stretch:normal;font-size:0.388056px;font-family:'Latin Modern Math';-inkscape-font-specification:'Latin Modern Math, Normal';font-variant-ligatures:normal;font-variant-caps:normal;font-variant-numeric:normal;font-variant-east-asian:normal;stroke-width:0.0336239"
           x="5.1815186"
           y="5.6052976">$\pi/2$</tspan></text><text
         xml:space="preserve"
         style="font-size:0.493152px;line-height:1.25;font-family:sans-serif;stroke-width:0.0336239"
         x="8.496335"
         y="4.5819864"
         id="text12"><tspan
           sodipodi:role="line"
           id="tspan12"
           style="font-style:normal;font-variant:normal;font-weight:normal;font-stretch:normal;font-size:0.388056px;font-family:'Latin Modern Math';-inkscape-font-specification:'Latin Modern Math, Normal';font-variant-ligatures:normal;font-variant-caps:normal;font-variant-numeric:normal;font-variant-east-asian:normal;stroke-width:0.0336239"
           x="8.496335"
           y="4.5819864">$\pi$</tspan></text><text
         xml:space="preserve"
         style="font-size:0.493152px;line-height:1.25;font-family:sans-serif;stroke-width:0.0336239"
         x="14.066929"
         y="4.5819864"
         id="text12-4"><tspan
           sodipodi:role="line"
           id="tspan12-4"
           style="font-style:normal;font-variant:normal;font-weight:normal;font-stretch:normal;font-size:0.388056px;font-family:'Latin Modern Math';-inkscape-font-specification:'Latin Modern Math, Normal';font-variant-ligatures:normal;font-variant-caps:normal;font-variant-numeric:normal;font-variant-east-asian:normal;stroke-width:0.0336239"
           x="14.066929"
           y="4.5819864">$2\pi$</tspan></text><text
         xml:space="preserve"
         style="font-style:normal;font-variant:normal;font-weight:normal;font-stretch:normal;font-size:0.388056px;line-height:1.25;font-family:'Latin Modern Math';-inkscape-font-specification:'Latin Modern Math, Normal';font-variant-ligatures:normal;font-variant-caps:normal;font-variant-numeric:normal;font-variant-east-asian:normal;stroke-width:0.0168121"
         x="15.587077"
         y="5.2315702"
         id="text15"><tspan
           sodipodi:role="line"
           id="tspan15"
           style="font-style:normal;font-variant:normal;font-weight:normal;font-stretch:normal;font-size:0.388056px;font-family:'Latin Modern Math';-inkscape-font-specification:'Latin Modern Math, Normal';font-variant-ligatures:normal;font-variant-caps:normal;font-variant-numeric:normal;font-variant-east-asian:normal;stroke-width:0.0168121"
           x="15.587077"
           y="5.2315702">$t$</tspan></text><text
         xml:space="preserve"
         style="font-style:normal;font-variant:normal;font-weight:normal;font-stretch:normal;font-size:0.388056px;line-height:1.25;font-family:'Latin Modern Math';-inkscape-font-specification:'Latin Modern Math, Normal';font-variant-ligatures:normal;font-variant-caps:normal;font-variant-numeric:normal;font-variant-east-asian:normal;stroke-width:0.0168121"
         x="2.4403796"
         y="0.59282994"
         id="text16"><tspan
           sodipodi:role="line"
           id="tspan16"
           style="font-style:normal;font-variant:normal;font-weight:normal;font-stretch:normal;font-size:0.388056px;font-family:'Latin Modern Math';-inkscape-font-specification:'Latin Modern Math, Normal';font-variant-ligatures:normal;font-variant-caps:normal;font-variant-numeric:normal;font-variant-east-asian:normal;stroke-width:0.0168121"
           x="2.4403796"
           y="0.59282994">V</tspan></text><text
         xml:space="preserve"
         style="font-style:normal;font-variant:normal;font-weight:normal;font-stretch:normal;font-size:0.493152px;line-height:1.25;font-family:'CMU Serif';-inkscape-font-specification:'CMU Serif, Normal';font-variant-ligatures:normal;font-variant-caps:normal;font-variant-numeric:normal;font-variant-east-asian:normal;stroke-width:0.0336239"
         x="7.583612"
         y="3.1628215"
         id="text18"><tspan
           sodipodi:role="line"
           id="tspan18"
           style="font-style:normal;font-variant:normal;font-weight:normal;font-stretch:normal;font-size:0.388056px;font-family:'Latin Modern Math';-inkscape-font-specification:'Latin Modern Math, Normal';font-variant-ligatures:normal;font-variant-caps:normal;font-variant-numeric:normal;font-variant-east-asian:normal;stroke-width:0.0336239"
           x="7.583612"
           y="3.1628215">$V_{avg}=0.637V_p$</tspan></text><path
         style="fill:none;stroke:#b3b3b3;stroke-width:0.0176389;stroke-linecap:square;stroke-miterlimit:0.3;stroke-dasharray:0.070556, 0.0352778;stroke-dashoffset:0;stroke-opacity:0.908425"
         d="M 2.679832,3.4322384 H 5.5617847"
         id="path18"
         sodipodi:nodetypes="cc" /><path
         style="fill:none;stroke:#666666;stroke-width:0.0161817;stroke-linecap:square;stroke-miterlimit:0.3;stroke-dasharray:none;stroke-dashoffset:0;stroke-opacity:0.908425;marker-end:url(#marker42)"
         d="M 5.6633541,1.9085235 5.5890049,2.251521"
         id="path19"
         sodipodi:nodetypes="cc" /><text
         xml:space="preserve"
         style="font-style:normal;font-variant:normal;font-weight:normal;font-stretch:normal;font-size:0.352778px;line-height:1.25;font-family:'Latin Modern Math';-inkscape-font-specification:'Latin Modern Math, Normal';font-variant-ligatures:normal;font-variant-caps:normal;font-variant-numeric:normal;font-variant-east-asian:normal;stroke-width:0.0336239"
         x="1.187952"
         y="3.1981308"
         id="text22"><tspan
           sodipodi:role="line"
           id="tspan22"
           style="font-style:normal;font-variant:normal;font-weight:normal;font-stretch:normal;font-size:0.352778px;font-family:'Latin Modern Math';-inkscape-font-specification:'Latin Modern Math, Normal';font-variant-ligatures:normal;font-variant-caps:normal;font-variant-numeric:normal;font-variant-east-asian:normal;stroke-width:0.0336239"
           x="1.187952"
           y="3.1981308">70.7%</tspan></text><text
         xml:space="preserve"
         style="font-style:normal;font-variant:normal;font-weight:normal;font-stretch:normal;font-size:0.352778px;line-height:1.25;font-family:'Latin Modern Math';-inkscape-font-specification:'Latin Modern Math, Normal';font-variant-ligatures:normal;font-variant-caps:normal;font-variant-numeric:normal;font-variant-east-asian:normal;stroke-width:0.0336239"
         x="1.187952"
         y="3.5591326"
         id="text23"><tspan
           sodipodi:role="line"
           id="tspan23"
           style="font-style:normal;font-variant:normal;font-weight:normal;font-stretch:normal;font-size:0.352778px;font-family:'Latin Modern Math';-inkscape-font-specification:'Latin Modern Math, Normal';font-variant-ligatures:normal;font-variant-caps:normal;font-variant-numeric:normal;font-variant-east-asian:normal;stroke-width:0.0336239"
           x="1.187952"
           y="3.5591326">63.7%</tspan></text><text
         xml:space="preserve"
         style="font-style:normal;font-variant:normal;font-weight:normal;font-stretch:normal;font-size:0.493152px;line-height:1.25;font-family:'CMU Serif';-inkscape-font-specification:'CMU Serif, Normal';font-variant-ligatures:normal;font-variant-caps:normal;font-variant-numeric:normal;font-variant-east-asian:normal;stroke-width:0.0336239"
         x="7.0592012"
         y="2.2481344"
         id="text24"><tspan
           sodipodi:role="line"
           id="tspan24"
           style="font-style:normal;font-variant:normal;font-weight:normal;font-stretch:normal;font-size:0.388056px;font-family:'Latin Modern Math';-inkscape-font-specification:'Latin Modern Math, Normal';font-variant-ligatures:normal;font-variant-caps:normal;font-variant-numeric:normal;font-variant-east-asian:normal;stroke-width:0.0336239"
           x="7.0592012"
           y="2.2481344">$V_{rms} = 0.707 V_p = 0.3536 V_{pp}$</tspan></text><text
         xml:space="preserve"
         style="font-style:normal;font-variant:normal;font-weight:normal;font-stretch:normal;font-size:0.493152px;line-height:1.25;font-family:'CMU Serif';-inkscape-font-specification:'CMU Serif, Normal';font-variant-ligatures:normal;font-variant-caps:normal;font-variant-numeric:normal;font-variant-east-asian:normal;stroke-width:0.0336239"
         x="10.794835"
         y="4.192347"
         id="text26"><tspan
           sodipodi:role="line"
           id="tspan26"
           style="font-style:normal;font-variant:normal;font-weight:normal;font-stretch:normal;font-size:0.388056px;font-family:'Latin Modern Math';-inkscape-font-specification:'Latin Modern Math, Normal';font-variant-ligatures:normal;font-variant-caps:normal;font-variant-numeric:normal;font-variant-east-asian:normal;stroke-width:0.0336239"
           x="10.794835"
           y="4.192347">$V_{pp}$</tspan></text><text
         xml:space="preserve"
         style="font-style:normal;font-variant:normal;font-weight:normal;font-stretch:normal;font-size:0.493152px;line-height:1.25;font-family:'CMU Serif';-inkscape-font-specification:'CMU Serif, Normal';font-variant-ligatures:normal;font-variant-caps:normal;font-variant-numeric:normal;font-variant-east-asian:normal;stroke-width:0.0336239"
         x="5.2804532"
         y="1.6875261"
         id="text27"><tspan
           sodipodi:role="line"
           id="tspan27"
           style="font-style:normal;font-variant:normal;font-weight:normal;font-stretch:normal;font-size:0.388056px;font-family:'Latin Modern Math';-inkscape-font-specification:'Latin Modern Math, Normal';font-variant-ligatures:normal;font-variant-caps:normal;font-variant-numeric:normal;font-variant-east-asian:normal;stroke-width:0.0336239"
           x="5.2804532"
           y="1.6875261">$V_{p}$</tspan></text><path
         style="fill:none;stroke:#666666;stroke-width:0.0176389;stroke-linecap:square;stroke-miterlimit:0.3;stroke-dasharray:none;stroke-dashoffset:0;stroke-opacity:0.908425;marker-end:url(#marker42)"
         d="M 7.0554363,2.2440276 5.6840183,2.9964581"
         id="path27"
         sodipodi:nodetypes="cc" /><path
         style="fill:none;stroke:#666666;stroke-width:0.0176389;stroke-linecap:square;stroke-miterlimit:0.3;stroke-dasharray:none;stroke-dashoffset:0;stroke-opacity:0.908425;marker-end:url(#marker42)"
         d="M 7.5057348,3.0995947 5.6783896,3.3848405"
         id="path28"
         sodipodi:nodetypes="cc" /><path
         style="fill:none;stroke:#666666;stroke-width:0.0161817;stroke-linecap:square;stroke-miterlimit:0.3;stroke-dasharray:none;stroke-dashoffset:0;stroke-opacity:0.908425;marker-end:url(#marker42)"
         d="M 9.0472834,8.0123402 8.8078248,7.7174149"
         id="path2"
         sodipodi:nodetypes="cc" /><text
         xml:space="preserve"
         style="font-size:0.493152px;line-height:1.25;font-family:sans-serif;stroke-width:0.0336239"
         x="8.7688971"
         y="8.3446131"
         id="text2"><tspan
           sodipodi:role="line"
           id="tspan2"
           style="font-style:normal;font-variant:normal;font-weight:normal;font-stretch:normal;font-size:0.388056px;font-family:'Latin Modern Math';-inkscape-font-specification:'Latin Modern Math, Normal';font-variant-ligatures:normal;font-variant-caps:normal;font-variant-numeric:normal;font-variant-east-asian:normal;stroke-width:0.0336239"
           x="8.7688971"
           y="8.3446131">$-\sin^2{t}$</tspan></text></g></g></svg>
