<?xml version="1.0" encoding="UTF-8" standalone="no"?>
<!-- Created with Inkscape (http://www.inkscape.org/) -->

<svg
   width="170mm"
   height="21mm"
   viewBox="0 0 170 21"
   version="1.1"
   id="svg1"
   inkscape:version="1.4 (e7c3feb1, 2024-10-09)"
   sodipodi:docname="mp_axiomatic_approach.svg"
   xmlns:inkscape="http://www.inkscape.org/namespaces/inkscape"
   xmlns:sodipodi="http://sodipodi.sourceforge.net/DTD/sodipodi-0.dtd"
   xmlns="http://www.w3.org/2000/svg"
   xmlns:svg="http://www.w3.org/2000/svg"
   xmlns:ns1="http://www.iki.fi/pav/software/textext/">
  <sodipodi:namedview
     id="namedview1"
     pagecolor="#ffffff"
     bordercolor="#999999"
     borderopacity="1"
     inkscape:showpageshadow="0"
     inkscape:pageopacity="0"
     inkscape:pagecheckerboard="0"
     inkscape:deskcolor="#d1d1d1"
     inkscape:document-units="mm"
     inkscape:zoom="0.80527137"
     inkscape:cx="294.93163"
     inkscape:cy="177.57989"
     inkscape:current-layer="layer1"
     inkscape:window-width="1440"
     inkscape:window-height="847"
     inkscape:window-x="0"
     inkscape:window-y="25"
     inkscape:window-maximized="1" />
  <defs
     id="defs1">
    <marker
       markerWidth="5.2141981"
       markerHeight="10.929886"
       refX="2.6070993"
       refY="5.4649429"
       orient="auto-start-reverse"
       id="marker3"
       viewBox="0 0 5.2141984 10.929886"
       preserveAspectRatio="xMidYMid"
       markerUnits="strokeWidth">
      <path
         style="fill:context-stroke;stroke-width:1"
         d="M 0.2200441,10.861292 C 0.0019654,10.743635 -0.0331842,10.546759 0.0873827,10.11609 0.9177449,7.1468211 2.9997732,6.029143 2.9059276,5.4444312 2.8121953,4.8597194 1.5162709,4.029807 0.6814866,2.3250851 0.3919748,1.7338951 0,0.62498553 0,0.39723876 0,0.08667498 0.4095874,-0.11447903 0.6634583,0.07140569 0.7186394,0.11169545 0.8679307,0.45382585 0.9956787,0.83172569 1.6888441,2.8844627 2.8271244,4.1971984 4.5120378,4.8868904 5.064189,5.1129062 5.2141984,5.2320369 5.2141984,5.4444312 c 0,0.2392063 -0.1058267,0.3313512 -0.6370393,0.5536214 C 3.8187969,6.3155329 3.3030425,6.651567 2.737474,7.1967714 1.9265764,7.9785137 1.3710992,8.9057036 0.9846425,10.122613 0.7465323,10.872207 0.5654551,11.047331 0.220611,10.861299 Z"
         id="path1"
         sodipodi:nodetypes="cccsssscsscssc" />
    </marker>
  </defs>
  <g
     inkscape:label="Layer 1"
     inkscape:groupmode="layer"
     id="layer1">
    <g
       id="g1"
       transform="translate(-0.06130632,-14.5)">
      <text
         xml:space="preserve"
         style="font-size:3.52777px;line-height:1.25;font-family:'Latin Modern Roman';-inkscape-font-specification:'Latin Modern Roman, Normal';stroke-width:0.264583"
         x="16.504383"
         y="26.204733"
         id="text1"><tspan
           sodipodi:role="line"
           style="stroke-width:0.264583"
           x="16.504383"
           y="26.204733"
           id="tspan2">Field</tspan></text>
      <text
         xml:space="preserve"
         style="font-size:3.52777px;line-height:1.25;font-family:'Latin Modern Roman';-inkscape-font-specification:'Latin Modern Roman, Normal';stroke-width:0.264583"
         x="50.219433"
         y="25.901344"
         id="text3"><tspan
           sodipodi:role="line"
           id="tspan3"
           style="stroke-width:0.264583"
           x="50.219433"
           y="25.901344">Vector Space</tspan><tspan
           sodipodi:role="line"
           style="stroke-width:0.264583"
           x="50.219433"
           y="30.311056"
           id="tspan4" /></text>
      <text
         xml:space="preserve"
         style="font-size:3.52777px;line-height:1.25;font-family:'Latin Modern Roman';-inkscape-font-specification:'Latin Modern Roman, Normal';stroke-width:0.264583"
         x="132.79733"
         y="23.677086"
         id="text9"><tspan
           sodipodi:role="line"
           style="stroke-width:0.264583"
           x="132.79733"
           y="23.677086"
           id="tspan10">3D Euclidean</tspan><tspan
           sodipodi:role="line"
           style="stroke-width:0.264583"
           x="132.79733"
           y="28.086798"
           id="tspan11">Vector Space</tspan></text>
      <path
         style="opacity:0.5;fill:none;stroke:#828282;stroke-width:0.352778;stroke-linecap:round;stroke-linejoin:round;stroke-miterlimit:0;stroke-dasharray:none;marker-end:url(#marker3);paint-order:fill markers stroke"
         d="M 30.761686,24.999999 H 42.976358"
         id="path15" />
      <path
         style="opacity:0.5;fill:none;stroke:#828282;stroke-width:0.352778;stroke-linecap:round;stroke-linejoin:round;stroke-miterlimit:0;stroke-dasharray:none;marker-end:url(#marker3);paint-order:fill markers stroke"
         d="m 113.33952,24.999999 h 12.21474"
         id="path19" />
      <text
         xml:space="preserve"
         style="font-size:3.52777px;line-height:1.25;font-family:'Latin Modern Roman';-inkscape-font-specification:'Latin Modern Roman, Normal';fill:#828282;stroke-width:0.264583"
         x="76.308876"
         y="25.901344"
         id="text20"><tspan
           sodipodi:role="line"
           id="tspan19"
           style="fill:#828282;stroke-width:0.264583"
           x="76.308876"
           y="25.901344">+</tspan><tspan
           sodipodi:role="line"
           style="fill:#828282;stroke-width:0.264583"
           x="76.308876"
           y="30.311056"
           id="tspan20" /></text>
      <g
         id="g34"
         transform="translate(0.88596232)">
        <g
           id="g69">
          <text
             xml:space="preserve"
             style="font-size:3.52777px;line-height:1.25;font-family:'Latin Modern Roman';-inkscape-font-specification:'Latin Modern Roman, Normal';fill:#000000;stroke:none;stroke-width:0.264583"
             x="84.258034"
             y="16.982073"
             id="text5"><tspan
               sodipodi:role="line"
               style="fill:#000000;stroke:none;stroke-width:0.264583"
               x="84.258034"
               y="16.982073"
               id="tspan6">Inner Product</tspan></text>
          <text
             xml:space="preserve"
             style="font-size:3.52777px;line-height:1.25;font-family:'Latin Modern Roman';-inkscape-font-specification:'Latin Modern Roman, Normal';fill:#000000;stroke:none;stroke-width:0.264583"
             x="90.719139"
             y="28.462505"
             id="text7"><tspan
               sodipodi:role="line"
               id="tspan7"
               style="fill:#000000;stroke:none;stroke-width:0.264583"
               x="90.719139"
               y="28.462505">Norm</tspan></text>
          <text
             xml:space="preserve"
             style="font-size:3.52777px;line-height:1.25;font-family:'Latin Modern Roman';-inkscape-font-specification:'Latin Modern Roman, Normal';fill:#000000;stroke:none;stroke-width:0.264583"
             x="89.854836"
             y="35.427395"
             id="text8"><tspan
               sodipodi:role="line"
               id="tspan8"
               style="fill:#000000;stroke:none;stroke-width:0.264583"
               x="89.854836"
               y="35.427395">Metric</tspan></text>
          <text
             xml:space="preserve"
             style="font-size:3.52777px;line-height:1.25;font-family:'Latin Modern Roman';-inkscape-font-specification:'Latin Modern Roman, Normal';stroke-width:0.264583"
             x="84.974174"
             y="20.813026"
             id="text34"><tspan
               sodipodi:role="line"
               id="tspan34"
               style="stroke-width:0.264583"
               x="84.974174"
               y="20.813026">(Conformity)</tspan></text>
        </g>
      </g>
      <g
         transform="matrix(0.352778,0,0,0.352778,17.903247,27.486368)"
         ns1:version="1.10.2"
         ns1:texconverter="pdflatex"
         ns1:pdfconverter="inkscape"
         ns1:text="$(\\mathbb{R})$"
         ns1:preamble="/Users/ali/Library/Application Support/org.inkscape.Inkscape/config/inkscape/extensions/textext/default_packages.tex"
         ns1:scale="1.0"
         ns1:alignment="middle center"
         ns1:stroke-to-path="0"
         ns1:inkscapeversion="1.4"
         ns1:jacobian_sqrt="0.352778"
         id="g39">
        <defs
           id="id-d52f1abd-dd9e-49a3-b201-501d738445a5">
          <g
             id="id-812c6e5a-ba25-4831-9e74-16d7df12459b">
            <g
               id="id-e74270e3-cd31-4411-ad0e-98b6f4462800">
              <path
                 d="m 3.609375,2.625 c 0,-0.046875 0,-0.0625 -0.1875,-0.25 C 2.0625,1 1.71875,-1.0625 1.71875,-2.71875 c 0,-1.90625 0.40625,-3.796875 1.75,-5.171875 0.140625,-0.125 0.140625,-0.140625 0.140625,-0.1875 0,-0.0625 -0.046875,-0.09375 -0.109375,-0.09375 -0.109375,0 -1.09375,0.734375 -1.734375,2.125 -0.5625,1.1875 -0.6875,2.40625 -0.6875,3.328125 0,0.84375 0.125,2.15625 0.71875,3.390625 C 2.453125,2.015625 3.390625,2.71875 3.5,2.71875 3.5625,2.71875 3.609375,2.6875 3.609375,2.625 Z m 0,0"
                 id="id-fcc94a86-e83a-4e4f-8844-10276fd8ec38" />
            </g>
            <g
               id="id-caaa2b26-cbf8-40dd-8103-750e6aa2ff12">
              <path
                 d="m 3.15625,-2.71875 c 0,-0.859375 -0.125,-2.171875 -0.71875,-3.40625 -0.65625,-1.34375 -1.59375,-2.046875 -1.703125,-2.046875 -0.0625,0 -0.109375,0.03125 -0.109375,0.09375 0,0.046875 0,0.0625 0.203125,0.265625 1.0625,1.078125 1.6875,2.8125 1.6875,5.09375 0,1.859375 -0.40625,3.78125 -1.75,5.15625 C 0.625,2.5625 0.625,2.578125 0.625,2.625 c 0,0.0625 0.046875,0.09375 0.109375,0.09375 0.109375,0 1.09375,-0.734375 1.734375,-2.125 0.546875,-1.1875 0.6875,-2.40625 0.6875,-3.3125 z m 0,0"
                 id="id-dbb11531-4f81-4b53-a4fa-5671e0ebe7c4" />
            </g>
            <g
               id="id-d453bf80-6f3a-4e5e-b8b6-77d89bece2ad">
              <path
                 d="M 2.921875,-3.421875 H 3.3125 l 1.640625,2.53125 C 5.0625,-0.71875 5.328125,-0.296875 5.4375,-0.125 5.515625,0 5.546875,0 5.796875,0 H 7.3125 C 7.5,0 7.671875,0 7.671875,-0.203125 7.671875,-0.28125 7.609375,-0.359375 7.5,-0.375 7.09375,-0.46875 6.5625,-1.1875 6.296875,-1.53125 6.234375,-1.640625 5.6875,-2.359375 4.953125,-3.546875 5.921875,-3.71875 6.859375,-4.140625 6.859375,-5.4375 6.859375,-6.953125 5.25,-7.46875 3.96875,-7.46875 H 0.546875 c -0.203125,0 -0.375,0 -0.375,0.1875 0,0.1875 0.203125,0.1875 0.296875,0.1875 0.625,0 0.671875,0.078125 0.671875,0.625 V -1 c 0,0.546875 -0.046875,0.625 -0.671875,0.625 -0.09375,0 -0.296875,0 -0.296875,0.171875 C 0.171875,0 0.34375,0 0.546875,0 H 3.53125 C 3.734375,0 3.890625,0 3.890625,-0.203125 3.890625,-0.375 3.703125,-0.375 3.59375,-0.375 2.96875,-0.375 2.921875,-0.46875 2.921875,-1 Z m 2.109375,-0.53125 c 0.296875,-0.40625 0.328125,-0.984375 0.328125,-1.46875 0,-0.515625 -0.0625,-1.09375 -0.40625,-1.546875 0.453125,0.09375 1.53125,0.4375 1.53125,1.53125 0,0.71875 -0.328125,1.265625 -1.453125,1.484375 z M 2.921875,-6.5 c 0,-0.234375 0,-0.59375 0.671875,-0.59375 0.9375,0 1.390625,0.390625 1.390625,1.671875 0,1.40625 -0.34375,1.609375 -2.0625,1.609375 z M 1.4375,-0.375 c 0.09375,-0.203125 0.09375,-0.515625 0.09375,-0.609375 v -5.5 c 0,-0.109375 0,-0.40625 -0.09375,-0.609375 h 1.25 c -0.140625,0.171875 -0.140625,0.390625 -0.140625,0.5625 v 5.546875 c 0,0.109375 0,0.40625 0.078125,0.609375 z M 3.765625,-3.421875 C 3.84375,-3.4375 3.875,-3.453125 3.96875,-3.453125 c 0.171875,0 0.40625,-0.015625 0.5625,-0.03125 0.171875,0.25 1.34375,2.203125 2.25,3.109375 h -1.0625 z m 0,0"
                 id="id-13247a8c-a1cf-4448-8b9e-1c2525e338e9" />
            </g>
          </g>
        </defs>
        <g
           fill="#000000"
           fill-opacity="1"
           id="id-66e6d794-abcf-4e00-ba16-4f22b9278f6d"
           transform="translate(-143.813,-132.57)">
          <g
             transform="translate(142.735,140.742)"
             id="g36">
            <path
               d="m 3.609375,2.625 c 0,-0.046875 0,-0.0625 -0.1875,-0.25 C 2.0625,1 1.71875,-1.0625 1.71875,-2.71875 c 0,-1.90625 0.40625,-3.796875 1.75,-5.171875 0.140625,-0.125 0.140625,-0.140625 0.140625,-0.1875 0,-0.0625 -0.046875,-0.09375 -0.109375,-0.09375 -0.109375,0 -1.09375,0.734375 -1.734375,2.125 -0.5625,1.1875 -0.6875,2.40625 -0.6875,3.328125 0,0.84375 0.125,2.15625 0.71875,3.390625 C 2.453125,2.015625 3.390625,2.71875 3.5,2.71875 3.5625,2.71875 3.609375,2.6875 3.609375,2.625 Z m 0,0"
               id="id-38e55778-ff17-4679-9fde-3f17d8d90783" />
          </g>
        </g>
        <g
           fill="#000000"
           fill-opacity="1"
           id="id-ede29fc1-c78c-41da-b2ac-9e5dcd432ee4"
           transform="translate(-143.813,-132.57)">
          <g
             transform="translate(146.977,140.742)"
             id="g37">
            <path
               d="M 2.921875,-3.421875 H 3.3125 l 1.640625,2.53125 C 5.0625,-0.71875 5.328125,-0.296875 5.4375,-0.125 5.515625,0 5.546875,0 5.796875,0 H 7.3125 C 7.5,0 7.671875,0 7.671875,-0.203125 7.671875,-0.28125 7.609375,-0.359375 7.5,-0.375 7.09375,-0.46875 6.5625,-1.1875 6.296875,-1.53125 6.234375,-1.640625 5.6875,-2.359375 4.953125,-3.546875 5.921875,-3.71875 6.859375,-4.140625 6.859375,-5.4375 6.859375,-6.953125 5.25,-7.46875 3.96875,-7.46875 H 0.546875 c -0.203125,0 -0.375,0 -0.375,0.1875 0,0.1875 0.203125,0.1875 0.296875,0.1875 0.625,0 0.671875,0.078125 0.671875,0.625 V -1 c 0,0.546875 -0.046875,0.625 -0.671875,0.625 -0.09375,0 -0.296875,0 -0.296875,0.171875 C 0.171875,0 0.34375,0 0.546875,0 H 3.53125 C 3.734375,0 3.890625,0 3.890625,-0.203125 3.890625,-0.375 3.703125,-0.375 3.59375,-0.375 2.96875,-0.375 2.921875,-0.46875 2.921875,-1 Z m 2.109375,-0.53125 c 0.296875,-0.40625 0.328125,-0.984375 0.328125,-1.46875 0,-0.515625 -0.0625,-1.09375 -0.40625,-1.546875 0.453125,0.09375 1.53125,0.4375 1.53125,1.53125 0,0.71875 -0.328125,1.265625 -1.453125,1.484375 z M 2.921875,-6.5 c 0,-0.234375 0,-0.59375 0.671875,-0.59375 0.9375,0 1.390625,0.390625 1.390625,1.671875 0,1.40625 -0.34375,1.609375 -2.0625,1.609375 z M 1.4375,-0.375 c 0.09375,-0.203125 0.09375,-0.515625 0.09375,-0.609375 v -5.5 c 0,-0.109375 0,-0.40625 -0.09375,-0.609375 h 1.25 c -0.140625,0.171875 -0.140625,0.390625 -0.140625,0.5625 v 5.546875 c 0,0.109375 0,0.40625 0.078125,0.609375 z M 3.765625,-3.421875 C 3.84375,-3.4375 3.875,-3.453125 3.96875,-3.453125 c 0.171875,0 0.40625,-0.015625 0.5625,-0.03125 0.171875,0.25 1.34375,2.203125 2.25,3.109375 h -1.0625 z m 0,0"
               id="id-b9b5b880-b79d-4cd8-8417-4882d5198985" />
          </g>
        </g>
        <g
           fill="#000000"
           fill-opacity="1"
           id="id-4cc2ef71-9fe2-4afa-a9aa-49e4e3864766"
           transform="translate(-143.813,-132.57)">
          <g
             transform="translate(154.856,140.742)"
             id="g38">
            <path
               d="m 3.15625,-2.71875 c 0,-0.859375 -0.125,-2.171875 -0.71875,-3.40625 -0.65625,-1.34375 -1.59375,-2.046875 -1.703125,-2.046875 -0.0625,0 -0.109375,0.03125 -0.109375,0.09375 0,0.046875 0,0.0625 0.203125,0.265625 1.0625,1.078125 1.6875,2.8125 1.6875,5.09375 0,1.859375 -0.40625,3.78125 -1.75,5.15625 C 0.625,2.5625 0.625,2.578125 0.625,2.625 c 0,0.0625 0.046875,0.09375 0.109375,0.09375 0.109375,0 1.09375,-0.734375 1.734375,-2.125 0.546875,-1.1875 0.6875,-2.40625 0.6875,-3.3125 z m 0,0"
               id="id-fbe311ea-e624-469a-a395-6c1373781c19" />
          </g>
        </g>
      </g>
      <g
         transform="matrix(0.352778,0,0,0.352778,57.749,27.4864)"
         ns1:version="1.10.2"
         ns1:texconverter="pdflatex"
         ns1:pdfconverter="inkscape"
         ns1:text="$(\\mathcal{V})$"
         ns1:preamble="/Users/ali/Library/Application Support/org.inkscape.Inkscape/config/inkscape/extensions/textext/default_packages.tex"
         ns1:scale="1.0"
         ns1:alignment="middle center"
         ns1:stroke-to-path="0"
         ns1:inkscapeversion="1.4"
         ns1:jacobian_sqrt="0.352778"
         id="g53">
        <defs
           id="id-3c1accd1-cc30-4b7d-a14a-273767921e23">
          <g
             id="id-18ec296d-d235-496e-8c43-106446d0d89f">
            <g
               id="id-26bf0ada-ca75-43d7-af99-3bca08fad866">
              <path
                 d="m 3.609375,2.625 c 0,-0.046875 0,-0.0625 -0.1875,-0.25 C 2.0625,1 1.71875,-1.0625 1.71875,-2.71875 c 0,-1.90625 0.40625,-3.796875 1.75,-5.171875 0.140625,-0.125 0.140625,-0.140625 0.140625,-0.1875 0,-0.0625 -0.046875,-0.09375 -0.109375,-0.09375 -0.109375,0 -1.09375,0.734375 -1.734375,2.125 -0.5625,1.1875 -0.6875,2.40625 -0.6875,3.328125 0,0.84375 0.125,2.15625 0.71875,3.390625 C 2.453125,2.015625 3.390625,2.71875 3.5,2.71875 3.5625,2.71875 3.609375,2.6875 3.609375,2.625 Z m 0,0"
                 id="id-82ca02f1-f23b-4a51-855e-b29048250a04" />
            </g>
            <g
               id="id-0b2c3e3d-24e1-4d23-aa50-7d0c80636b1f">
              <path
                 d="m 3.15625,-2.71875 c 0,-0.859375 -0.125,-2.171875 -0.71875,-3.40625 -0.65625,-1.34375 -1.59375,-2.046875 -1.703125,-2.046875 -0.0625,0 -0.109375,0.03125 -0.109375,0.09375 0,0.046875 0,0.0625 0.203125,0.265625 1.0625,1.078125 1.6875,2.8125 1.6875,5.09375 0,1.859375 -0.40625,3.78125 -1.75,5.15625 C 0.625,2.5625 0.625,2.578125 0.625,2.625 c 0,0.0625 0.046875,0.09375 0.109375,0.09375 0.109375,0 1.09375,-0.734375 1.734375,-2.125 0.546875,-1.1875 0.6875,-2.40625 0.6875,-3.3125 z m 0,0"
                 id="id-0c2babcd-b862-454e-a1a0-2a5b8757c831" />
            </g>
            <g
               id="id-e5987f89-7505-44ec-9855-5b250d56ca3a">
              <path
                 d="m 2.9375,-0.9375 c 0.171875,-1.34375 0.171875,-2.328125 0.171875,-2.484375 0,-0.78125 0,-4.03125 -1.984375,-4.03125 -0.375,0 -0.75,0.3125 -0.75,0.46875 0,0.0625 0.046875,0.0625 0.203125,0.078125 1.59375,0.140625 1.71875,2.640625 1.71875,3.875 0,1.09375 -0.140625,2.40625 -0.265625,3.140625 C 2,0.234375 2,0.265625 2,0.3125 c 0,0.046875 0,0.171875 0.078125,0.171875 0.125,0 2.765625,-2.015625 4.15625,-4.109375 0.546875,-0.859375 0.96875,-1.828125 0.96875,-2.5625 0,-0.921875 -0.609375,-1.265625 -1.0625,-1.265625 -0.3125,0 -0.46875,0.6875 -0.46875,0.828125 0,0.171875 0.046875,0.171875 0.1875,0.171875 0.734375,0.09375 0.859375,0.671875 0.859375,0.9375 0,0.875 -1.890625,3.109375 -3.78125,4.578125 z m 0,0"
                 id="id-6dda172f-da1b-455b-a8a6-eac0a61b57e9" />
            </g>
          </g>
        </defs>
        <g
           fill="#000000"
           fill-opacity="1"
           id="id-57aedf42-ee61-4139-a0f7-53f561a42a66"
           transform="translate(-143.813,-132.57)">
          <g
             transform="translate(142.735,140.742)"
             id="g50">
            <path
               d="m 3.609375,2.625 c 0,-0.046875 0,-0.0625 -0.1875,-0.25 C 2.0625,1 1.71875,-1.0625 1.71875,-2.71875 c 0,-1.90625 0.40625,-3.796875 1.75,-5.171875 0.140625,-0.125 0.140625,-0.140625 0.140625,-0.1875 0,-0.0625 -0.046875,-0.09375 -0.109375,-0.09375 -0.109375,0 -1.09375,0.734375 -1.734375,2.125 -0.5625,1.1875 -0.6875,2.40625 -0.6875,3.328125 0,0.84375 0.125,2.15625 0.71875,3.390625 C 2.453125,2.015625 3.390625,2.71875 3.5,2.71875 3.5625,2.71875 3.609375,2.6875 3.609375,2.625 Z m 0,0"
               id="id-dab76033-9fbf-41fb-8b0b-8188ab2e1fbf" />
          </g>
        </g>
        <g
           fill="#000000"
           fill-opacity="1"
           id="id-25f0c54c-a7f2-4487-81db-831818758ad9"
           transform="translate(-143.813,-132.57)">
          <g
             transform="translate(146.977,140.742)"
             id="g51">
            <path
               d="m 2.9375,-0.9375 c 0.171875,-1.34375 0.171875,-2.328125 0.171875,-2.484375 0,-0.78125 0,-4.03125 -1.984375,-4.03125 -0.375,0 -0.75,0.3125 -0.75,0.46875 0,0.0625 0.046875,0.0625 0.203125,0.078125 1.59375,0.140625 1.71875,2.640625 1.71875,3.875 0,1.09375 -0.140625,2.40625 -0.265625,3.140625 C 2,0.234375 2,0.265625 2,0.3125 c 0,0.046875 0,0.171875 0.078125,0.171875 0.125,0 2.765625,-2.015625 4.15625,-4.109375 0.546875,-0.859375 0.96875,-1.828125 0.96875,-2.5625 0,-0.921875 -0.609375,-1.265625 -1.0625,-1.265625 -0.3125,0 -0.46875,0.6875 -0.46875,0.828125 0,0.171875 0.046875,0.171875 0.1875,0.171875 0.734375,0.09375 0.859375,0.671875 0.859375,0.9375 0,0.875 -1.890625,3.109375 -3.78125,4.578125 z m 0,0"
               id="id-d051b2f5-7cd8-421a-bbae-eaff7c44b43d" />
          </g>
        </g>
        <g
           fill="#000000"
           fill-opacity="1"
           id="id-d904cf51-76c4-4257-b229-e461a5a87178"
           transform="translate(-143.813,-132.57)">
          <g
             transform="translate(154.559,140.742)"
             id="g52">
            <path
               d="m 3.15625,-2.71875 c 0,-0.859375 -0.125,-2.171875 -0.71875,-3.40625 -0.65625,-1.34375 -1.59375,-2.046875 -1.703125,-2.046875 -0.0625,0 -0.109375,0.03125 -0.109375,0.09375 0,0.046875 0,0.0625 0.203125,0.265625 1.0625,1.078125 1.6875,2.8125 1.6875,5.09375 0,1.859375 -0.40625,3.78125 -1.75,5.15625 C 0.625,2.5625 0.625,2.578125 0.625,2.625 c 0,0.0625 0.046875,0.09375 0.109375,0.09375 0.109375,0 1.09375,-0.734375 1.734375,-2.125 0.546875,-1.1875 0.6875,-2.40625 0.6875,-3.3125 z m 0,0"
               id="id-9439a07d-ca88-4297-ad62-e5803b44b465" />
          </g>
        </g>
      </g>
      <g
         transform="matrix(0.352778,0,0,0.352778,139.843,29.7715)"
         ns1:version="1.10.2"
         ns1:texconverter="pdflatex"
         ns1:pdfconverter="inkscape"
         ns1:text="$(\\mathbb{R}^3)$"
         ns1:preamble="/Users/ali/Library/Application Support/org.inkscape.Inkscape/config/inkscape/extensions/textext/default_packages.tex"
         ns1:scale="1.0"
         ns1:alignment="middle center"
         ns1:stroke-to-path="0"
         ns1:inkscapeversion="1.4"
         ns1:jacobian_sqrt="0.352778"
         id="g68">
        <defs
           id="id-8b1f7b51-8c40-4c77-844b-15451ef8a2c8">
          <g
             id="id-afb7aa99-69de-4e25-a05f-1a45bd2b0a2a">
            <g
               id="id-d4abf68f-75bd-4e9c-9d1b-31712334207c">
              <path
                 d="m 3.609375,2.625 c 0,-0.046875 0,-0.0625 -0.1875,-0.25 C 2.0625,1 1.71875,-1.0625 1.71875,-2.71875 c 0,-1.90625 0.40625,-3.796875 1.75,-5.171875 0.140625,-0.125 0.140625,-0.140625 0.140625,-0.1875 0,-0.0625 -0.046875,-0.09375 -0.109375,-0.09375 -0.109375,0 -1.09375,0.734375 -1.734375,2.125 -0.5625,1.1875 -0.6875,2.40625 -0.6875,3.328125 0,0.84375 0.125,2.15625 0.71875,3.390625 C 2.453125,2.015625 3.390625,2.71875 3.5,2.71875 3.5625,2.71875 3.609375,2.6875 3.609375,2.625 Z m 0,0"
                 id="id-bfbfebab-80f0-4d83-870b-33d4a68b0163" />
            </g>
            <g
               id="id-f7b4e220-2f15-4317-8f4d-526e3f2371a9">
              <path
                 d="m 3.15625,-2.71875 c 0,-0.859375 -0.125,-2.171875 -0.71875,-3.40625 -0.65625,-1.34375 -1.59375,-2.046875 -1.703125,-2.046875 -0.0625,0 -0.109375,0.03125 -0.109375,0.09375 0,0.046875 0,0.0625 0.203125,0.265625 1.0625,1.078125 1.6875,2.8125 1.6875,5.09375 0,1.859375 -0.40625,3.78125 -1.75,5.15625 C 0.625,2.5625 0.625,2.578125 0.625,2.625 c 0,0.0625 0.046875,0.09375 0.109375,0.09375 0.109375,0 1.09375,-0.734375 1.734375,-2.125 0.546875,-1.1875 0.6875,-2.40625 0.6875,-3.3125 z m 0,0"
                 id="id-eed9f00b-84bd-41b7-8190-21eb233742b0" />
            </g>
            <g
               id="id-68a6a2b4-5b36-45e9-be68-2a5d508f06a7">
              <path
                 d="M 2.921875,-3.421875 H 3.3125 l 1.640625,2.53125 C 5.0625,-0.71875 5.328125,-0.296875 5.4375,-0.125 5.515625,0 5.546875,0 5.796875,0 H 7.3125 C 7.5,0 7.671875,0 7.671875,-0.203125 7.671875,-0.28125 7.609375,-0.359375 7.5,-0.375 7.09375,-0.46875 6.5625,-1.1875 6.296875,-1.53125 6.234375,-1.640625 5.6875,-2.359375 4.953125,-3.546875 5.921875,-3.71875 6.859375,-4.140625 6.859375,-5.4375 6.859375,-6.953125 5.25,-7.46875 3.96875,-7.46875 H 0.546875 c -0.203125,0 -0.375,0 -0.375,0.1875 0,0.1875 0.203125,0.1875 0.296875,0.1875 0.625,0 0.671875,0.078125 0.671875,0.625 V -1 c 0,0.546875 -0.046875,0.625 -0.671875,0.625 -0.09375,0 -0.296875,0 -0.296875,0.171875 C 0.171875,0 0.34375,0 0.546875,0 H 3.53125 C 3.734375,0 3.890625,0 3.890625,-0.203125 3.890625,-0.375 3.703125,-0.375 3.59375,-0.375 2.96875,-0.375 2.921875,-0.46875 2.921875,-1 Z m 2.109375,-0.53125 c 0.296875,-0.40625 0.328125,-0.984375 0.328125,-1.46875 0,-0.515625 -0.0625,-1.09375 -0.40625,-1.546875 0.453125,0.09375 1.53125,0.4375 1.53125,1.53125 0,0.71875 -0.328125,1.265625 -1.453125,1.484375 z M 2.921875,-6.5 c 0,-0.234375 0,-0.59375 0.671875,-0.59375 0.9375,0 1.390625,0.390625 1.390625,1.671875 0,1.40625 -0.34375,1.609375 -2.0625,1.609375 z M 1.4375,-0.375 c 0.09375,-0.203125 0.09375,-0.515625 0.09375,-0.609375 v -5.5 c 0,-0.109375 0,-0.40625 -0.09375,-0.609375 h 1.25 c -0.140625,0.171875 -0.140625,0.390625 -0.140625,0.5625 v 5.546875 c 0,0.109375 0,0.40625 0.078125,0.609375 z M 3.765625,-3.421875 C 3.84375,-3.4375 3.875,-3.453125 3.96875,-3.453125 c 0.171875,0 0.40625,-0.015625 0.5625,-0.03125 0.171875,0.25 1.34375,2.203125 2.25,3.109375 h -1.0625 z m 0,0"
                 id="id-4e511be3-227d-4224-b4ef-1815d1895018" />
            </g>
            <g
               id="id-17172a70-afa9-4063-b766-865fab50c0e3">
              <path
                 d="m 2.015625,-2.65625 c 0.625,0 1.03125,0.453125 1.03125,1.296875 0,1 -0.5625,1.28125 -0.984375,1.28125 -0.4375,0 -1.046875,-0.15625 -1.328125,-0.578125 0.296875,0 0.5,-0.1875 0.5,-0.4375 0,-0.265625 -0.1875,-0.4375 -0.453125,-0.4375 -0.203125,0 -0.4375,0.125 -0.4375,0.453125 0,0.75 0.8125,1.25 1.734375,1.25 C 3.125,0.171875 3.875,-0.5625 3.875,-1.359375 3.875,-2.03125 3.34375,-2.625 2.53125,-2.8125 c 0.625,-0.21875 1.109375,-0.75 1.109375,-1.390625 0,-0.640625 -0.71875,-1.09375 -1.546875,-1.09375 -0.859375,0 -1.5,0.453125 -1.5,1.0625 0,0.296875 0.1875,0.421875 0.40625,0.421875 0.25,0 0.40625,-0.171875 0.40625,-0.40625 0,-0.296875 -0.265625,-0.40625 -0.4375,-0.40625 0.34375,-0.4375 0.953125,-0.46875 1.09375,-0.46875 0.203125,0 0.8125,0.0625 0.8125,0.890625 0,0.546875 -0.234375,0.890625 -0.34375,1.015625 -0.234375,0.25 -0.421875,0.265625 -0.90625,0.296875 -0.15625,0 -0.21875,0.015625 -0.21875,0.125 0,0.109375 0.078125,0.109375 0.21875,0.109375 z m 0,0"
                 id="id-1ff92b48-375c-408d-aea5-524538527a8a" />
            </g>
          </g>
        </defs>
        <g
           fill="#000000"
           fill-opacity="1"
           id="id-f4abab2e-9009-4c4a-967f-db0ee4ac2830"
           transform="translate(-143.813,-131.486)">
          <g
             transform="translate(142.735,140.742)"
             id="g64">
            <path
               d="m 3.609375,2.625 c 0,-0.046875 0,-0.0625 -0.1875,-0.25 C 2.0625,1 1.71875,-1.0625 1.71875,-2.71875 c 0,-1.90625 0.40625,-3.796875 1.75,-5.171875 0.140625,-0.125 0.140625,-0.140625 0.140625,-0.1875 0,-0.0625 -0.046875,-0.09375 -0.109375,-0.09375 -0.109375,0 -1.09375,0.734375 -1.734375,2.125 -0.5625,1.1875 -0.6875,2.40625 -0.6875,3.328125 0,0.84375 0.125,2.15625 0.71875,3.390625 C 2.453125,2.015625 3.390625,2.71875 3.5,2.71875 3.5625,2.71875 3.609375,2.6875 3.609375,2.625 Z m 0,0"
               id="id-4d788292-fbd6-4e38-904b-3f7896eee3bf" />
          </g>
        </g>
        <g
           fill="#000000"
           fill-opacity="1"
           id="id-3fe2d577-e604-4800-869c-620091b19b25"
           transform="translate(-143.813,-131.486)">
          <g
             transform="translate(146.977,140.742)"
             id="g65">
            <path
               d="M 2.921875,-3.421875 H 3.3125 l 1.640625,2.53125 C 5.0625,-0.71875 5.328125,-0.296875 5.4375,-0.125 5.515625,0 5.546875,0 5.796875,0 H 7.3125 C 7.5,0 7.671875,0 7.671875,-0.203125 7.671875,-0.28125 7.609375,-0.359375 7.5,-0.375 7.09375,-0.46875 6.5625,-1.1875 6.296875,-1.53125 6.234375,-1.640625 5.6875,-2.359375 4.953125,-3.546875 5.921875,-3.71875 6.859375,-4.140625 6.859375,-5.4375 6.859375,-6.953125 5.25,-7.46875 3.96875,-7.46875 H 0.546875 c -0.203125,0 -0.375,0 -0.375,0.1875 0,0.1875 0.203125,0.1875 0.296875,0.1875 0.625,0 0.671875,0.078125 0.671875,0.625 V -1 c 0,0.546875 -0.046875,0.625 -0.671875,0.625 -0.09375,0 -0.296875,0 -0.296875,0.171875 C 0.171875,0 0.34375,0 0.546875,0 H 3.53125 C 3.734375,0 3.890625,0 3.890625,-0.203125 3.890625,-0.375 3.703125,-0.375 3.59375,-0.375 2.96875,-0.375 2.921875,-0.46875 2.921875,-1 Z m 2.109375,-0.53125 c 0.296875,-0.40625 0.328125,-0.984375 0.328125,-1.46875 0,-0.515625 -0.0625,-1.09375 -0.40625,-1.546875 0.453125,0.09375 1.53125,0.4375 1.53125,1.53125 0,0.71875 -0.328125,1.265625 -1.453125,1.484375 z M 2.921875,-6.5 c 0,-0.234375 0,-0.59375 0.671875,-0.59375 0.9375,0 1.390625,0.390625 1.390625,1.671875 0,1.40625 -0.34375,1.609375 -2.0625,1.609375 z M 1.4375,-0.375 c 0.09375,-0.203125 0.09375,-0.515625 0.09375,-0.609375 v -5.5 c 0,-0.109375 0,-0.40625 -0.09375,-0.609375 h 1.25 c -0.140625,0.171875 -0.140625,0.390625 -0.140625,0.5625 v 5.546875 c 0,0.109375 0,0.40625 0.078125,0.609375 z M 3.765625,-3.421875 C 3.84375,-3.4375 3.875,-3.453125 3.96875,-3.453125 c 0.171875,0 0.40625,-0.015625 0.5625,-0.03125 0.171875,0.25 1.34375,2.203125 2.25,3.109375 h -1.0625 z m 0,0"
               id="id-489784b0-2a0e-437d-b25c-592931f7a7a2" />
          </g>
        </g>
        <g
           fill="#000000"
           fill-opacity="1"
           id="id-f3570b64-6b5b-432a-bac9-e2e3dc829f03"
           transform="translate(-143.813,-131.486)">
          <g
             transform="translate(154.856,136.783)"
             id="g66">
            <path
               d="m 2.015625,-2.65625 c 0.625,0 1.03125,0.453125 1.03125,1.296875 0,1 -0.5625,1.28125 -0.984375,1.28125 -0.4375,0 -1.046875,-0.15625 -1.328125,-0.578125 0.296875,0 0.5,-0.1875 0.5,-0.4375 0,-0.265625 -0.1875,-0.4375 -0.453125,-0.4375 -0.203125,0 -0.4375,0.125 -0.4375,0.453125 0,0.75 0.8125,1.25 1.734375,1.25 C 3.125,0.171875 3.875,-0.5625 3.875,-1.359375 3.875,-2.03125 3.34375,-2.625 2.53125,-2.8125 c 0.625,-0.21875 1.109375,-0.75 1.109375,-1.390625 0,-0.640625 -0.71875,-1.09375 -1.546875,-1.09375 -0.859375,0 -1.5,0.453125 -1.5,1.0625 0,0.296875 0.1875,0.421875 0.40625,0.421875 0.25,0 0.40625,-0.171875 0.40625,-0.40625 0,-0.296875 -0.265625,-0.40625 -0.4375,-0.40625 0.34375,-0.4375 0.953125,-0.46875 1.09375,-0.46875 0.203125,0 0.8125,0.0625 0.8125,0.890625 0,0.546875 -0.234375,0.890625 -0.34375,1.015625 -0.234375,0.25 -0.421875,0.265625 -0.90625,0.296875 -0.15625,0 -0.21875,0.015625 -0.21875,0.125 0,0.109375 0.078125,0.109375 0.21875,0.109375 z m 0,0"
               id="id-d10bfc8c-2946-4de2-b46e-c8392f8b988b" />
          </g>
        </g>
        <g
           fill="#000000"
           fill-opacity="1"
           id="id-58d0adca-c38f-4bb3-b34e-62fdb03188e0"
           transform="translate(-143.813,-131.486)">
          <g
             transform="translate(159.588,140.742)"
             id="g67">
            <path
               d="m 3.15625,-2.71875 c 0,-0.859375 -0.125,-2.171875 -0.71875,-3.40625 -0.65625,-1.34375 -1.59375,-2.046875 -1.703125,-2.046875 -0.0625,0 -0.109375,0.03125 -0.109375,0.09375 0,0.046875 0,0.0625 0.203125,0.265625 1.0625,1.078125 1.6875,2.8125 1.6875,5.09375 0,1.859375 -0.40625,3.78125 -1.75,5.15625 C 0.625,2.5625 0.625,2.578125 0.625,2.625 c 0,0.0625 0.046875,0.09375 0.109375,0.09375 0.109375,0 1.09375,-0.734375 1.734375,-2.125 0.546875,-1.1875 0.6875,-2.40625 0.6875,-3.3125 z m 0,0"
               id="id-dde03064-75e5-4908-b88c-9762da4811dc" />
          </g>
        </g>
      </g>
    </g>
  </g>
</svg>
