<?xml version="1.0" encoding="UTF-8" standalone="no"?>
<!-- Created with Inkscape (http://www.inkscape.org/) -->

<svg
   width="170mm"
   height="30mm"
   viewBox="0 0 170 30"
   version="1.1"
   id="svg1"
   inkscape:version="1.4 (e7c3feb1, 2024-10-09)"
   sodipodi:docname="BL_angular_momentum.svg"
   xml:space="preserve"
   xmlns:inkscape="http://www.inkscape.org/namespaces/inkscape"
   xmlns:sodipodi="http://sodipodi.sourceforge.net/DTD/sodipodi-0.dtd"
   xmlns="http://www.w3.org/2000/svg"
   xmlns:svg="http://www.w3.org/2000/svg"
   xmlns:ns2="http://www.iki.fi/pav/software/textext/"><sodipodi:namedview
     id="namedview1"
     pagecolor="#ffffff"
     bordercolor="#999999"
     borderopacity="1"
     inkscape:showpageshadow="0"
     inkscape:pageopacity="0"
     inkscape:pagecheckerboard="0"
     inkscape:deskcolor="#d1d1d1"
     inkscape:document-units="mm"
     inkscape:zoom="1.3975205"
     inkscape:cx="354.91428"
     inkscape:cy="13.595507"
     inkscape:window-width="1440"
     inkscape:window-height="847"
     inkscape:window-x="0"
     inkscape:window-y="25"
     inkscape:window-maximized="1"
     inkscape:current-layer="layer1"
     showgrid="false"
     showguides="true" /><defs
     id="defs1"><inkscape:path-effect
   effect="powerstroke"
   message=""
   id="path-effect3"
   is_visible="true"
   lpeversion="1.3"
   scale_width="1"
   interpolator_type="CentripetalCatmullRom"
   interpolator_beta="0.75"
   start_linecap_type="round"
   end_linecap_type="round"
   offset_points="0.34376925,0.49025612"
   linejoin_type="spiro"
   miter_limit="4"
   not_jump="true"
   sort_points="true" /><g
   id="id-547abc9a-b96e-4f1a-880f-14cc8e0607fc"><g
     id="id-79a34fcd-29bd-4896-ab9d-3e063882f573"><path
       d="m 3.734375,-6.125 c 0.0625,-0.234375 0.09375,-0.328125 0.28125,-0.359375 C 4.109375,-6.5 4.421875,-6.5 4.625,-6.5 c 0.703125,0 1.8125,0 1.8125,0.984375 0,0.34375 -0.15625,1.03125 -0.546875,1.421875 -0.265625,0.25 -0.78125,0.578125 -1.6875,0.578125 H 3.09375 Z m 1.4375,2.734375 c 1.015625,-0.21875 2.1875,-0.921875 2.1875,-1.921875 0,-0.859375 -0.890625,-1.5 -2.203125,-1.5 H 2.328125 c -0.203125,0 -0.296875,0 -0.296875,0.203125 C 2.03125,-6.5 2.125,-6.5 2.3125,-6.5 c 0.015625,0 0.203125,0 0.375,0.015625 0.1875,0.03125 0.265625,0.03125 0.265625,0.171875 0,0.03125 0,0.0625 -0.03125,0.1875 l -1.34375,5.34375 C 1.484375,-0.390625 1.46875,-0.3125 0.671875,-0.3125 0.5,-0.3125 0.40625,-0.3125 0.40625,-0.109375 0.40625,0 0.53125,0 0.546875,0 c 0.28125,0 0.984375,-0.03125 1.25,-0.03125 0.28125,0 1,0.03125 1.28125,0.03125 0.078125,0 0.1875,0 0.1875,-0.203125 0,-0.109375 -0.078125,-0.109375 -0.28125,-0.109375 -0.359375,0 -0.640625,0 -0.640625,-0.171875 0,-0.0625 0.015625,-0.109375 0.03125,-0.171875 l 0.65625,-2.640625 h 1.1875 c 0.90625,0 1.078125,0.5625 1.078125,0.90625 0,0.140625 -0.078125,0.453125 -0.140625,0.6875 C 5.09375,-1.421875 5,-1.0625 5,-0.859375 5,0.21875 6.203125,0.21875 6.328125,0.21875 c 0.84375,0 1.203125,-1 1.203125,-1.140625 0,-0.125 -0.109375,-0.125 -0.125,-0.125 -0.09375,0 -0.109375,0.0625 -0.125,0.140625 C 7.03125,-0.171875 6.59375,0 6.375,0 6.046875,0 5.96875,-0.21875 5.96875,-0.609375 c 0,-0.3125 0.0625,-0.8125 0.109375,-1.140625 0.015625,-0.140625 0.03125,-0.328125 0.03125,-0.46875 0,-0.765625 -0.671875,-1.078125 -0.9375,-1.171875 z m 0,0"
       id="id-423c8eda-1f71-4f3a-ab99-d15f272d5205" /></g><g
     id="id-9245ec75-35a0-4790-bb22-57d1c6ed4aa6"><path
       d="M 3.59375,-2.21875 C 3.59375,-2.984375 3.5,-3.546875 3.1875,-4.03125 2.96875,-4.34375 2.53125,-4.625 1.984375,-4.625 c -1.625,0 -1.625,1.90625 -1.625,2.40625 0,0.5 0,2.359375 1.625,2.359375 1.609375,0 1.609375,-1.859375 1.609375,-2.359375 z M 1.984375,-0.0625 c -0.328125,0 -0.75,-0.1875 -0.890625,-0.75 C 1,-1.21875 1,-1.796875 1,-2.3125 1,-2.828125 1,-3.359375 1.09375,-3.734375 1.25,-4.28125 1.6875,-4.4375 1.984375,-4.4375 c 0.375,0 0.734375,0.234375 0.859375,0.640625 0.109375,0.375 0.125,0.875 0.125,1.484375 0,0.515625 0,1.03125 -0.09375,1.46875 -0.140625,0.640625 -0.609375,0.78125 -0.890625,0.78125 z m 0,0"
       id="id-2b946283-ed6c-4f8f-acf7-ad5c5ba419dd" /></g></g><g
   id="id-b0e346fe-948d-4d93-92b7-cf06bd6cb37b"><g
     id="id-70873928-d445-432d-966f-f4c0e50966f4"><path
       d="m 3.734375,-6.125 c 0.0625,-0.234375 0.09375,-0.328125 0.28125,-0.359375 C 4.109375,-6.5 4.421875,-6.5 4.625,-6.5 c 0.703125,0 1.8125,0 1.8125,0.984375 0,0.34375 -0.15625,1.03125 -0.546875,1.421875 -0.265625,0.25 -0.78125,0.578125 -1.6875,0.578125 H 3.09375 Z m 1.4375,2.734375 c 1.015625,-0.21875 2.1875,-0.921875 2.1875,-1.921875 0,-0.859375 -0.890625,-1.5 -2.203125,-1.5 H 2.328125 c -0.203125,0 -0.296875,0 -0.296875,0.203125 C 2.03125,-6.5 2.125,-6.5 2.3125,-6.5 c 0.015625,0 0.203125,0 0.375,0.015625 0.1875,0.03125 0.265625,0.03125 0.265625,0.171875 0,0.03125 0,0.0625 -0.03125,0.1875 l -1.34375,5.34375 C 1.484375,-0.390625 1.46875,-0.3125 0.671875,-0.3125 0.5,-0.3125 0.40625,-0.3125 0.40625,-0.109375 0.40625,0 0.53125,0 0.546875,0 c 0.28125,0 0.984375,-0.03125 1.25,-0.03125 0.28125,0 1,0.03125 1.28125,0.03125 0.078125,0 0.1875,0 0.1875,-0.203125 0,-0.109375 -0.078125,-0.109375 -0.28125,-0.109375 -0.359375,0 -0.640625,0 -0.640625,-0.171875 0,-0.0625 0.015625,-0.109375 0.03125,-0.171875 l 0.65625,-2.640625 h 1.1875 c 0.90625,0 1.078125,0.5625 1.078125,0.90625 0,0.140625 -0.078125,0.453125 -0.140625,0.6875 C 5.09375,-1.421875 5,-1.0625 5,-0.859375 5,0.21875 6.203125,0.21875 6.328125,0.21875 c 0.84375,0 1.203125,-1 1.203125,-1.140625 0,-0.125 -0.109375,-0.125 -0.125,-0.125 -0.09375,0 -0.109375,0.0625 -0.125,0.140625 C 7.03125,-0.171875 6.59375,0 6.375,0 6.046875,0 5.96875,-0.21875 5.96875,-0.609375 c 0,-0.3125 0.0625,-0.8125 0.109375,-1.140625 0.015625,-0.140625 0.03125,-0.328125 0.03125,-0.46875 0,-0.765625 -0.671875,-1.078125 -0.9375,-1.171875 z m 0,0"
       id="id-04c9acb1-85d0-404d-9c7b-53c25db09088" /></g></g><g
   id="id-9f90a0c3-2d73-423f-b689-a56e1e72a133"><g
     id="id-0a75f55b-bcd3-4c6a-9a75-f53819d20e79"><path
       d="M 5.84375,-4.375 C 5.453125,-4.265625 5.25,-3.890625 5.25,-3.625 c 0,0.25 0.1875,0.5 0.546875,0.5 0.390625,0 0.796875,-0.3125 0.796875,-0.84375 0,-0.578125 -0.578125,-0.953125 -1.25,-0.953125 -0.625,0 -1.03125,0.46875 -1.171875,0.65625 -0.265625,-0.453125 -0.875,-0.65625 -1.5,-0.65625 -1.375,0 -2.109375,1.328125 -2.109375,1.6875 0,0.15625 0.15625,0.15625 0.25,0.15625 0.140625,0 0.21875,0 0.25,-0.140625 0.328125,-0.984375 1.109375,-1.3125 1.5625,-1.3125 0.40625,0 0.609375,0.1875 0.609375,0.546875 0,0.203125 -0.15625,0.796875 -0.25,1.1875 l -0.375,1.5 C 2.4375,-0.625 2.046875,-0.3125 1.671875,-0.3125 1.625,-0.3125 1.375,-0.3125 1.15625,-0.46875 1.546875,-0.578125 1.75,-0.953125 1.75,-1.21875 c 0,-0.25 -0.1875,-0.5 -0.546875,-0.5 -0.390625,0 -0.78125,0.3125 -0.78125,0.84375 0,0.578125 0.578125,0.96875 1.234375,0.96875 0.625,0 1.03125,-0.46875 1.171875,-0.671875 0.265625,0.453125 0.875,0.671875 1.5,0.671875 1.375,0 2.125,-1.34375 2.125,-1.703125 0,-0.15625 -0.171875,-0.15625 -0.265625,-0.15625 -0.140625,0 -0.203125,0 -0.25,0.140625 -0.328125,1 -1.109375,1.3125 -1.546875,1.3125 -0.421875,0 -0.609375,-0.1875 -0.609375,-0.53125 0,-0.234375 0.140625,-0.8125 0.234375,-1.21875 0.078125,-0.28125 0.328125,-1.3125 0.375,-1.484375 0.171875,-0.65625 0.546875,-0.984375 0.9375,-0.984375 0.046875,0 0.296875,0 0.515625,0.15625 z m 0,0"
       id="id-449bdeff-1932-4188-9653-0db5d2b134ff" /></g></g><g
   id="id-20313f22-7626-4d61-b0b4-b3a2b54ebb32"><g
     id="id-a82ac741-ee09-427d-acd7-dacf395296c1"><path
       d="m 6.34375,-4.3125 1.4375,-1.40625 0.6875,-0.6875 c 0.4375,-0.421875 0.5625,-0.546875 1.703125,-0.5625 0.203125,0 0.21875,-0.28125 0.21875,-0.3125 0,-0.0625 -0.04687,-0.203125 -0.21875,-0.203125 -0.375,0 -0.796875,0.03125 -1.1875,0.03125 -0.3125,0 -1.09375,-0.03125 -1.421875,-0.03125 -0.078125,0 -0.296875,0 -0.296875,0.3125 0,0.1875 0.171875,0.203125 0.265625,0.203125 0.328125,0.015625 0.609375,0.09375 0.65625,0.109375 l -2.078125,2.0625 -1,-2.109375 c 0.109375,-0.015625 0.4375,-0.0625 0.625,-0.0625 0.125,0 0.3125,0 0.3125,-0.3125 0,-0.140625 -0.09375,-0.203125 -0.234375,-0.203125 -0.375,0 -1.28125,0.03125 -1.65625,0.03125 -0.25,0 -0.5,0 -0.75,0 -0.25,0 -0.515625,-0.03125 -0.765625,-0.03125 -0.09375,0 -0.3125,0 -0.3125,0.3125 0,0.203125 0.140625,0.203125 0.453125,0.203125 0.15625,0 0.265625,0 0.421875,0.015625 0.15625,0.015625 0.171875,0.03125 0.234375,0.15625 l 1.5,3.15625 L 2.203125,-0.9375 C 2,-0.75 1.78125,-0.53125 0.8125,-0.515625 c -0.203125,0 -0.390625,0 -0.390625,0.3125 C 0.421875,-0.125 0.484375,0 0.640625,0 0.90625,0 1.578125,-0.03125 1.828125,-0.03125 2.15625,-0.03125 2.9375,0 3.25,0 c 0.09375,0 0.3125,0 0.3125,-0.3125 0,-0.203125 -0.203125,-0.203125 -0.296875,-0.203125 -0.21875,0 -0.4375,-0.03125 -0.640625,-0.109375 l 2.546875,-2.53125 1.234375,2.578125 c -0.015625,0 -0.375,0.0625 -0.640625,0.0625 -0.109375,0 -0.3125,0 -0.3125,0.3125 C 5.453125,-0.15625 5.46875,0 5.6875,0 c 0.375,0 1.296875,-0.03125 1.671875,-0.03125 0.25,0 0.5,0.015625 0.75,0.015625 C 8.359375,-0.015625 8.625,0 8.875,0 c 0.09375,0 0.3125,0 0.3125,-0.3125 0,-0.203125 -0.171875,-0.203125 -0.4375,-0.203125 -0.15625,0 -0.265625,0 -0.421875,-0.015625 -0.171875,-0.015625 -0.1875,-0.03125 -0.25,-0.171875 z m 0,0"
       id="id-6001faf4-095c-4826-bcc4-26dd7503cd90" /></g></g><g
   id="id-8dfe6786-fd22-4c89-b1af-f2856e2c95db"><g
     id="id-b2c651ca-133d-4b60-95f4-5705ca5fce99"><path
       d="m 5.8125,-4.015625 c 0.109375,-0.109375 0.109375,-0.125 0.109375,-0.15625 0,-0.0625 -0.046875,-0.125 -0.125,-0.125 -0.0625,0 -0.09375,0.046875 -0.15625,0.125 l -2.28125,2.53125 C 2.953125,-2.90625 2.875,-3.15625 2.65625,-3.671875 2.546875,-3.90625 2.328125,-4.40625 1.453125,-4.40625 c -0.578125,0 -0.84375,0.515625 -0.84375,0.65625 0,0.015625 0,0.09375 0.125,0.09375 0.078125,0 0.109375,-0.046875 0.125,-0.109375 C 1,-4.140625 1.328125,-4.1875 1.390625,-4.1875 c 0.296875,0 0.59375,0.765625 0.765625,1.203125 0.3125,0.78125 0.640625,1.9375 0.640625,1.96875 0,0.015625 0,0.03125 -0.078125,0.109375 L 0.421875,1.65625 C 0.3125,1.765625 0.3125,1.78125 0.3125,1.8125 c 0,0.0625 0.0625,0.125 0.109375,0.125 0.078125,0 0.125,-0.078125 0.171875,-0.109375 L 2.875,-0.734375 C 3.1875,0.296875 3.3125,0.6875 3.546875,1.25 3.671875,1.546875 3.890625,2.046875 4.78125,2.046875 5.359375,2.046875 5.625,1.53125 5.625,1.390625 5.625,1.34375 5.609375,1.28125 5.515625,1.28125 5.40625,1.28125 5.40625,1.328125 5.375,1.421875 c -0.09375,0.25 -0.34375,0.40625 -0.53125,0.40625 -0.5,0 -1.1875,-2.421875 -1.40625,-3.1875 z m 0,0"
       id="id-04090bc0-e6ee-45d3-b0ae-01cfcefd1bb2" /></g><g
     id="id-aed7f04b-e513-44d5-a874-28bab63924a8"><path
       d="m 1.71875,-2.75 h 0.703125 c 0.140625,0 0.21875,0 0.21875,-0.15625 C 2.640625,-3 2.5625,-3 2.4375,-3 H 1.78125 l 0.25,-1.03125 C 2.046875,-4.0625 2.0625,-4.109375 2.0625,-4.125 c 0,-0.140625 -0.109375,-0.234375 -0.25,-0.234375 -0.171875,0 -0.265625,0.125 -0.328125,0.296875 C 1.4375,-3.875 1.53125,-4.21875 1.21875,-3 H 0.515625 c -0.125,0 -0.21875,0 -0.21875,0.15625 C 0.296875,-2.75 0.375,-2.75 0.5,-2.75 H 1.15625 L 0.75,-1.109375 C 0.703125,-0.9375 0.640625,-0.6875 0.640625,-0.59375 c 0,0.40625 0.359375,0.65625 0.75,0.65625 0.78125,0 1.21875,-0.96875 1.21875,-1.0625 0,-0.09375 -0.09375,-0.09375 -0.109375,-0.09375 -0.09375,0 -0.09375,0.015625 -0.15625,0.140625 -0.1875,0.4375 -0.546875,0.828125 -0.921875,0.828125 -0.15625,0 -0.25,-0.09375 -0.25,-0.34375 0,-0.0625 0.03125,-0.21875 0.046875,-0.28125 z m 0,0"
       id="id-855ac6dd-44fb-4683-a953-e57d13a0cdd0" /></g></g><g
   id="id-627ac55b-74b7-4db4-8ec1-e8ee009858fc"><g
     id="id-ce126003-553f-42c3-98d1-5c62e047da0c"><path
       d="m 4.609375,-3.375 c -0.09375,-0.625 -0.5,-1.1875 -1.28125,-1.1875 -0.609375,0 -1.25,0.171875 -2.03125,0.9375 -0.828125,0.828125 -0.890625,1.765625 -0.890625,2.0625 0,0.625 0.4375,1.78125 1.828125,1.78125 2.375,0 3.40625,-3.34375 3.40625,-4.78125 0,-1.578125 -0.921875,-2.578125 -2.15625,-2.578125 -1.4375,0 -1.90625,1.296875 -1.90625,1.578125 0,0.140625 0.09375,0.34375 0.390625,0.34375 0.328125,0 0.53125,-0.296875 0.53125,-0.515625 0,-0.359375 -0.3125,-0.359375 -0.46875,-0.359375 0.4375,-0.734375 1.15625,-0.796875 1.4375,-0.796875 0.734375,0 1.421875,0.515625 1.421875,1.8125 0,0.390625 -0.0625,0.890625 -0.265625,1.703125 z m -2.34375,3.3125 c -1.09375,0 -1.09375,-1.03125 -1.09375,-1.125 0,-0.265625 0.25,-1.65625 0.65625,-2.265625 0.390625,-0.5625 0.890625,-0.890625 1.5,-0.890625 1.09375,0 1.109375,1.125 1.109375,1.328125 0,0.71875 -0.640625,2.953125 -2.171875,2.953125 z m 0,0"
       id="id-5bd77550-7daa-427f-b879-b9774365341f" /></g><g
     id="id-ca4a3794-8312-4972-807d-86255ac01e2d"><path
       d="m 3.734375,-6.125 c 0.0625,-0.234375 0.09375,-0.328125 0.28125,-0.359375 C 4.109375,-6.5 4.421875,-6.5 4.625,-6.5 c 0.703125,0 1.8125,0 1.8125,0.984375 0,0.34375 -0.15625,1.03125 -0.546875,1.421875 -0.265625,0.25 -0.78125,0.578125 -1.6875,0.578125 H 3.09375 Z m 1.4375,2.734375 c 1.015625,-0.21875 2.1875,-0.921875 2.1875,-1.921875 0,-0.859375 -0.890625,-1.5 -2.203125,-1.5 H 2.328125 c -0.203125,0 -0.296875,0 -0.296875,0.203125 C 2.03125,-6.5 2.125,-6.5 2.3125,-6.5 c 0.015625,0 0.203125,0 0.375,0.015625 0.1875,0.03125 0.265625,0.03125 0.265625,0.171875 0,0.03125 0,0.0625 -0.03125,0.1875 l -1.34375,5.34375 C 1.484375,-0.390625 1.46875,-0.3125 0.671875,-0.3125 0.5,-0.3125 0.40625,-0.3125 0.40625,-0.109375 0.40625,0 0.53125,0 0.546875,0 c 0.28125,0 0.984375,-0.03125 1.25,-0.03125 0.28125,0 1,0.03125 1.28125,0.03125 0.078125,0 0.1875,0 0.1875,-0.203125 0,-0.109375 -0.078125,-0.109375 -0.28125,-0.109375 -0.359375,0 -0.640625,0 -0.640625,-0.171875 0,-0.0625 0.015625,-0.109375 0.03125,-0.171875 l 0.65625,-2.640625 h 1.1875 c 0.90625,0 1.078125,0.5625 1.078125,0.90625 0,0.140625 -0.078125,0.453125 -0.140625,0.6875 C 5.09375,-1.421875 5,-1.0625 5,-0.859375 5,0.21875 6.203125,0.21875 6.328125,0.21875 c 0.84375,0 1.203125,-1 1.203125,-1.140625 0,-0.125 -0.109375,-0.125 -0.125,-0.125 -0.09375,0 -0.109375,0.0625 -0.125,0.140625 C 7.03125,-0.171875 6.59375,0 6.375,0 6.046875,0 5.96875,-0.21875 5.96875,-0.609375 c 0,-0.3125 0.0625,-0.8125 0.109375,-1.140625 0.015625,-0.140625 0.03125,-0.328125 0.03125,-0.46875 0,-0.765625 -0.671875,-1.078125 -0.9375,-1.171875 z m 0,0"
       id="id-e4760df2-1d71-464c-a685-3f9cb4e8baa5" /></g></g><g
   id="id-2c87bd77-aa78-434f-957d-34d969fb8cbe"><g
     id="id-3e42f15a-e439-4d4b-bb34-8c346cff0ba7"><path
       d="m 4.609375,-3.375 c -0.09375,-0.625 -0.5,-1.1875 -1.28125,-1.1875 -0.609375,0 -1.25,0.171875 -2.03125,0.9375 -0.828125,0.828125 -0.890625,1.765625 -0.890625,2.0625 0,0.625 0.4375,1.78125 1.828125,1.78125 2.375,0 3.40625,-3.34375 3.40625,-4.78125 0,-1.578125 -0.921875,-2.578125 -2.15625,-2.578125 -1.4375,0 -1.90625,1.296875 -1.90625,1.578125 0,0.140625 0.09375,0.34375 0.390625,0.34375 0.328125,0 0.53125,-0.296875 0.53125,-0.515625 0,-0.359375 -0.3125,-0.359375 -0.46875,-0.359375 0.4375,-0.734375 1.15625,-0.796875 1.4375,-0.796875 0.734375,0 1.421875,0.515625 1.421875,1.8125 0,0.390625 -0.0625,0.890625 -0.265625,1.703125 z m -2.34375,3.3125 c -1.09375,0 -1.09375,-1.03125 -1.09375,-1.125 0,-0.265625 0.25,-1.65625 0.65625,-2.265625 0.390625,-0.5625 0.890625,-0.890625 1.5,-0.890625 1.09375,0 1.109375,1.125 1.109375,1.328125 0,0.71875 -0.640625,2.953125 -2.171875,2.953125 z m 0,0"
       id="id-802f6220-4c94-4c29-b937-0d4c1fcee7cc" /></g><g
     id="id-0342b2f0-2de6-4c9c-a09f-d3ee5de2b564"><path
       d="m 3.734375,-6.125 c 0.0625,-0.234375 0.09375,-0.328125 0.28125,-0.359375 C 4.109375,-6.5 4.421875,-6.5 4.625,-6.5 c 0.703125,0 1.8125,0 1.8125,0.984375 0,0.34375 -0.15625,1.03125 -0.546875,1.421875 -0.265625,0.25 -0.78125,0.578125 -1.6875,0.578125 H 3.09375 Z m 1.4375,2.734375 c 1.015625,-0.21875 2.1875,-0.921875 2.1875,-1.921875 0,-0.859375 -0.890625,-1.5 -2.203125,-1.5 H 2.328125 c -0.203125,0 -0.296875,0 -0.296875,0.203125 C 2.03125,-6.5 2.125,-6.5 2.3125,-6.5 c 0.015625,0 0.203125,0 0.375,0.015625 0.1875,0.03125 0.265625,0.03125 0.265625,0.171875 0,0.03125 0,0.0625 -0.03125,0.1875 l -1.34375,5.34375 C 1.484375,-0.390625 1.46875,-0.3125 0.671875,-0.3125 0.5,-0.3125 0.40625,-0.3125 0.40625,-0.109375 0.40625,0 0.53125,0 0.546875,0 c 0.28125,0 0.984375,-0.03125 1.25,-0.03125 0.28125,0 1,0.03125 1.28125,0.03125 0.078125,0 0.1875,0 0.1875,-0.203125 0,-0.109375 -0.078125,-0.109375 -0.28125,-0.109375 -0.359375,0 -0.640625,0 -0.640625,-0.171875 0,-0.0625 0.015625,-0.109375 0.03125,-0.171875 l 0.65625,-2.640625 h 1.1875 c 0.90625,0 1.078125,0.5625 1.078125,0.90625 0,0.140625 -0.078125,0.453125 -0.140625,0.6875 C 5.09375,-1.421875 5,-1.0625 5,-0.859375 5,0.21875 6.203125,0.21875 6.328125,0.21875 c 0.84375,0 1.203125,-1 1.203125,-1.140625 0,-0.125 -0.109375,-0.125 -0.125,-0.125 -0.09375,0 -0.109375,0.0625 -0.125,0.140625 C 7.03125,-0.171875 6.59375,0 6.375,0 6.046875,0 5.96875,-0.21875 5.96875,-0.609375 c 0,-0.3125 0.0625,-0.8125 0.109375,-1.140625 0.015625,-0.140625 0.03125,-0.328125 0.03125,-0.46875 0,-0.765625 -0.671875,-1.078125 -0.9375,-1.171875 z m 0,0"
       id="id-18bbe4f7-da68-414b-832a-2034e78bdc39" /></g><g
     id="id-34341261-374a-475d-b172-801415424b95"><path
       d="M 3.59375,-2.21875 C 3.59375,-2.984375 3.5,-3.546875 3.1875,-4.03125 2.96875,-4.34375 2.53125,-4.625 1.984375,-4.625 c -1.625,0 -1.625,1.90625 -1.625,2.40625 0,0.5 0,2.359375 1.625,2.359375 1.609375,0 1.609375,-1.859375 1.609375,-2.359375 z M 1.984375,-0.0625 c -0.328125,0 -0.75,-0.1875 -0.890625,-0.75 C 1,-1.21875 1,-1.796875 1,-2.3125 1,-2.828125 1,-3.359375 1.09375,-3.734375 1.25,-4.28125 1.6875,-4.4375 1.984375,-4.4375 c 0.375,0 0.734375,0.234375 0.859375,0.640625 0.109375,0.375 0.125,0.875 0.125,1.484375 0,0.515625 0,1.03125 -0.09375,1.46875 -0.140625,0.640625 -0.609375,0.78125 -0.890625,0.78125 z m 0,0"
       id="id-af88f115-c5a8-447b-be0e-e37d8d0e6a20" /></g></g><filter
   inkscape:label="Fast Crop"
   inkscape:auto-region="false"
   inkscape:menu="Fill and Transparency"
   inkscape:menu-tooltip="Does not filter but adds a filter region"
   style="color-interpolation-filters:sRGB"
   id="filter11"><feColorMatrix
     type="saturate"
     values="1"
     id="feColorMatrix11" /></filter><marker
   markerWidth="5.2141986"
   markerHeight="10.929886"
   refX="2.6070993"
   refY="5.4649429"
   orient="auto-start-reverse"
   id="marker3"
   viewBox="0 0 5.2141984 10.929886"
   preserveAspectRatio="xMidYMid"><path
     style="fill:context-stroke;stroke-width:1"
     d="M 0.2200441,10.861292 C 0.0019654,10.743635 -0.0331842,10.546759 0.0873827,10.11609 0.9177449,7.1468211 2.9997732,6.029143 2.9059276,5.4444312 2.8121953,4.8597194 1.5162709,4.029807 0.6814866,2.3250851 0.3919748,1.7338951 0,0.62498553 0,0.39723876 0,0.08667498 0.4095874,-0.11447903 0.6634583,0.07140569 0.7186394,0.11169545 0.8679307,0.45382585 0.9956787,0.83172569 1.6888441,2.8844627 2.8271244,4.1971984 4.5120378,4.8868904 5.064189,5.1129062 5.2141984,5.2320369 5.2141984,5.4444312 c 0,0.2392063 -0.1058267,0.3313512 -0.6370393,0.5536214 C 3.8187969,6.3155329 3.3030425,6.651567 2.737474,7.1967714 1.9265764,7.9785137 1.3710992,8.9057036 0.9846425,10.122613 0.7465323,10.872207 0.5654551,11.047331 0.220611,10.861299 Z"
     id="path1"
     sodipodi:nodetypes="cccsssscsscssc" /></marker><defs
   id="id-177cae05-7c04-486d-9801-c59c7adc6db6">
    <g
   id="id-0d1e94a6-42c4-4917-9eec-63c0103e3590">
      <g
   id="id-5342325e-992e-40f8-9293-eb3afc4bdec2">
        <path
   d="m 7.375,-4.34375 c 0,-1.609375 -1.0625,-2.6875 -2.546875,-2.6875 -2.140625,0 -4.34375,2.265625 -4.34375,4.59375 0,1.65625 1.125,2.65625 2.5625,2.65625 2.109375,0 4.328125,-2.1875 4.328125,-4.5625 z m -4.28125,4.296875 c -0.984375,0 -1.671875,-0.796875 -1.671875,-2.109375 0,-0.453125 0.140625,-1.90625 0.90625,-3.0625 0.6875,-1.046875 1.65625,-1.5625 2.453125,-1.5625 0.8125,0 1.703125,0.5625 1.703125,2.046875 0,0.71875 -0.265625,2.265625 -1.25,3.5 C 4.75,-0.625 3.9375,-0.046875 3.09375,-0.046875 Z m 0,0"
   id="id-f3ba144a-c483-423a-8d26-12c2ce81022c" />
      </g>
    </g>
  </defs>
  
</defs><g
     inkscape:label="Layer 1"
     inkscape:groupmode="layer"
     id="layer1"><path
       style="fill:#e9e9f2;stroke:#000000;stroke-width:0.176389;stroke-linecap:butt;stroke-linejoin:miter;stroke-dasharray:none;stroke-opacity:1"
       d="m 64.226214,8.2856214 c -9.432133,-1.01697 -14.556098,3.3622036 -13.52496,10.3343976 1.898713,7.135227 10.045219,10.069737 16.767155,10.088726 6.439108,0.05794 12.988409,-0.95124 19.019602,-3.19407 7.080354,-3.19392 11.658176,-12.65625 7.282519,-19.6622596 -4.24319,-5.800561 -12.865831,-5.6153129 -18.472396,-1.996642 -3.479118,1.958622 -7.118726,4.856081 -11.07192,4.429848 z"
       id="path1-2"
       sodipodi:nodetypes="scccccs" /><ellipse
       style="fill:#000000;stroke:#000000;stroke-width:0.352778;stroke-linecap:round;stroke-linejoin:round;stroke-miterlimit:0;stroke-dasharray:none;paint-order:fill markers stroke"
       id="path2"
       cx="73.535461"
       cy="14.777487"
       rx="0.57361108"
       ry="0.57439721" /><path
       style="fill:#a51d1e;stroke:#a51d1e;stroke-width:0.141;stroke-linecap:round;stroke-linejoin:round;stroke-miterlimit:0;stroke-dasharray:none;marker-end:url(#marker3);paint-order:fill markers stroke"
       d="M 99.324248,3.2483124 74.558186,14.320475"
       id="path42"
       sodipodi:nodetypes="cc" /><g
       transform="matrix(0.352778,0,0,0.352778,94.157346,20.108651)"
       ns2:version="1.10.2"
       ns2:texconverter="pdflatex"
       ns2:pdfconverter="inkscape"
       ns2:text="$\\bm{x}$"
       ns2:preamble="/Users/ali/.textext_preamble.tex"
       ns2:scale="1.0"
       ns2:alignment="middle center"
       ns2:stroke-to-path="0"
       ns2:inkscapeversion="1.4"
       ns2:jacobian_sqrt="0.352778"
       id="g48"><defs
   id="id-3310da3b-5403-4185-a0ab-7df55076a111">
    <g
   id="id-ca532b9a-42f4-4222-bbb6-60424a111d70">
      <g
   id="id-e0f15643-4de2-485c-bbea-5621fcc1456a">
        <path
   d="M 5.84375,-4.375 C 5.453125,-4.265625 5.25,-3.890625 5.25,-3.625 c 0,0.25 0.1875,0.5 0.546875,0.5 0.390625,0 0.796875,-0.3125 0.796875,-0.84375 0,-0.578125 -0.578125,-0.953125 -1.25,-0.953125 -0.625,0 -1.03125,0.46875 -1.171875,0.65625 -0.265625,-0.453125 -0.875,-0.65625 -1.5,-0.65625 -1.375,0 -2.109375,1.328125 -2.109375,1.6875 0,0.15625 0.15625,0.15625 0.25,0.15625 0.140625,0 0.21875,0 0.25,-0.140625 0.328125,-0.984375 1.109375,-1.3125 1.5625,-1.3125 0.40625,0 0.609375,0.1875 0.609375,0.546875 0,0.203125 -0.15625,0.796875 -0.25,1.1875 l -0.375,1.5 C 2.4375,-0.625 2.046875,-0.3125 1.671875,-0.3125 1.625,-0.3125 1.375,-0.3125 1.15625,-0.46875 1.546875,-0.578125 1.75,-0.953125 1.75,-1.21875 c 0,-0.25 -0.1875,-0.5 -0.546875,-0.5 -0.390625,0 -0.78125,0.3125 -0.78125,0.84375 0,0.578125 0.578125,0.96875 1.234375,0.96875 0.625,0 1.03125,-0.46875 1.171875,-0.671875 0.265625,0.453125 0.875,0.671875 1.5,0.671875 1.375,0 2.125,-1.34375 2.125,-1.703125 0,-0.15625 -0.171875,-0.15625 -0.265625,-0.15625 -0.140625,0 -0.203125,0 -0.25,0.140625 -0.328125,1 -1.109375,1.3125 -1.546875,1.3125 -0.421875,0 -0.609375,-0.1875 -0.609375,-0.53125 0,-0.234375 0.140625,-0.8125 0.234375,-1.21875 0.078125,-0.28125 0.328125,-1.3125 0.375,-1.484375 0.171875,-0.65625 0.546875,-0.984375 0.9375,-0.984375 0.046875,0 0.296875,0 0.515625,0.15625 z m 0,0"
   id="id-2a34c23f-18c5-4824-9dbc-2c5d55229e75" />
      </g>
    </g>
  </defs>
  <g
   fill="#000000"
   fill-opacity="1"
   id="id-7bbd8d3f-6cdc-4f42-a68c-60c4c3e86b13"
   transform="translate(-143.157,-135.82)">
    <g
   transform="translate(142.735,140.742)"
   id="g47"><path
   d="M 5.84375,-4.375 C 5.453125,-4.265625 5.25,-3.890625 5.25,-3.625 c 0,0.25 0.1875,0.5 0.546875,0.5 0.390625,0 0.796875,-0.3125 0.796875,-0.84375 0,-0.578125 -0.578125,-0.953125 -1.25,-0.953125 -0.625,0 -1.03125,0.46875 -1.171875,0.65625 -0.265625,-0.453125 -0.875,-0.65625 -1.5,-0.65625 -1.375,0 -2.109375,1.328125 -2.109375,1.6875 0,0.15625 0.15625,0.15625 0.25,0.15625 0.140625,0 0.21875,0 0.25,-0.140625 0.328125,-0.984375 1.109375,-1.3125 1.5625,-1.3125 0.40625,0 0.609375,0.1875 0.609375,0.546875 0,0.203125 -0.15625,0.796875 -0.25,1.1875 l -0.375,1.5 C 2.4375,-0.625 2.046875,-0.3125 1.671875,-0.3125 1.625,-0.3125 1.375,-0.3125 1.15625,-0.46875 1.546875,-0.578125 1.75,-0.953125 1.75,-1.21875 c 0,-0.25 -0.1875,-0.5 -0.546875,-0.5 -0.390625,0 -0.78125,0.3125 -0.78125,0.84375 0,0.578125 0.578125,0.96875 1.234375,0.96875 0.625,0 1.03125,-0.46875 1.171875,-0.671875 0.265625,0.453125 0.875,0.671875 1.5,0.671875 1.375,0 2.125,-1.34375 2.125,-1.703125 0,-0.15625 -0.171875,-0.15625 -0.265625,-0.15625 -0.140625,0 -0.203125,0 -0.25,0.140625 -0.328125,1 -1.109375,1.3125 -1.546875,1.3125 -0.421875,0 -0.609375,-0.1875 -0.609375,-0.53125 0,-0.234375 0.140625,-0.8125 0.234375,-1.21875 0.078125,-0.28125 0.328125,-1.3125 0.375,-1.484375 0.171875,-0.65625 0.546875,-0.984375 0.9375,-0.984375 0.046875,0 0.296875,0 0.515625,0.15625 z m 0,0"
   id="id-17f0709b-a82e-4ca9-9880-330597a3d760" />
      </g></g>
</g><circle
       style="fill:#3139ae;stroke:none;stroke-width:0.141111;stroke-linecap:round;stroke-linejoin:round;stroke-miterlimit:0;stroke-dasharray:none;paint-order:fill markers stroke"
       id="path48"
       cx="100.01095"
       cy="2.9467504"
       r="0.75" /><path
       style="opacity:0.5;fill:none;stroke:#000000;stroke-width:0.141111;stroke-linecap:round;stroke-linejoin:round;stroke-miterlimit:0;stroke-dasharray:none;paint-order:fill markers stroke"
       d="M 114.89653,21.807542 V 17.257475"
       id="path38" /><path
       style="opacity:0.5;fill:none;stroke:#000000;stroke-width:0.141111;stroke-linecap:round;stroke-linejoin:round;stroke-miterlimit:0;stroke-dasharray:none;paint-order:fill markers stroke"
       d="m 119.4466,21.807542 h -4.55007"
       id="path40" /><g
       fill="#000000"
       fill-opacity="1"
       id="id-17a630a3-ffd3-4a8c-9dcb-900db113ffde"
       transform="matrix(0.352778,0,0,0.352778,63.322944,-26.807969)"
       style="opacity:0.5">
    <g
   transform="translate(148.712,134.765)"
   id="g8"><path
   d="m 7.375,-4.34375 c 0,-1.609375 -1.0625,-2.6875 -2.546875,-2.6875 -2.140625,0 -4.34375,2.265625 -4.34375,4.59375 0,1.65625 1.125,2.65625 2.5625,2.65625 2.109375,0 4.328125,-2.1875 4.328125,-4.5625 z m -4.28125,4.296875 c -0.984375,0 -1.671875,-0.796875 -1.671875,-2.109375 0,-0.453125 0.140625,-1.90625 0.90625,-3.0625 0.6875,-1.046875 1.65625,-1.5625 2.453125,-1.5625 0.8125,0 1.703125,0.5625 1.703125,2.046875 0,0.71875 -0.265625,2.265625 -1.25,3.5 C 4.75,-0.625 3.9375,-0.046875 3.09375,-0.046875 Z m 0,0"
   id="id-cac31e31-3411-4dce-8f91-8cf672a2eb87" />
      </g></g><path
       style="fill:none;stroke:#000000;stroke-width:0.141111;stroke-linecap:round;stroke-linejoin:round;stroke-miterlimit:0;stroke-dasharray:none;marker-start:url(#marker3);paint-order:fill markers stroke"
       d="M 100.70211,3.8224834 114.89653,21.807542"
       id="path35"
       sodipodi:nodetypes="cc" /><path
       style="fill:none;stroke:#000000;stroke-width:0.141111;stroke-linecap:round;stroke-linejoin:round;stroke-miterlimit:0;stroke-dasharray:none;marker-start:url(#marker3);paint-order:fill markers stroke"
       d="m 74.678355,15.403647 40.218175,6.403895"
       id="path41"
       sodipodi:nodetypes="cc" /><path
       style="fill:none;stroke:#000000;stroke-width:0.141111;stroke-linecap:round;stroke-linejoin:round;stroke-miterlimit:0;stroke-dasharray:none;marker-start:url(#marker3);paint-order:fill markers stroke"
       d="M 100.70211,3.8224834 114.89653,21.807542"
       id="path3"
       sodipodi:nodetypes="cc" /><path
       style="mix-blend-mode:normal;fill:#3139ae;stroke:#3139ae;stroke-width:0.141111;stroke-linecap:round;stroke-linejoin:round;stroke-miterlimit:0;stroke-dasharray:none;marker-start:url(#marker3);paint-order:fill markers stroke"
       d="M 100.70211,3.8224834 114.89653,21.807542"
       id="path4"
       sodipodi:nodetypes="cc" /><path
       style="opacity:0.5;fill:none;stroke:#000000;stroke-width:0.141111;stroke-linecap:round;stroke-linejoin:round;stroke-miterlimit:0;stroke-dasharray:none;paint-order:fill markers stroke"
       d="m 114.89653,21.807542 -3.97829,2.208228"
       id="path5" /><g
       transform="matrix(0.352778 0 0 0.352778 54.4495 11.2862)"
       ns2:version="1.10.2"
       ns2:texconverter="pdflatex"
       ns2:pdfconverter="inkscape"
       ns2:text="\\(\\mathcal{R}\\)"
       ns2:preamble="/Users/ali/Library/Application Support/org.inkscape.Inkscape/config/inkscape/extensions/textext/default_packages.tex"
       ns2:scale="1.0"
       ns2:alignment="middle center"
       ns2:stroke-to-path="0"
       ns2:inkscapeversion="1.4"
       ns2:jacobian_sqrt="0.352778"
       id="g16"><defs
   id="id-ede71094-31b2-4921-9219-5f2d1200bd7b">
    <g
   id="id-90905ece-ac62-495f-a8cc-82f0e34732e8">
      <g
   id="id-911e66f7-c734-48bd-88aa-1bf3421875a6">
        <path
   d="m 4.421875,-6.84375 c 2.09375,0 2.640625,0.5 2.640625,1.234375 0,0.65625 -0.53125,1.96875 -2.328125,2.03125 -0.53125,0.015625 -0.90625,0.40625 -0.90625,0.53125 0,0.0625 0.046875,0.0625 0.046875,0.0625 0.46875,0.078125 0.6875,0.296875 1.25,1.578125 0.5,1.140625 0.78125,1.640625 1.421875,1.640625 1.328125,0 2.578125,-1.328125 2.578125,-1.578125 0,-0.078125 -0.078125,-0.078125 -0.109375,-0.078125 -0.140625,0 -0.5625,0.15625 -0.796875,0.46875 -0.171875,0.25 -0.40625,0.59375 -0.9375,0.59375 -0.5625,0 -0.90625,-0.78125 -1.265625,-1.625 -0.234375,-0.546875 -0.4375,-0.953125 -0.6875,-1.25 1.59375,-0.578125 2.65625,-1.71875 2.65625,-2.84375 0,-1.375 -1.828125,-1.375 -3.484375,-1.375 -1.09375,0 -1.703125,0 -2.609375,0.390625 -1.46875,0.65625 -1.65625,1.5625 -1.65625,1.640625 0,0.0625 0.03125,0.09375 0.109375,0.09375 0.171875,0 0.421875,-0.15625 0.5,-0.21875 0.234375,-0.140625 0.265625,-0.21875 0.328125,-0.421875 0.15625,-0.4375 0.46875,-0.8125 1.84375,-0.875 -0.0625,0.65625 -0.15625,1.671875 -0.53125,3.265625 C 2.1875,-2.359375 1.78125,-1.15625 1.3125,0.015625 1.25,0.125 1.25,0.15625 1.25,0.15625 c 0,0.078125 0.09375,0.078125 0.109375,0.078125 0.21875,0 0.6875,-0.25 0.796875,-0.46875 0.03125,-0.046875 1.40625,-3.125 1.75,-6.609375 z m 0,0"
   id="id-56a202d3-f886-4263-9650-a14898c72df8" />
      </g>
    </g>
  </defs>
  <g
   fill="#000000"
   fill-opacity="1"
   id="id-3185c4a5-02a5-4206-b6f0-12d4a9faf806"
   transform="translate(-142.969, -133.289)">
    <g
   transform="translate(142.735, 140.742)"
   id="g1"><path
   d="m 4.421875,-6.84375 c 2.09375,0 2.640625,0.5 2.640625,1.234375 0,0.65625 -0.53125,1.96875 -2.328125,2.03125 -0.53125,0.015625 -0.90625,0.40625 -0.90625,0.53125 0,0.0625 0.046875,0.0625 0.046875,0.0625 0.46875,0.078125 0.6875,0.296875 1.25,1.578125 0.5,1.140625 0.78125,1.640625 1.421875,1.640625 1.328125,0 2.578125,-1.328125 2.578125,-1.578125 0,-0.078125 -0.078125,-0.078125 -0.109375,-0.078125 -0.140625,0 -0.5625,0.15625 -0.796875,0.46875 -0.171875,0.25 -0.40625,0.59375 -0.9375,0.59375 -0.5625,0 -0.90625,-0.78125 -1.265625,-1.625 -0.234375,-0.546875 -0.4375,-0.953125 -0.6875,-1.25 1.59375,-0.578125 2.65625,-1.71875 2.65625,-2.84375 0,-1.375 -1.828125,-1.375 -3.484375,-1.375 -1.09375,0 -1.703125,0 -2.609375,0.390625 -1.46875,0.65625 -1.65625,1.5625 -1.65625,1.640625 0,0.0625 0.03125,0.09375 0.109375,0.09375 0.171875,0 0.421875,-0.15625 0.5,-0.21875 0.234375,-0.140625 0.265625,-0.21875 0.328125,-0.421875 0.15625,-0.4375 0.46875,-0.8125 1.84375,-0.875 -0.0625,0.65625 -0.15625,1.671875 -0.53125,3.265625 C 2.1875,-2.359375 1.78125,-1.15625 1.3125,0.015625 1.25,0.125 1.25,0.15625 1.25,0.15625 c 0,0.078125 0.09375,0.078125 0.109375,0.078125 0.21875,0 0.6875,-0.25 0.796875,-0.46875 0.03125,-0.046875 1.40625,-3.125 1.75,-6.609375 z m 0,0"
   id="id-605f4153-191c-4427-892e-59b0a729faa7" />
      </g></g>
</g><g
       transform="matrix(0.352778 0 0 0.352778 82.6933 6.11471)"
       ns2:version="1.10.2"
       ns2:texconverter="pdflatex"
       ns2:pdfconverter="inkscape"
       ns2:text="$\\bm{r}_o$"
       ns2:preamble="/Users/ali/.textext_preamble.tex"
       ns2:scale="1.0"
       ns2:alignment="middle center"
       ns2:stroke-to-path="0"
       ns2:inkscapeversion="1.4"
       ns2:jacobian_sqrt="0.352778"
       style="fill:#a51d1e;stroke-width:0"
       id="g63"><defs
   id="id-94dd00c6-5983-4146-a415-d573a72ab140"
   style="fill:#a51d1e;stroke-width:0">
    <g
   id="id-50b19d36-63bb-448e-8560-f29b4c6057b5"
   style="fill:#a51d1e;stroke-width:0">
      <g
   id="id-71bc558d-2128-4745-b4d0-96377a6d6e6a"
   style="fill:#a51d1e;stroke-width:0">
        <path
   d="M 4.421875,-4 C 3.875,-3.890625 3.8125,-3.40625 3.8125,-3.3125 c 0,0.21875 0.171875,0.46875 0.5,0.46875 0.34375,0 0.71875,-0.28125 0.71875,-0.796875 C 5.03125,-4.09375 4.671875,-4.5 4.0625,-4.5 3.5,-4.5 3.03125,-4.234375 2.734375,-3.90625 2.5,-4.359375 1.921875,-4.5 1.5625,-4.5 c -0.359375,0 -0.640625,0.203125 -0.859375,0.5625 -0.25,0.390625 -0.390625,0.921875 -0.390625,0.984375 0,0.140625 0.15625,0.140625 0.25,0.140625 0.109375,0 0.140625,0 0.1875,-0.046875 C 0.78125,-2.875 0.78125,-2.90625 0.84375,-3.15625 c 0.1875,-0.75 0.40625,-0.984375 0.671875,-0.984375 0.15625,0 0.234375,0.09375 0.234375,0.359375 0,0.171875 -0.03125,0.28125 -0.140625,0.75 -0.046875,0.171875 -0.21875,0.828125 -0.28125,1.078125 -0.046875,0.1875 -0.15625,0.640625 -0.203125,0.8125 -0.0625,0.265625 -0.171875,0.71875 -0.171875,0.78125 0,0.203125 0.15625,0.4375 0.46875,0.4375 0.1875,0 0.546875,-0.125 0.65625,-0.53125 0,-0.03125 0.6875,-2.734375 0.6875,-2.796875 C 2.8125,-3.40625 2.8125,-3.421875 2.9375,-3.5625 c 0.234375,-0.296875 0.59375,-0.578125 1.09375,-0.578125 0.25,0 0.359375,0.109375 0.390625,0.140625 z m 0,0"
   id="id-705d4c0e-a023-49e8-adee-5c87bc90f988"
   style="fill:#a51d1e;stroke-width:0" />
      </g>
      <g
   id="id-a63dee02-be65-4c7f-b82e-99b4130ea5b6"
   style="fill:#a51d1e;stroke-width:0">
        <path
   d="m 3.703125,-1.859375 c 0,-0.765625 -0.578125,-1.21875 -1.265625,-1.21875 -1.03125,0 -2,0.96875 -2,1.921875 0,0.703125 0.5,1.21875 1.265625,1.21875 1,0 2,-0.90625 2,-1.921875 z m -2,1.734375 c -0.34375,0 -0.6875,-0.21875 -0.6875,-0.78125 0,-0.28125 0.125,-0.96875 0.40625,-1.359375 C 1.71875,-2.703125 2.125,-2.875 2.4375,-2.875 c 0.375,0 0.6875,0.25 0.6875,0.765625 C 3.125,-1.9375 3.046875,-1.25 2.734375,-0.765625 2.46875,-0.34375 2.0625,-0.125 1.703125,-0.125 Z m 0,0"
   id="id-705490bf-203d-4f8c-8248-3f82dd75597e"
   style="fill:#a51d1e;stroke-width:0" />
      </g>
    </g>
  </defs>
  <g
   fill-opacity="1"
   id="id-8554997f-69b1-450a-83f5-44ea0abaaeae"
   transform="translate(-149.025, -130.265)"
   style="fill:#a51d1e;stroke-width:0">
    <g
   transform="translate(148.712, 134.765)"
   style="fill:#a51d1e;stroke-width:0"
   id="g2"><path
   d="M 4.421875,-4 C 3.875,-3.890625 3.8125,-3.40625 3.8125,-3.3125 c 0,0.21875 0.171875,0.46875 0.5,0.46875 0.34375,0 0.71875,-0.28125 0.71875,-0.796875 C 5.03125,-4.09375 4.671875,-4.5 4.0625,-4.5 3.5,-4.5 3.03125,-4.234375 2.734375,-3.90625 2.5,-4.359375 1.921875,-4.5 1.5625,-4.5 c -0.359375,0 -0.640625,0.203125 -0.859375,0.5625 -0.25,0.390625 -0.390625,0.921875 -0.390625,0.984375 0,0.140625 0.15625,0.140625 0.25,0.140625 0.109375,0 0.140625,0 0.1875,-0.046875 C 0.78125,-2.875 0.78125,-2.90625 0.84375,-3.15625 c 0.1875,-0.75 0.40625,-0.984375 0.671875,-0.984375 0.15625,0 0.234375,0.09375 0.234375,0.359375 0,0.171875 -0.03125,0.28125 -0.140625,0.75 -0.046875,0.171875 -0.21875,0.828125 -0.28125,1.078125 -0.046875,0.1875 -0.15625,0.640625 -0.203125,0.8125 -0.0625,0.265625 -0.171875,0.71875 -0.171875,0.78125 0,0.203125 0.15625,0.4375 0.46875,0.4375 0.1875,0 0.546875,-0.125 0.65625,-0.53125 0,-0.03125 0.6875,-2.734375 0.6875,-2.796875 C 2.8125,-3.40625 2.8125,-3.421875 2.9375,-3.5625 c 0.234375,-0.296875 0.59375,-0.578125 1.09375,-0.578125 0.25,0 0.359375,0.109375 0.390625,0.140625 z m 0,0"
   id="id-140bbb48-a989-4f1d-8695-5bc7b19d43cd"
   style="fill:#a51d1e;stroke-width:0" />
      </g></g>
  <g
   fill-opacity="1"
   id="id-c4902cd7-f6eb-4e1d-9ba4-b1c4fc2a6d7a"
   transform="translate(-149.025, -130.265)"
   style="fill:#a51d1e;stroke-width:0">
    <g
   transform="translate(153.98, 136.259)"
   style="fill:#a51d1e;stroke-width:0"
   id="g3"><path
   d="m 3.703125,-1.859375 c 0,-0.765625 -0.578125,-1.21875 -1.265625,-1.21875 -1.03125,0 -2,0.96875 -2,1.921875 0,0.703125 0.5,1.21875 1.265625,1.21875 1,0 2,-0.90625 2,-1.921875 z m -2,1.734375 c -0.34375,0 -0.6875,-0.21875 -0.6875,-0.78125 0,-0.28125 0.125,-0.96875 0.40625,-1.359375 C 1.71875,-2.703125 2.125,-2.875 2.4375,-2.875 c 0.375,0 0.6875,0.25 0.6875,0.765625 C 3.125,-1.9375 3.046875,-1.25 2.734375,-0.765625 2.46875,-0.34375 2.0625,-0.125 1.703125,-0.125 Z m 0,0"
   id="id-f4d69d32-c3e5-4c76-8fb8-4805cef7b8bf"
   style="fill:#a51d1e;stroke-width:0" />
      </g></g>
</g><g
       transform="matrix(0.352778 0 0 0.352778 108.603 9.15985)"
       ns2:version="1.10.2"
       ns2:texconverter="pdflatex"
       ns2:pdfconverter="inkscape"
       ns2:text="$\\bm{x}_o$"
       ns2:preamble="/Users/ali/.textext_preamble.tex"
       ns2:scale="1.0"
       ns2:alignment="middle center"
       ns2:stroke-to-path="0"
       ns2:inkscapeversion="1.4"
       ns2:jacobian_sqrt="0.352778"
       style="fill:#3139ae;stroke-width:0"
       id="g55"><defs
   id="id-e71f1825-427f-4adf-be9c-92df66cdcdbe"
   style="fill:#3139ae;stroke-width:0">
    <g
   id="id-7a7418e9-955e-4eab-b018-0b8f8073c1af"
   style="fill:#3139ae;stroke-width:0">
      <g
   id="id-adfee1ce-cd49-42a8-ba09-cda0568c1e14"
   style="fill:#3139ae;stroke-width:0">
        <path
   d="m 5.34375,-4 c -0.359375,0.109375 -0.53125,0.4375 -0.53125,0.6875 0,0.21875 0.15625,0.46875 0.484375,0.46875 0.359375,0 0.71875,-0.296875 0.71875,-0.78125 C 6.015625,-4.15625 5.5,-4.5 4.890625,-4.5 4.3125,-4.5 3.953125,-4.078125 3.8125,-3.890625 3.5625,-4.3125 3.015625,-4.5 2.4375,-4.5 c -1.25,0 -1.921875,1.21875 -1.921875,1.546875 0,0.140625 0.140625,0.140625 0.234375,0.140625 0.125,0 0.1875,0 0.234375,-0.125 0.28125,-0.90625 1,-1.203125 1.40625,-1.203125 0.375,0 0.5625,0.171875 0.5625,0.484375 0,0.203125 -0.140625,0.75 -0.234375,1.109375 L 2.375,-1.1875 c -0.140625,0.609375 -0.5,0.90625 -0.84375,0.90625 -0.046875,0 -0.28125,0 -0.46875,-0.140625 0.359375,-0.109375 0.53125,-0.453125 0.53125,-0.6875 0,-0.21875 -0.171875,-0.46875 -0.5,-0.46875 -0.34375,0 -0.71875,0.296875 -0.71875,0.78125 0,0.53125 0.53125,0.875 1.140625,0.875 0.5625,0 0.9375,-0.421875 1.0625,-0.609375 0.25,0.421875 0.8125,0.609375 1.375,0.609375 1.265625,0 1.9375,-1.21875 1.9375,-1.546875 0,-0.140625 -0.15625,-0.140625 -0.234375,-0.140625 -0.125,0 -0.1875,0 -0.234375,0.125 -0.28125,0.90625 -1,1.203125 -1.421875,1.203125 -0.375,0 -0.546875,-0.171875 -0.546875,-0.5 0,-0.203125 0.125,-0.734375 0.21875,-1.109375 0.0625,-0.25 0.296875,-1.1875 0.34375,-1.34375 0.15625,-0.609375 0.5,-0.90625 0.84375,-0.90625 0.0625,0 0.28125,0 0.484375,0.140625 z m 0,0"
   id="id-1411f0e5-43da-4166-81b8-eefc931c3366"
   style="fill:#3139ae;stroke-width:0" />
      </g>
      <g
   id="id-db32555a-bae4-42f5-ba1f-299a14e0378c"
   style="fill:#3139ae;stroke-width:0">
        <path
   d="m 3.703125,-1.859375 c 0,-0.765625 -0.578125,-1.21875 -1.265625,-1.21875 -1.03125,0 -2,0.96875 -2,1.921875 0,0.703125 0.5,1.21875 1.265625,1.21875 1,0 2,-0.90625 2,-1.921875 z m -2,1.734375 c -0.34375,0 -0.6875,-0.21875 -0.6875,-0.78125 0,-0.28125 0.125,-0.96875 0.40625,-1.359375 C 1.71875,-2.703125 2.125,-2.875 2.4375,-2.875 c 0.375,0 0.6875,0.25 0.6875,0.765625 C 3.125,-1.9375 3.046875,-1.25 2.734375,-0.765625 2.46875,-0.34375 2.0625,-0.125 1.703125,-0.125 Z m 0,0"
   id="id-231fd981-9800-4a15-84db-f098d476759e"
   style="fill:#3139ae;stroke-width:0" />
      </g>
    </g>
  </defs>
  <g
   fill-opacity="1"
   id="id-ab7f6807-186b-4d28-b56f-c32f4fd47b83"
   transform="translate(-149.087, -130.265)"
   style="fill:#3139ae;stroke-width:0">
    <g
   transform="translate(148.712, 134.765)"
   style="fill:#3139ae;stroke-width:0"
   id="g4"><path
   d="m 5.34375,-4 c -0.359375,0.109375 -0.53125,0.4375 -0.53125,0.6875 0,0.21875 0.15625,0.46875 0.484375,0.46875 0.359375,0 0.71875,-0.296875 0.71875,-0.78125 C 6.015625,-4.15625 5.5,-4.5 4.890625,-4.5 4.3125,-4.5 3.953125,-4.078125 3.8125,-3.890625 3.5625,-4.3125 3.015625,-4.5 2.4375,-4.5 c -1.25,0 -1.921875,1.21875 -1.921875,1.546875 0,0.140625 0.140625,0.140625 0.234375,0.140625 0.125,0 0.1875,0 0.234375,-0.125 0.28125,-0.90625 1,-1.203125 1.40625,-1.203125 0.375,0 0.5625,0.171875 0.5625,0.484375 0,0.203125 -0.140625,0.75 -0.234375,1.109375 L 2.375,-1.1875 c -0.140625,0.609375 -0.5,0.90625 -0.84375,0.90625 -0.046875,0 -0.28125,0 -0.46875,-0.140625 0.359375,-0.109375 0.53125,-0.453125 0.53125,-0.6875 0,-0.21875 -0.171875,-0.46875 -0.5,-0.46875 -0.34375,0 -0.71875,0.296875 -0.71875,0.78125 0,0.53125 0.53125,0.875 1.140625,0.875 0.5625,0 0.9375,-0.421875 1.0625,-0.609375 0.25,0.421875 0.8125,0.609375 1.375,0.609375 1.265625,0 1.9375,-1.21875 1.9375,-1.546875 0,-0.140625 -0.15625,-0.140625 -0.234375,-0.140625 -0.125,0 -0.1875,0 -0.234375,0.125 -0.28125,0.90625 -1,1.203125 -1.421875,1.203125 -0.375,0 -0.546875,-0.171875 -0.546875,-0.5 0,-0.203125 0.125,-0.734375 0.21875,-1.109375 0.0625,-0.25 0.296875,-1.1875 0.34375,-1.34375 0.15625,-0.609375 0.5,-0.90625 0.84375,-0.90625 0.0625,0 0.28125,0 0.484375,0.140625 z m 0,0"
   id="id-6ac2e093-d23c-4653-9ba9-dbfe8f3656e5"
   style="fill:#3139ae;stroke-width:0" />
      </g></g>
  <g
   fill-opacity="1"
   id="id-d50d770d-52b5-4313-9fa0-11876daa07dd"
   transform="translate(-149.087, -130.265)"
   style="fill:#3139ae;stroke-width:0">
    <g
   transform="translate(155.278, 136.259)"
   style="fill:#3139ae;stroke-width:0"
   id="g5"><path
   d="m 3.703125,-1.859375 c 0,-0.765625 -0.578125,-1.21875 -1.265625,-1.21875 -1.03125,0 -2,0.96875 -2,1.921875 0,0.703125 0.5,1.21875 1.265625,1.21875 1,0 2,-0.90625 2,-1.921875 z m -2,1.734375 c -0.34375,0 -0.6875,-0.21875 -0.6875,-0.78125 0,-0.28125 0.125,-0.96875 0.40625,-1.359375 C 1.71875,-2.703125 2.125,-2.875 2.4375,-2.875 c 0.375,0 0.6875,0.25 0.6875,0.765625 C 3.125,-1.9375 3.046875,-1.25 2.734375,-0.765625 2.46875,-0.34375 2.0625,-0.125 1.703125,-0.125 Z m 0,0"
   id="id-4db93d15-f42c-4aa4-8728-333fafce2263"
   style="fill:#3139ae;stroke-width:0" />
      </g></g>
</g></g></svg>
