<?xml version="1.0" encoding="UTF-8" standalone="no"?>
<!-- Created with Inkscape (http://www.inkscape.org/) -->

<svg
   width="170mm"
   height="41mm"
   viewBox="0 0 170 41"
   version="1.1"
   id="svg1"
   inkscape:version="1.4 (e7c3feb1, 2024-10-09)"
   sodipodi:docname="BL_free_body_diag_truss.svg"
   xmlns:inkscape="http://www.inkscape.org/namespaces/inkscape"
   xmlns:sodipodi="http://sodipodi.sourceforge.net/DTD/sodipodi-0.dtd"
   xmlns:xlink="http://www.w3.org/1999/xlink"
   xmlns="http://www.w3.org/2000/svg"
   xmlns:svg="http://www.w3.org/2000/svg"
   xmlns:ns2="http://www.iki.fi/pav/software/textext/">
  <sodipodi:namedview
     id="namedview1"
     pagecolor="#ffffff"
     bordercolor="#999999"
     borderopacity="1"
     inkscape:showpageshadow="0"
     inkscape:pageopacity="0"
     inkscape:pagecheckerboard="0"
     inkscape:deskcolor="#d1d1d1"
     inkscape:document-units="mm"
     inkscape:zoom="1.9975953"
     inkscape:cx="208.50069"
     inkscape:cy="82.599314"
     inkscape:window-width="1440"
     inkscape:window-height="847"
     inkscape:window-x="0"
     inkscape:window-y="25"
     inkscape:window-maximized="1"
     inkscape:current-layer="layer1"
     showguides="true" />
  <defs
     id="defs1">
    <linearGradient
       id="linearGradient32"
       inkscape:collect="always">
      <stop
         style="stop-color:#e9e9f2;stop-opacity:1;"
         offset="0"
         id="stop32" />
      <stop
         style="stop-color:#e9e9f2;stop-opacity:0;"
         offset="1"
         id="stop33" />
    </linearGradient>
    <marker
       markerWidth="5.2141981"
       markerHeight="10.929886"
       refX="2.6070993"
       refY="5.4649429"
       orient="auto-start-reverse"
       id="marker3"
       viewBox="0 0 5.2141984 10.929886"
       preserveAspectRatio="xMidYMid">
      <path
         style="fill:context-stroke;stroke-width:1"
         d="M 0.2200441,10.861292 C 0.0019654,10.743635 -0.0331842,10.546759 0.0873827,10.11609 0.9177449,7.1468211 2.9997732,6.029143 2.9059276,5.4444312 2.8121953,4.8597194 1.5162709,4.029807 0.6814866,2.3250851 0.3919748,1.7338951 0,0.62498553 0,0.39723876 0,0.08667498 0.4095874,-0.11447903 0.6634583,0.07140569 0.7186394,0.11169545 0.8679307,0.45382585 0.9956787,0.83172569 1.6888441,2.8844627 2.8271244,4.1971984 4.5120378,4.8868904 5.064189,5.1129062 5.2141984,5.2320369 5.2141984,5.4444312 c 0,0.2392063 -0.1058267,0.3313512 -0.6370393,0.5536214 C 3.8187969,6.3155329 3.3030425,6.651567 2.737474,7.1967714 1.9265764,7.9785137 1.3710992,8.9057036 0.9846425,10.122613 0.7465323,10.872207 0.5654551,11.047331 0.220611,10.861299 Z"
         id="path1-1"
         sodipodi:nodetypes="cccsssscsscssc" />
    </marker>
    <radialGradient
       inkscape:collect="always"
       xlink:href="#linearGradient32"
       id="radialGradient33"
       cx="33.521778"
       cy="40.264328"
       fx="33.521778"
       fy="40.264328"
       r="3.188765"
       gradientTransform="matrix(1,0,0,0.10947655,-2.0092861,33.772738)"
       gradientUnits="userSpaceOnUse"
       spreadMethod="reflect" />
    <radialGradient
       inkscape:collect="always"
       xlink:href="#linearGradient32"
       id="radialGradient34"
       gradientUnits="userSpaceOnUse"
       gradientTransform="matrix(1,0,0,0.10947655,53.775435,34.388909)"
       cx="33.521778"
       cy="40.264328"
       fx="33.521778"
       fy="40.264328"
       r="3.188765"
       spreadMethod="reflect" />
    <marker
       markerWidth="5.2141981"
       markerHeight="10.929886"
       refX="2.6070993"
       refY="5.4649429"
       orient="auto-start-reverse"
       id="marker3-5"
       viewBox="0 0 5.2141984 10.929886"
       preserveAspectRatio="xMidYMid">
      <path
         style="fill:context-stroke;stroke-width:1"
         d="M 0.2200441,10.861292 C 0.0019654,10.743635 -0.0331842,10.546759 0.0873827,10.11609 0.9177449,7.1468211 2.9997732,6.029143 2.9059276,5.4444312 2.8121953,4.8597194 1.5162709,4.029807 0.6814866,2.3250851 0.3919748,1.7338951 0,0.62498553 0,0.39723876 0,0.08667498 0.4095874,-0.11447903 0.6634583,0.07140569 0.7186394,0.11169545 0.8679307,0.45382585 0.9956787,0.83172569 1.6888441,2.8844627 2.8271244,4.1971984 4.5120378,4.8868904 5.064189,5.1129062 5.2141984,5.2320369 5.2141984,5.4444312 c 0,0.2392063 -0.1058267,0.3313512 -0.6370393,0.5536214 C 3.8187969,6.3155329 3.3030425,6.651567 2.737474,7.1967714 1.9265764,7.9785137 1.3710992,8.9057036 0.9846425,10.122613 0.7465323,10.872207 0.5654551,11.047331 0.220611,10.861299 Z"
         id="path1-1-2"
         sodipodi:nodetypes="cccsssscsscssc" />
    </marker>
  </defs>
  <g
     inkscape:label="Layer 1"
     inkscape:groupmode="layer"
     id="layer1">
    <path
       style="opacity:0.2;fill:#e9e9f2;fill-rule:nonzero;stroke:none;stroke-width:0.211667;stroke-linecap:round;stroke-linejoin:round;stroke-miterlimit:0;stroke-dasharray:none;paint-order:fill markers stroke;fill-opacity:1"
       d="M 31.358821,34.557763 45.362939,10.282661 73.366253,10.13464 87.3679,34.557763 Z"
       id="path72" />
    <path
       style="fill:url(#radialGradient34);fill-rule:nonzero;stroke:none;stroke-width:0.141111;stroke-linecap:round;stroke-linejoin:round;stroke-miterlimit:0;stroke-dasharray:none;paint-order:fill markers stroke"
       d="m 84.108454,38.447814 h 5.972961 l 0.404569,0.69819 h -5.972958 z"
       id="path33" />
    <path
       style="fill:url(#radialGradient33);fill-rule:nonzero;stroke:none;stroke-width:0.141111;stroke-linecap:round;stroke-linejoin:round;stroke-miterlimit:0;stroke-dasharray:none;paint-order:fill markers stroke"
       d="m 28.323727,37.831643 h 5.972961 l 0.404569,0.69819 h -5.972958 z"
       id="path32" />
    <path
       style="fill:#e9e9f2;stroke:none;stroke-width:0.141111;stroke-linecap:round;stroke-linejoin:round;stroke-miterlimit:0;stroke-dasharray:none;paint-order:fill markers stroke"
       d="m 85.470834,37.831643 1.897068,-3.27388 1.897071,3.27388 z"
       id="path30" />
    <path
       style="fill:#e9e9f2;stroke:none;stroke-width:0.141111;stroke-linecap:round;stroke-linejoin:round;stroke-miterlimit:0;stroke-dasharray:none;paint-order:fill markers stroke"
       d="m 29.461753,37.831644 1.897068,-3.27388 1.897071,3.27388 z"
       id="path31" />
    <path
       style="fill:none;stroke:#000000;stroke-width:0.176389;stroke-linecap:round;stroke-linejoin:round;stroke-miterlimit:0;stroke-dasharray:none;paint-order:fill markers stroke"
       d="M 87.367907,34.557763 H 31.361284 L 45.362939,10.282659 59.364595,34.557763 73.366254,10.13464 Z"
       id="path1"
       sodipodi:nodetypes="cccccc" />
    <path
       style="fill:none;stroke:#000000;stroke-width:0.176389;stroke-linecap:round;stroke-linejoin:round;stroke-miterlimit:0;stroke-dasharray:none;paint-order:fill markers stroke"
       d="m 45.362939,10.282659 28.003315,-0.14802"
       id="path3" />
    <path
       style="fill:#e9e9f2;stroke:#000000;stroke-width:0.141111;stroke-linecap:round;stroke-linejoin:round;stroke-miterlimit:0;paint-order:fill markers stroke"
       d="m 31.361284,34.557762 -1.89707,3.273882 z"
       id="path2"
       sodipodi:nodetypes="ccc" />
    <path
       style="fill:#000000;stroke:#000000;stroke-width:0.141111;stroke-linecap:round;stroke-linejoin:round;stroke-miterlimit:0;paint-order:fill markers stroke"
       d="m 31.361284,34.557763 1.897069,3.273881"
       id="path4"
       sodipodi:nodetypes="cc" />
    <path
       style="fill:#e9e9f2;stroke:#000000;stroke-width:0.141111;stroke-linecap:round;stroke-linejoin:round;stroke-miterlimit:0;paint-order:fill markers stroke"
       d="m 29.464214,37.831644 h 3.794139"
       id="path5"
       sodipodi:nodetypes="cc" />
    <g
       id="g29"
       transform="translate(-2.0092861,-2.0835887)">
      <g
         id="g8"
         transform="matrix(0.5843308,0,0,0.58220781,60.408248,-4.7041193)"
         style="fill:#e9e9f2;stroke-width:1.71447">
        <g
           id="g7"
           style="fill:#e9e9f2;stroke-width:1.71447">
          <path
             style="fill:#e9e9f2;stroke:#000000;stroke-width:0.241932;stroke-linecap:round;stroke-linejoin:round;stroke-miterlimit:0;paint-order:fill markers stroke"
             d="m 49.57627,71.01497 -3.246567,5.623219 z"
             id="path6"
             sodipodi:nodetypes="ccc" />
          <path
             style="fill:#e9e9f2;stroke:#000000;stroke-width:0.241932;stroke-linecap:round;stroke-linejoin:round;stroke-miterlimit:0;paint-order:fill markers stroke"
             d="m 49.57627,71.014971 3.246567,5.623218"
             id="path7"
             sodipodi:nodetypes="cc" />
        </g>
        <path
           style="fill:#e9e9f2;stroke:#000000;stroke-width:0.241932;stroke-linecap:round;stroke-linejoin:round;stroke-miterlimit:0;paint-order:fill markers stroke"
           d="m 46.329703,76.638189 h 6.493134"
           id="path8"
           sodipodi:nodetypes="cc" />
      </g>
    </g>
    <g
       id="g17"
       transform="matrix(0.5843308,0,0,0.58220781,2.3923419,-6.787708)"
       style="stroke-width:1.71447">
      <path
         style="fill:none;stroke:#000000;stroke-width:0.241932;stroke-linecap:round;stroke-linejoin:round;stroke-miterlimit:0;stroke-dasharray:none;paint-order:fill markers stroke"
         d="m 44.377922,76.638189 h 10.22188"
         id="path9" />
      <path
         style="fill:none;stroke:#000000;stroke-width:0.241932;stroke-linecap:round;stroke-linejoin:round;stroke-miterlimit:0;stroke-dasharray:none;paint-order:fill markers stroke"
         d="m 44.377922,76.638189 0.692364,1.19921"
         id="path10" />
      <path
         style="fill:none;stroke:#000000;stroke-width:0.241932;stroke-linecap:round;stroke-linejoin:round;stroke-miterlimit:0;stroke-dasharray:none;paint-order:fill markers stroke"
         d="m 45.838191,76.638189 0.692364,1.19921"
         id="path11" />
      <path
         style="fill:none;stroke:#000000;stroke-width:0.241932;stroke-linecap:round;stroke-linejoin:round;stroke-miterlimit:0;stroke-dasharray:none;paint-order:fill markers stroke"
         d="m 47.298459,76.638189 0.692364,1.19921"
         id="path12" />
      <path
         style="fill:none;stroke:#000000;stroke-width:0.241932;stroke-linecap:round;stroke-linejoin:round;stroke-miterlimit:0;stroke-dasharray:none;paint-order:fill markers stroke"
         d="m 48.758728,76.638189 0.692364,1.19921"
         id="path13" />
      <path
         style="fill:none;stroke:#000000;stroke-width:0.241932;stroke-linecap:round;stroke-linejoin:round;stroke-miterlimit:0;stroke-dasharray:none;paint-order:fill markers stroke"
         d="m 50.218996,76.638189 0.692364,1.19921"
         id="path14" />
      <path
         style="fill:none;stroke:#000000;stroke-width:0.241932;stroke-linecap:round;stroke-linejoin:round;stroke-miterlimit:0;stroke-dasharray:none;paint-order:fill markers stroke"
         d="m 51.679265,76.638189 0.692364,1.19921"
         id="path15" />
      <path
         style="fill:none;stroke:#000000;stroke-width:0.241932;stroke-linecap:round;stroke-linejoin:round;stroke-miterlimit:0;stroke-dasharray:none;paint-order:fill markers stroke"
         d="m 53.139533,76.638189 0.692364,1.19921"
         id="path16" />
      <path
         style="fill:none;stroke:#000000;stroke-width:0.241932;stroke-linecap:round;stroke-linejoin:round;stroke-miterlimit:0;stroke-dasharray:none;paint-order:fill markers stroke"
         d="m 54.599802,76.638189 0.692364,1.19921"
         id="path17" />
    </g>
    <g
       id="g26"
       transform="matrix(0.5843308,0,0,0.58220781,58.247752,-6.1715379)"
       style="stroke-width:1.71447">
      <path
         style="fill:none;stroke:#000000;stroke-width:0.241932;stroke-linecap:round;stroke-linejoin:round;stroke-miterlimit:0;stroke-dasharray:none;paint-order:fill markers stroke"
         d="m 44.377922,76.638189 h 10.22188"
         id="path18" />
      <path
         style="fill:none;stroke:#000000;stroke-width:0.241932;stroke-linecap:round;stroke-linejoin:round;stroke-miterlimit:0;stroke-dasharray:none;paint-order:fill markers stroke"
         d="m 44.377922,76.638189 0.692364,1.19921"
         id="path19" />
      <path
         style="fill:none;stroke:#000000;stroke-width:0.241932;stroke-linecap:round;stroke-linejoin:round;stroke-miterlimit:0;stroke-dasharray:none;paint-order:fill markers stroke"
         d="m 45.838191,76.638189 0.692364,1.19921"
         id="path20" />
      <path
         style="fill:none;stroke:#000000;stroke-width:0.241932;stroke-linecap:round;stroke-linejoin:round;stroke-miterlimit:0;stroke-dasharray:none;paint-order:fill markers stroke"
         d="m 47.298459,76.638189 0.692364,1.19921"
         id="path21" />
      <path
         style="fill:none;stroke:#000000;stroke-width:0.241932;stroke-linecap:round;stroke-linejoin:round;stroke-miterlimit:0;stroke-dasharray:none;paint-order:fill markers stroke"
         d="m 48.758728,76.638189 0.692364,1.19921"
         id="path22" />
      <path
         style="fill:none;stroke:#000000;stroke-width:0.241932;stroke-linecap:round;stroke-linejoin:round;stroke-miterlimit:0;stroke-dasharray:none;paint-order:fill markers stroke"
         d="m 50.218996,76.638189 0.692364,1.19921"
         id="path23" />
      <path
         style="fill:none;stroke:#000000;stroke-width:0.241932;stroke-linecap:round;stroke-linejoin:round;stroke-miterlimit:0;stroke-dasharray:none;paint-order:fill markers stroke"
         d="m 51.679265,76.638189 0.692364,1.19921"
         id="path24" />
      <path
         style="fill:none;stroke:#000000;stroke-width:0.241932;stroke-linecap:round;stroke-linejoin:round;stroke-miterlimit:0;stroke-dasharray:none;paint-order:fill markers stroke"
         d="m 53.139533,76.638189 0.692364,1.19921"
         id="path25" />
      <path
         style="fill:none;stroke:#000000;stroke-width:0.241932;stroke-linecap:round;stroke-linejoin:round;stroke-miterlimit:0;stroke-dasharray:none;paint-order:fill markers stroke"
         d="m 54.599802,76.638189 0.692364,1.19921"
         id="path26" />
    </g>
    <ellipse
       style="fill:none;stroke:#000000;stroke-width:0.141111;stroke-linecap:round;stroke-linejoin:round;stroke-miterlimit:0;stroke-dasharray:none;paint-order:fill markers stroke"
       id="path27"
       cx="86.594894"
       cy="38.098656"
       rx="0.26798028"
       ry="0.26700664" />
    <ellipse
       style="fill:none;stroke:#000000;stroke-width:0.141111;stroke-linecap:round;stroke-linejoin:round;stroke-miterlimit:0;stroke-dasharray:none;paint-order:fill markers stroke"
       id="circle27"
       cx="88.140915"
       cy="38.098656"
       rx="0.26798028"
       ry="0.26700664" />
    <ellipse
       style="fill:none;stroke:#000000;stroke-width:0.141111;stroke-linecap:round;stroke-linejoin:round;stroke-miterlimit:0;stroke-dasharray:none;paint-order:fill markers stroke"
       id="circle74"
       cx="86.594894"
       cy="38.098656"
       rx="0.26798028"
       ry="0.26700664" />
    <path
       style="fill:none;stroke:#3139ae;stroke-width:0.176389;stroke-linecap:round;stroke-linejoin:round;stroke-miterlimit:0;stroke-dasharray:1.41111195, 0.70555597;stroke-dashoffset:0;paint-order:fill markers stroke;opacity:0.5"
       d="M 43.376861,38.722421 62.760009,5.1172543"
       id="path49"
       sodipodi:nodetypes="cc" />
    <path
       style="fill:none;stroke:#a51d1e;stroke-width:0.211667;stroke-linecap:round;stroke-linejoin:round;stroke-miterlimit:0;stroke-dasharray:none;paint-order:fill markers stroke"
       d="m 31.361284,34.557761 14.001655,-24.2751"
       id="path50" />
    <path
       style="fill:none;stroke:#a51d1e;stroke-width:0.211667;stroke-linecap:round;stroke-linejoin:round;stroke-miterlimit:0;stroke-dasharray:none;paint-order:fill markers stroke"
       d="M 114.98099,32.553959 128.98265,8.2788593"
       id="path48" />
    <ellipse
       style="fill:#000000;stroke:#000000;stroke-width:0.141111;stroke-linecap:round;stroke-linejoin:round;stroke-miterlimit:0;stroke-dasharray:none;paint-order:fill markers stroke"
       id="ellipse74"
       cx="114.981"
       cy="32.553959"
       rx="0.33430743"
       ry="0.3331002" />
    <ellipse
       style="fill:#000000;stroke:#000000;stroke-width:0.141111;stroke-linecap:round;stroke-linejoin:round;stroke-miterlimit:0;stroke-dasharray:none;paint-order:fill markers stroke"
       id="ellipse75"
       cx="128.98265"
       cy="8.2788582"
       rx="0.33430743"
       ry="0.3331002" />
    <g
       transform="matrix(0.352778,0,0,0.352778,137.87292,6.6619554)"
       ns2:version="1.10.2"
       ns2:texconverter="pdflatex"
       ns2:pdfconverter="inkscape"
       ns2:text="$\\bm{P}_1$"
       ns2:preamble="/Users/ali/.config/inkscape/textext_preamble.tex"
       ns2:scale="1.0"
       ns2:alignment="middle center"
       ns2:stroke-to-path="0"
       ns2:jacobian_sqrt="0.352778"
       id="g116"
       style="fill:#828282">
      <defs
         id="id-a661bfb2-be7a-4995-841c-22843217a615">
        <g
           id="id-16961b53-88aa-491c-9a41-0218baec8ced">
          <g
             id="id-c057abd6-0f3e-49e5-be38-14bd0bab4de0">
            <path
               d="M 3.953125,-3.296875 H 5.875 c 2.015625,0 3.390625,-1.21875 3.390625,-2.5 0,-1.125 -1.015625,-1.6875 -2.453125,-1.6875 H 2.625 c -0.21875,0 -0.40625,0 -0.40625,0.3125 0,0.203125 0.140625,0.203125 0.453125,0.203125 0.234375,0 0.4375,0.015625 0.671875,0.015625 l -1.5625,6.21875 c -0.046875,0.171875 -0.0625,0.1875 -0.25,0.203125 -0.1875,0.015625 -0.40625,0.015625 -0.578125,0.015625 -0.28125,0 -0.3125,0 -0.34375,0.03125 C 0.46875,-0.421875 0.46875,-0.25 0.46875,-0.203125 0.46875,-0.1875 0.46875,0 0.703125,0 c 0.28125,0 0.5625,-0.015625 0.828125,-0.015625 0.28125,0 0.5625,-0.015625 0.828125,-0.015625 0.296875,0 0.578125,0.015625 0.84375,0.015625 C 3.484375,-0.015625 3.78125,0 4.0625,0 4.171875,0 4.375,0 4.375,-0.3125 c 0,-0.203125 -0.125,-0.203125 -0.453125,-0.203125 -0.21875,0 -0.4375,-0.015625 -0.65625,-0.015625 z M 4.75,-6.765625 C 4.796875,-6.9375 4.8125,-6.953125 4.875,-6.953125 4.96875,-6.96875 5.046875,-6.96875 5.171875,-6.96875 h 1.125 c 0.625,0 1.4375,0.109375 1.4375,0.859375 0,0.125 -0.140625,1.25 -0.546875,1.765625 -0.234375,0.296875 -0.71875,0.609375 -1.703125,0.609375 h -1.5 z m 0,0"
               id="id-d2667023-74b0-4b7b-9d58-fb4aaf076a4a" />
          </g>
          <g
             id="id-0d73347d-61e5-4677-91ec-a8c63e5b86f0">
            <path
               d="m 2.5,-5.078125 c 0,-0.21875 -0.015625,-0.21875 -0.234375,-0.21875 -0.328125,0.3125 -0.75,0.5 -1.5,0.5 v 0.265625 c 0.21875,0 0.640625,0 1.109375,-0.203125 v 4.078125 c 0,0.296875 -0.03125,0.390625 -0.78125,0.390625 H 0.8125 V 0 c 0.328125,-0.03125 1.015625,-0.03125 1.375,-0.03125 0.359375,0 1.046875,0 1.375,0.03125 V -0.265625 H 3.28125 c -0.75,0 -0.78125,-0.09375 -0.78125,-0.390625 z m 0,0"
               id="id-3a8665d2-a5dc-4968-91d1-a602b598d282" />
          </g>
        </g>
      </defs>
      <g
         fill="#000000"
         fill-opacity="1"
         id="id-c9a22117-66ec-4fd9-8fe1-0e0e885bdb7c"
         transform="translate(-143.204,-133.258)"
         style="fill:#828282">
        <g
           transform="translate(142.735,140.742)"
           id="g114"
           style="fill:#828282">
          <path
             d="M 3.953125,-3.296875 H 5.875 c 2.015625,0 3.390625,-1.21875 3.390625,-2.5 0,-1.125 -1.015625,-1.6875 -2.453125,-1.6875 H 2.625 c -0.21875,0 -0.40625,0 -0.40625,0.3125 0,0.203125 0.140625,0.203125 0.453125,0.203125 0.234375,0 0.4375,0.015625 0.671875,0.015625 l -1.5625,6.21875 c -0.046875,0.171875 -0.0625,0.1875 -0.25,0.203125 -0.1875,0.015625 -0.40625,0.015625 -0.578125,0.015625 -0.28125,0 -0.3125,0 -0.34375,0.03125 C 0.46875,-0.421875 0.46875,-0.25 0.46875,-0.203125 0.46875,-0.1875 0.46875,0 0.703125,0 c 0.28125,0 0.5625,-0.015625 0.828125,-0.015625 0.28125,0 0.5625,-0.015625 0.828125,-0.015625 0.296875,0 0.578125,0.015625 0.84375,0.015625 C 3.484375,-0.015625 3.78125,0 4.0625,0 4.171875,0 4.375,0 4.375,-0.3125 c 0,-0.203125 -0.125,-0.203125 -0.453125,-0.203125 -0.21875,0 -0.4375,-0.015625 -0.65625,-0.015625 z M 4.75,-6.765625 C 4.796875,-6.9375 4.8125,-6.953125 4.875,-6.953125 4.96875,-6.96875 5.046875,-6.96875 5.171875,-6.96875 h 1.125 c 0.625,0 1.4375,0.109375 1.4375,0.859375 0,0.125 -0.140625,1.25 -0.546875,1.765625 -0.234375,0.296875 -0.71875,0.609375 -1.703125,0.609375 h -1.5 z m 0,0"
             id="id-8ce20d89-44d0-4509-9568-9d321d248654"
             style="fill:#828282" />
        </g>
      </g>
      <g
         fill="#000000"
         fill-opacity="1"
         id="id-191d8cb6-7b1d-4659-8cd6-265a417123e2"
         transform="translate(-143.204,-133.258)"
         style="fill:#828282">
        <g
           transform="translate(150.623,142.379)"
           id="g115"
           style="fill:#828282">
          <path
             d="m 2.5,-5.078125 c 0,-0.21875 -0.015625,-0.21875 -0.234375,-0.21875 -0.328125,0.3125 -0.75,0.5 -1.5,0.5 v 0.265625 c 0.21875,0 0.640625,0 1.109375,-0.203125 v 4.078125 c 0,0.296875 -0.03125,0.390625 -0.78125,0.390625 H 0.8125 V 0 c 0.328125,-0.03125 1.015625,-0.03125 1.375,-0.03125 0.359375,0 1.046875,0 1.375,0.03125 V -0.265625 H 3.28125 c -0.75,0 -0.78125,-0.09375 -0.78125,-0.390625 z m 0,0"
             id="id-1c86df14-2bde-4d8d-9cad-49c24d8f78b2"
             style="fill:#828282" />
        </g>
      </g>
    </g>
    <g
       transform="matrix(0.352778,0,0,0.352778,132.66147,16.590716)"
       ns2:version="1.10.2"
       ns2:texconverter="pdflatex"
       ns2:pdfconverter="inkscape"
       ns2:text="$\\bm{P}_2$"
       ns2:preamble="/Users/ali/.config/inkscape/textext_preamble.tex"
       ns2:scale="1.0"
       ns2:alignment="middle center"
       ns2:stroke-to-path="0"
       ns2:jacobian_sqrt="0.352778"
       id="g106"
       style="fill:#828282">
      <defs
         id="id-eecbffaf-06da-4587-b42f-b514f934ccec">
        <g
           id="id-4549ed44-b903-48a8-a26f-ee6c0dd3a49f">
          <g
             id="id-10633650-d102-42bf-838d-c541cd6d527f">
            <path
               d="M 3.953125,-3.296875 H 5.875 c 2.015625,0 3.390625,-1.21875 3.390625,-2.5 0,-1.125 -1.015625,-1.6875 -2.453125,-1.6875 H 2.625 c -0.21875,0 -0.40625,0 -0.40625,0.3125 0,0.203125 0.140625,0.203125 0.453125,0.203125 0.234375,0 0.4375,0.015625 0.671875,0.015625 l -1.5625,6.21875 c -0.046875,0.171875 -0.0625,0.1875 -0.25,0.203125 -0.1875,0.015625 -0.40625,0.015625 -0.578125,0.015625 -0.28125,0 -0.3125,0 -0.34375,0.03125 C 0.46875,-0.421875 0.46875,-0.25 0.46875,-0.203125 0.46875,-0.1875 0.46875,0 0.703125,0 c 0.28125,0 0.5625,-0.015625 0.828125,-0.015625 0.28125,0 0.5625,-0.015625 0.828125,-0.015625 0.296875,0 0.578125,0.015625 0.84375,0.015625 C 3.484375,-0.015625 3.78125,0 4.0625,0 4.171875,0 4.375,0 4.375,-0.3125 c 0,-0.203125 -0.125,-0.203125 -0.453125,-0.203125 -0.21875,0 -0.4375,-0.015625 -0.65625,-0.015625 z M 4.75,-6.765625 C 4.796875,-6.9375 4.8125,-6.953125 4.875,-6.953125 4.96875,-6.96875 5.046875,-6.96875 5.171875,-6.96875 h 1.125 c 0.625,0 1.4375,0.109375 1.4375,0.859375 0,0.125 -0.140625,1.25 -0.546875,1.765625 -0.234375,0.296875 -0.71875,0.609375 -1.703125,0.609375 h -1.5 z m 0,0"
               id="id-eb5eeb33-2c63-4175-b92d-dadb3060610e" />
          </g>
          <g
             id="id-a79e706e-896f-46ec-a648-fb02ef37be93">
            <path
               d="m 2.25,-1.625 c 0.125,-0.125 0.453125,-0.390625 0.59375,-0.5 0.484375,-0.453125 0.953125,-0.890625 0.953125,-1.609375 0,-0.953125 -0.796875,-1.5625 -1.78125,-1.5625 -0.96875,0 -1.59375,0.71875 -1.59375,1.4375 0,0.390625 0.3125,0.4375 0.421875,0.4375 0.171875,0 0.421875,-0.109375 0.421875,-0.421875 0,-0.40625 -0.40625,-0.40625 -0.5,-0.40625 C 1,-4.84375 1.53125,-5.03125 1.921875,-5.03125 c 0.734375,0 1.125,0.625 1.125,1.296875 0,0.828125 -0.578125,1.4375 -1.53125,2.390625 l -1,1.046875 C 0.421875,-0.21875 0.421875,-0.203125 0.421875,0 H 3.5625 l 0.234375,-1.421875 h -0.25 C 3.53125,-1.265625 3.46875,-0.875 3.375,-0.71875 c -0.046875,0.0625 -0.65625,0.0625 -0.78125,0.0625 H 1.171875 Z m 0,0"
               id="id-98c21670-e63f-4d0d-a81e-93580ac7930c" />
          </g>
        </g>
      </defs>
      <g
         fill="#000000"
         fill-opacity="1"
         id="id-6833d820-001e-4a30-87fb-0930bdae3940"
         transform="translate(-143.204,-133.258)"
         style="fill:#828282">
        <g
           transform="translate(142.735,140.742)"
           id="g117"
           style="fill:#828282">
          <path
             d="M 3.953125,-3.296875 H 5.875 c 2.015625,0 3.390625,-1.21875 3.390625,-2.5 0,-1.125 -1.015625,-1.6875 -2.453125,-1.6875 H 2.625 c -0.21875,0 -0.40625,0 -0.40625,0.3125 0,0.203125 0.140625,0.203125 0.453125,0.203125 0.234375,0 0.4375,0.015625 0.671875,0.015625 l -1.5625,6.21875 c -0.046875,0.171875 -0.0625,0.1875 -0.25,0.203125 -0.1875,0.015625 -0.40625,0.015625 -0.578125,0.015625 -0.28125,0 -0.3125,0 -0.34375,0.03125 C 0.46875,-0.421875 0.46875,-0.25 0.46875,-0.203125 0.46875,-0.1875 0.46875,0 0.703125,0 c 0.28125,0 0.5625,-0.015625 0.828125,-0.015625 0.28125,0 0.5625,-0.015625 0.828125,-0.015625 0.296875,0 0.578125,0.015625 0.84375,0.015625 C 3.484375,-0.015625 3.78125,0 4.0625,0 4.171875,0 4.375,0 4.375,-0.3125 c 0,-0.203125 -0.125,-0.203125 -0.453125,-0.203125 -0.21875,0 -0.4375,-0.015625 -0.65625,-0.015625 z M 4.75,-6.765625 C 4.796875,-6.9375 4.8125,-6.953125 4.875,-6.953125 4.96875,-6.96875 5.046875,-6.96875 5.171875,-6.96875 h 1.125 c 0.625,0 1.4375,0.109375 1.4375,0.859375 0,0.125 -0.140625,1.25 -0.546875,1.765625 -0.234375,0.296875 -0.71875,0.609375 -1.703125,0.609375 h -1.5 z m 0,0"
             id="id-9974181d-5f14-45bd-90a6-4449a953eb0e"
             style="fill:#828282" />
        </g>
      </g>
      <g
         fill="#000000"
         fill-opacity="1"
         id="id-15a1bc41-8811-4c6f-a299-2d16e25ff59d"
         transform="translate(-143.204,-133.258)"
         style="fill:#828282">
        <g
           transform="translate(150.623,142.379)"
           id="g118"
           style="fill:#828282">
          <path
             d="m 2.25,-1.625 c 0.125,-0.125 0.453125,-0.390625 0.59375,-0.5 0.484375,-0.453125 0.953125,-0.890625 0.953125,-1.609375 0,-0.953125 -0.796875,-1.5625 -1.78125,-1.5625 -0.96875,0 -1.59375,0.71875 -1.59375,1.4375 0,0.390625 0.3125,0.4375 0.421875,0.4375 0.171875,0 0.421875,-0.109375 0.421875,-0.421875 0,-0.40625 -0.40625,-0.40625 -0.5,-0.40625 C 1,-4.84375 1.53125,-5.03125 1.921875,-5.03125 c 0.734375,0 1.125,0.625 1.125,1.296875 0,0.828125 -0.578125,1.4375 -1.53125,2.390625 l -1,1.046875 C 0.421875,-0.21875 0.421875,-0.203125 0.421875,0 H 3.5625 l 0.234375,-1.421875 h -0.25 C 3.53125,-1.265625 3.46875,-0.875 3.375,-0.71875 c -0.046875,0.0625 -0.65625,0.0625 -0.78125,0.0625 H 1.171875 Z m 0,0"
             id="id-efa4cbb3-795a-47c7-830f-71f8bac987a8"
             style="fill:#828282" />
        </g>
      </g>
    </g>
    <g
       transform="matrix(0.352778,0,0,0.352778,107.96871,27.750011)"
       ns2:version="1.10.2"
       ns2:texconverter="pdflatex"
       ns2:pdfconverter="inkscape"
       ns2:text="$\\bm{R}_x$"
       ns2:preamble="/Users/ali/.config/inkscape/textext_preamble.tex"
       ns2:scale="1.0"
       ns2:alignment="middle center"
       ns2:stroke-to-path="0"
       ns2:jacobian_sqrt="0.352778"
       id="g82"
       style="fill:#000000">
      <defs
         id="id-4f9e171f-c2b1-4a77-8226-c17d473e595f">
        <g
           id="id-04aabcee-f5f2-4d29-9fb5-e95347dcd1e5">
          <g
             id="id-62429c56-b978-4c62-b5af-4252cf68ae96">
            <path
               d="m 4.75,-6.765625 c 0.046875,-0.15625 0.0625,-0.171875 0.078125,-0.1875 0.0625,-0.015625 0.53125,-0.015625 0.8125,-0.015625 0.984375,0 2.015625,0 2.015625,0.90625 0,0.015625 -0.046875,1.0625 -0.609375,1.640625 C 6.890625,-4.28125 6.40625,-3.9375 5.3125,-3.9375 H 4.046875 Z m 2.15625,3.0625 C 8.859375,-4.21875 9.203125,-5.25 9.203125,-5.8125 c 0,-1.09375 -1.171875,-1.671875 -2.796875,-1.671875 H 2.625 c -0.21875,0 -0.40625,0 -0.40625,0.3125 0,0.203125 0.140625,0.203125 0.453125,0.203125 0.234375,0 0.4375,0.015625 0.671875,0.015625 l -1.5625,6.21875 c -0.046875,0.171875 -0.0625,0.1875 -0.25,0.203125 -0.1875,0.015625 -0.40625,0.015625 -0.578125,0.015625 -0.28125,0 -0.3125,0 -0.359375,0.03125 -0.125,0.0625 -0.125,0.25 -0.125,0.28125 C 0.46875,-0.171875 0.484375,0 0.703125,0 c 0.28125,0 0.5625,-0.015625 0.828125,-0.015625 0.265625,0 0.546875,-0.015625 0.796875,-0.015625 C 2.703125,-0.03125 3.625,0 4,0 4.09375,0 4.171875,0 4.234375,-0.078125 4.28125,-0.125 4.3125,-0.3125 4.3125,-0.3125 c 0,-0.203125 -0.15625,-0.203125 -0.453125,-0.203125 -0.234375,0 -0.4375,-0.015625 -0.65625,-0.015625 l 0.75,-3.015625 h 1.3125 c 0.3125,0 1.078125,0.078125 1.078125,0.890625 0,0.15625 -0.09375,0.546875 -0.171875,0.828125 -0.109375,0.453125 -0.15625,0.625 -0.15625,0.796875 0,1.125 1.46875,1.21875 2.03125,1.21875 1.15625,0 1.5625,-1.09375 1.5625,-1.265625 0,-0.203125 -0.203125,-0.203125 -0.265625,-0.203125 -0.1875,0 -0.21875,0.0625 -0.265625,0.21875 -0.140625,0.4375 -0.53125,0.859375 -0.9375,0.859375 -0.296875,0 -0.5,-0.125 -0.5,-0.671875 0,-0.15625 0,-0.328125 0.140625,-1.203125 0.03125,-0.140625 0.0625,-0.34375 0.0625,-0.4375 0,-0.421875 -0.234375,-0.921875 -0.9375,-1.1875 z m 0,0"
               id="id-f1d9968a-d534-411e-8b02-0a4c3477af27" />
          </g>
          <g
             id="id-c04b7024-24d5-43d0-b72c-2a7ce319bef7">
            <path
               d="M 4,-3.171875 C 3.640625,-3.09375 3.625,-2.78125 3.625,-2.75 c 0,0.171875 0.140625,0.296875 0.3125,0.296875 0.171875,0 0.4375,-0.140625 0.4375,-0.484375 0,-0.453125 -0.5,-0.578125 -0.796875,-0.578125 C 3.21875,-3.515625 2.90625,-3.25 2.71875,-2.9375 2.546875,-3.359375 2.140625,-3.515625 1.8125,-3.515625 c -0.875,0 -1.359375,1 -1.359375,1.21875 0,0.078125 0.0625,0.109375 0.125,0.109375 0.09375,0 0.109375,-0.046875 0.125,-0.140625 0.1875,-0.578125 0.671875,-0.96875 1.078125,-0.96875 0.3125,0 0.46875,0.234375 0.46875,0.515625 C 2.25,-2.625 2.15625,-2.25 2.09375,-2 c -0.0625,0.234375 -0.234375,0.9375 -0.28125,1.09375 -0.109375,0.421875 -0.390625,0.765625 -0.75,0.765625 -0.03125,0 -0.234375,0 -0.40625,-0.109375 0.359375,-0.09375 0.359375,-0.421875 0.359375,-0.4375 0,-0.1875 -0.140625,-0.296875 -0.3125,-0.296875 -0.21875,0 -0.453125,0.1875 -0.453125,0.484375 0,0.375 0.390625,0.578125 0.796875,0.578125 0.421875,0 0.71875,-0.3125 0.859375,-0.578125 0.1875,0.390625 0.546875,0.578125 0.9375,0.578125 0.859375,0 1.34375,-1 1.34375,-1.21875 C 4.1875,-1.21875 4.125,-1.25 4.0625,-1.25 c -0.09375,0 -0.109375,0.0625 -0.140625,0.140625 -0.15625,0.53125 -0.609375,0.96875 -1.0625,0.96875 -0.265625,0 -0.453125,-0.171875 -0.453125,-0.515625 0,-0.15625 0.046875,-0.34375 0.15625,-0.78125 0.046875,-0.25 0.21875,-0.9375 0.265625,-1.09375 0.109375,-0.421875 0.390625,-0.765625 0.75,-0.765625 0.046875,0 0.25,0 0.421875,0.125 z m 0,0"
               id="id-b0d0a44e-6118-442d-a0a1-30eb64193aee" />
          </g>
        </g>
      </defs>
      <g
         fill="#000000"
         fill-opacity="1"
         id="id-6ec361dc-b35a-43a6-be20-87cfafa1e065"
         transform="translate(-143.204,-133.258)"
         style="fill:#000000">
        <g
           transform="translate(142.735,140.742)"
           id="g119"
           style="fill:#000000">
          <path
             d="m 4.75,-6.765625 c 0.046875,-0.15625 0.0625,-0.171875 0.078125,-0.1875 0.0625,-0.015625 0.53125,-0.015625 0.8125,-0.015625 0.984375,0 2.015625,0 2.015625,0.90625 0,0.015625 -0.046875,1.0625 -0.609375,1.640625 C 6.890625,-4.28125 6.40625,-3.9375 5.3125,-3.9375 H 4.046875 Z m 2.15625,3.0625 C 8.859375,-4.21875 9.203125,-5.25 9.203125,-5.8125 c 0,-1.09375 -1.171875,-1.671875 -2.796875,-1.671875 H 2.625 c -0.21875,0 -0.40625,0 -0.40625,0.3125 0,0.203125 0.140625,0.203125 0.453125,0.203125 0.234375,0 0.4375,0.015625 0.671875,0.015625 l -1.5625,6.21875 c -0.046875,0.171875 -0.0625,0.1875 -0.25,0.203125 -0.1875,0.015625 -0.40625,0.015625 -0.578125,0.015625 -0.28125,0 -0.3125,0 -0.359375,0.03125 -0.125,0.0625 -0.125,0.25 -0.125,0.28125 C 0.46875,-0.171875 0.484375,0 0.703125,0 c 0.28125,0 0.5625,-0.015625 0.828125,-0.015625 0.265625,0 0.546875,-0.015625 0.796875,-0.015625 C 2.703125,-0.03125 3.625,0 4,0 4.09375,0 4.171875,0 4.234375,-0.078125 4.28125,-0.125 4.3125,-0.3125 4.3125,-0.3125 c 0,-0.203125 -0.15625,-0.203125 -0.453125,-0.203125 -0.234375,0 -0.4375,-0.015625 -0.65625,-0.015625 l 0.75,-3.015625 h 1.3125 c 0.3125,0 1.078125,0.078125 1.078125,0.890625 0,0.15625 -0.09375,0.546875 -0.171875,0.828125 -0.109375,0.453125 -0.15625,0.625 -0.15625,0.796875 0,1.125 1.46875,1.21875 2.03125,1.21875 1.15625,0 1.5625,-1.09375 1.5625,-1.265625 0,-0.203125 -0.203125,-0.203125 -0.265625,-0.203125 -0.1875,0 -0.21875,0.0625 -0.265625,0.21875 -0.140625,0.4375 -0.53125,0.859375 -0.9375,0.859375 -0.296875,0 -0.5,-0.125 -0.5,-0.671875 0,-0.15625 0,-0.328125 0.140625,-1.203125 0.03125,-0.140625 0.0625,-0.34375 0.0625,-0.4375 0,-0.421875 -0.234375,-0.921875 -0.9375,-1.1875 z m 0,0"
             id="id-63592b1e-55a8-4fa0-9a89-feb909a82a83"
             style="fill:#000000" />
        </g>
      </g>
      <g
         fill="#000000"
         fill-opacity="1"
         id="id-0f101d7e-d04d-4047-8790-7b576f8aae22"
         transform="translate(-143.204,-133.258)"
         style="fill:#000000">
        <g
           transform="translate(152.251,142.379)"
           id="g120"
           style="fill:#000000">
          <path
             d="M 4,-3.171875 C 3.640625,-3.09375 3.625,-2.78125 3.625,-2.75 c 0,0.171875 0.140625,0.296875 0.3125,0.296875 0.171875,0 0.4375,-0.140625 0.4375,-0.484375 0,-0.453125 -0.5,-0.578125 -0.796875,-0.578125 C 3.21875,-3.515625 2.90625,-3.25 2.71875,-2.9375 2.546875,-3.359375 2.140625,-3.515625 1.8125,-3.515625 c -0.875,0 -1.359375,1 -1.359375,1.21875 0,0.078125 0.0625,0.109375 0.125,0.109375 0.09375,0 0.109375,-0.046875 0.125,-0.140625 0.1875,-0.578125 0.671875,-0.96875 1.078125,-0.96875 0.3125,0 0.46875,0.234375 0.46875,0.515625 C 2.25,-2.625 2.15625,-2.25 2.09375,-2 c -0.0625,0.234375 -0.234375,0.9375 -0.28125,1.09375 -0.109375,0.421875 -0.390625,0.765625 -0.75,0.765625 -0.03125,0 -0.234375,0 -0.40625,-0.109375 0.359375,-0.09375 0.359375,-0.421875 0.359375,-0.4375 0,-0.1875 -0.140625,-0.296875 -0.3125,-0.296875 -0.21875,0 -0.453125,0.1875 -0.453125,0.484375 0,0.375 0.390625,0.578125 0.796875,0.578125 0.421875,0 0.71875,-0.3125 0.859375,-0.578125 0.1875,0.390625 0.546875,0.578125 0.9375,0.578125 0.859375,0 1.34375,-1 1.34375,-1.21875 C 4.1875,-1.21875 4.125,-1.25 4.0625,-1.25 c -0.09375,0 -0.109375,0.0625 -0.140625,0.140625 -0.15625,0.53125 -0.609375,0.96875 -1.0625,0.96875 -0.265625,0 -0.453125,-0.171875 -0.453125,-0.515625 0,-0.15625 0.046875,-0.34375 0.15625,-0.78125 0.046875,-0.25 0.21875,-0.9375 0.265625,-1.09375 0.109375,-0.421875 0.390625,-0.765625 0.75,-0.765625 0.046875,0 0.25,0 0.421875,0.125 z m 0,0"
             id="id-ad275243-6f8a-46cd-83bb-93696b56596a"
             style="fill:#000000" />
        </g>
      </g>
    </g>
    <g
       transform="matrix(0.352778,0,0,0.352778,109.04066,36.51048)"
       ns2:version="1.10.2"
       ns2:texconverter="pdflatex"
       ns2:pdfconverter="inkscape"
       ns2:text="$\\bm{R}_y$"
       ns2:preamble="/Users/ali/.config/inkscape/textext_preamble.tex"
       ns2:scale="1.0"
       ns2:alignment="middle center"
       ns2:stroke-to-path="0"
       ns2:jacobian_sqrt="0.352778"
       id="g90"
       style="fill:#000000">
      <defs
         id="id-89865efb-0303-410c-b914-e2e085fb9578">
        <g
           id="id-833e6166-c711-4dda-91c1-56e12984ffd8">
          <g
             id="id-5ecfe08e-a13a-4f91-babf-73ff36d2bc8d">
            <path
               d="m 4.75,-6.765625 c 0.046875,-0.15625 0.0625,-0.171875 0.078125,-0.1875 0.0625,-0.015625 0.53125,-0.015625 0.8125,-0.015625 0.984375,0 2.015625,0 2.015625,0.90625 0,0.015625 -0.046875,1.0625 -0.609375,1.640625 C 6.890625,-4.28125 6.40625,-3.9375 5.3125,-3.9375 H 4.046875 Z m 2.15625,3.0625 C 8.859375,-4.21875 9.203125,-5.25 9.203125,-5.8125 c 0,-1.09375 -1.171875,-1.671875 -2.796875,-1.671875 H 2.625 c -0.21875,0 -0.40625,0 -0.40625,0.3125 0,0.203125 0.140625,0.203125 0.453125,0.203125 0.234375,0 0.4375,0.015625 0.671875,0.015625 l -1.5625,6.21875 c -0.046875,0.171875 -0.0625,0.1875 -0.25,0.203125 -0.1875,0.015625 -0.40625,0.015625 -0.578125,0.015625 -0.28125,0 -0.3125,0 -0.359375,0.03125 -0.125,0.0625 -0.125,0.25 -0.125,0.28125 C 0.46875,-0.171875 0.484375,0 0.703125,0 c 0.28125,0 0.5625,-0.015625 0.828125,-0.015625 0.265625,0 0.546875,-0.015625 0.796875,-0.015625 C 2.703125,-0.03125 3.625,0 4,0 4.09375,0 4.171875,0 4.234375,-0.078125 4.28125,-0.125 4.3125,-0.3125 4.3125,-0.3125 c 0,-0.203125 -0.15625,-0.203125 -0.453125,-0.203125 -0.234375,0 -0.4375,-0.015625 -0.65625,-0.015625 l 0.75,-3.015625 h 1.3125 c 0.3125,0 1.078125,0.078125 1.078125,0.890625 0,0.15625 -0.09375,0.546875 -0.171875,0.828125 -0.109375,0.453125 -0.15625,0.625 -0.15625,0.796875 0,1.125 1.46875,1.21875 2.03125,1.21875 1.15625,0 1.5625,-1.09375 1.5625,-1.265625 0,-0.203125 -0.203125,-0.203125 -0.265625,-0.203125 -0.1875,0 -0.21875,0.0625 -0.265625,0.21875 -0.140625,0.4375 -0.53125,0.859375 -0.9375,0.859375 -0.296875,0 -0.5,-0.125 -0.5,-0.671875 0,-0.15625 0,-0.328125 0.140625,-1.203125 0.03125,-0.140625 0.0625,-0.34375 0.0625,-0.4375 0,-0.421875 -0.234375,-0.921875 -0.9375,-1.1875 z m 0,0"
               id="id-d966405e-2ee6-402e-b635-5e68d22866de" />
          </g>
          <g
             id="id-8473ce77-47a9-4063-9a6c-b3428dc40540">
            <path
               d="m 4.125,-3 c 0.03125,-0.109375 0.03125,-0.125 0.03125,-0.1875 0,-0.203125 -0.15625,-0.25 -0.25,-0.25 -0.046875,0 -0.21875,0.015625 -0.328125,0.21875 -0.015625,0.046875 -0.09375,0.328125 -0.125,0.5 L 2.96875,-0.8125 c 0,0.03125 -0.34375,0.671875 -0.921875,0.671875 -0.390625,0 -0.53125,-0.296875 -0.53125,-0.640625 0,-0.46875 0.265625,-1.171875 0.453125,-1.640625 C 2.046875,-2.625 2.078125,-2.6875 2.078125,-2.84375 c 0,-0.4375 -0.359375,-0.671875 -0.71875,-0.671875 -0.796875,0 -1.125,1.125 -1.125,1.21875 0,0.078125 0.0625,0.109375 0.125,0.109375 0.109375,0 0.109375,-0.046875 0.140625,-0.125 0.203125,-0.703125 0.546875,-0.984375 0.828125,-0.984375 0.125,0 0.1875,0.078125 0.1875,0.265625 0,0.171875 -0.0625,0.359375 -0.109375,0.5 -0.328125,0.84375 -0.46875,1.25 -0.46875,1.625 0,0.78125 0.59375,0.984375 1.0625,0.984375 0.375,0 0.640625,-0.171875 0.84375,-0.34375 -0.125,0.4375 -0.203125,0.75 -0.5,1.140625 C 2.078125,1.1875 1.765625,1.40625 1.40625,1.40625 1.265625,1.40625 0.96875,1.375 0.8125,1.140625 1.234375,1.109375 1.265625,0.75 1.265625,0.703125 c 0,-0.1875 -0.15625,-0.296875 -0.3125,-0.296875 C 0.765625,0.40625 0.5,0.546875 0.5,0.9375 0.5,1.3125 0.84375,1.625 1.40625,1.625 2.21875,1.625 3.125,0.96875 3.375,0.015625 Z m 0,0"
               id="id-b79ddfaa-17c5-4f0c-92a8-15798494af3e" />
          </g>
        </g>
      </defs>
      <g
         fill="#000000"
         fill-opacity="1"
         id="id-85018df8-317b-4bb5-82d3-e34e5becbaf7"
         transform="translate(-143.204,-133.258)"
         style="fill:#000000">
        <g
           transform="translate(142.735,140.742)"
           id="g121"
           style="fill:#000000">
          <path
             d="m 4.75,-6.765625 c 0.046875,-0.15625 0.0625,-0.171875 0.078125,-0.1875 0.0625,-0.015625 0.53125,-0.015625 0.8125,-0.015625 0.984375,0 2.015625,0 2.015625,0.90625 0,0.015625 -0.046875,1.0625 -0.609375,1.640625 C 6.890625,-4.28125 6.40625,-3.9375 5.3125,-3.9375 H 4.046875 Z m 2.15625,3.0625 C 8.859375,-4.21875 9.203125,-5.25 9.203125,-5.8125 c 0,-1.09375 -1.171875,-1.671875 -2.796875,-1.671875 H 2.625 c -0.21875,0 -0.40625,0 -0.40625,0.3125 0,0.203125 0.140625,0.203125 0.453125,0.203125 0.234375,0 0.4375,0.015625 0.671875,0.015625 l -1.5625,6.21875 c -0.046875,0.171875 -0.0625,0.1875 -0.25,0.203125 -0.1875,0.015625 -0.40625,0.015625 -0.578125,0.015625 -0.28125,0 -0.3125,0 -0.359375,0.03125 -0.125,0.0625 -0.125,0.25 -0.125,0.28125 C 0.46875,-0.171875 0.484375,0 0.703125,0 c 0.28125,0 0.5625,-0.015625 0.828125,-0.015625 0.265625,0 0.546875,-0.015625 0.796875,-0.015625 C 2.703125,-0.03125 3.625,0 4,0 4.09375,0 4.171875,0 4.234375,-0.078125 4.28125,-0.125 4.3125,-0.3125 4.3125,-0.3125 c 0,-0.203125 -0.15625,-0.203125 -0.453125,-0.203125 -0.234375,0 -0.4375,-0.015625 -0.65625,-0.015625 l 0.75,-3.015625 h 1.3125 c 0.3125,0 1.078125,0.078125 1.078125,0.890625 0,0.15625 -0.09375,0.546875 -0.171875,0.828125 -0.109375,0.453125 -0.15625,0.625 -0.15625,0.796875 0,1.125 1.46875,1.21875 2.03125,1.21875 1.15625,0 1.5625,-1.09375 1.5625,-1.265625 0,-0.203125 -0.203125,-0.203125 -0.265625,-0.203125 -0.1875,0 -0.21875,0.0625 -0.265625,0.21875 -0.140625,0.4375 -0.53125,0.859375 -0.9375,0.859375 -0.296875,0 -0.5,-0.125 -0.5,-0.671875 0,-0.15625 0,-0.328125 0.140625,-1.203125 0.03125,-0.140625 0.0625,-0.34375 0.0625,-0.4375 0,-0.421875 -0.234375,-0.921875 -0.9375,-1.1875 z m 0,0"
             id="id-ecf859fa-9900-44d8-84b7-1574230a3303"
             style="fill:#000000" />
        </g>
      </g>
      <g
         fill="#000000"
         fill-opacity="1"
         id="id-f436096a-58d7-415e-8452-7856e732f367"
         transform="translate(-143.204,-133.258)"
         style="fill:#000000">
        <g
           transform="translate(152.251,142.379)"
           id="g122"
           style="fill:#000000">
          <path
             d="m 4.125,-3 c 0.03125,-0.109375 0.03125,-0.125 0.03125,-0.1875 0,-0.203125 -0.15625,-0.25 -0.25,-0.25 -0.046875,0 -0.21875,0.015625 -0.328125,0.21875 -0.015625,0.046875 -0.09375,0.328125 -0.125,0.5 L 2.96875,-0.8125 c 0,0.03125 -0.34375,0.671875 -0.921875,0.671875 -0.390625,0 -0.53125,-0.296875 -0.53125,-0.640625 0,-0.46875 0.265625,-1.171875 0.453125,-1.640625 C 2.046875,-2.625 2.078125,-2.6875 2.078125,-2.84375 c 0,-0.4375 -0.359375,-0.671875 -0.71875,-0.671875 -0.796875,0 -1.125,1.125 -1.125,1.21875 0,0.078125 0.0625,0.109375 0.125,0.109375 0.109375,0 0.109375,-0.046875 0.140625,-0.125 0.203125,-0.703125 0.546875,-0.984375 0.828125,-0.984375 0.125,0 0.1875,0.078125 0.1875,0.265625 0,0.171875 -0.0625,0.359375 -0.109375,0.5 -0.328125,0.84375 -0.46875,1.25 -0.46875,1.625 0,0.78125 0.59375,0.984375 1.0625,0.984375 0.375,0 0.640625,-0.171875 0.84375,-0.34375 -0.125,0.4375 -0.203125,0.75 -0.5,1.140625 C 2.078125,1.1875 1.765625,1.40625 1.40625,1.40625 1.265625,1.40625 0.96875,1.375 0.8125,1.140625 1.234375,1.109375 1.265625,0.75 1.265625,0.703125 c 0,-0.1875 -0.15625,-0.296875 -0.3125,-0.296875 C 0.765625,0.40625 0.5,0.546875 0.5,0.9375 0.5,1.3125 0.84375,1.625 1.40625,1.625 2.21875,1.625 3.125,0.96875 3.375,0.015625 Z m 0,0"
             id="id-3f9f64c8-9aff-4e5f-9677-73280d9cfd5b"
             style="fill:#000000" />
        </g>
      </g>
    </g>
    <g
       transform="matrix(0.352778,0,0,0.352778,124.21957,31.091253)"
       ns2:version="1.10.2"
       ns2:texconverter="pdflatex"
       ns2:pdfconverter="inkscape"
       ns2:text="$\\bm{P}_3$"
       ns2:preamble="/Users/ali/.config/inkscape/textext_preamble.tex"
       ns2:scale="1.0"
       ns2:alignment="middle center"
       ns2:stroke-to-path="0"
       ns2:jacobian_sqrt="0.352778"
       id="g98"
       style="fill:#828282">
      <defs
         id="id-86f6cbda-9910-4d4a-9e28-d5f8d7535c89">
        <g
           id="id-57f9c189-d09d-4d13-a7ee-047f9b74b498">
          <g
             id="id-38496ff3-bbea-4288-9b60-aa16bcef6421">
            <path
               d="M 3.953125,-3.296875 H 5.875 c 2.015625,0 3.390625,-1.21875 3.390625,-2.5 0,-1.125 -1.015625,-1.6875 -2.453125,-1.6875 H 2.625 c -0.21875,0 -0.40625,0 -0.40625,0.3125 0,0.203125 0.140625,0.203125 0.453125,0.203125 0.234375,0 0.4375,0.015625 0.671875,0.015625 l -1.5625,6.21875 c -0.046875,0.171875 -0.0625,0.1875 -0.25,0.203125 -0.1875,0.015625 -0.40625,0.015625 -0.578125,0.015625 -0.28125,0 -0.3125,0 -0.34375,0.03125 C 0.46875,-0.421875 0.46875,-0.25 0.46875,-0.203125 0.46875,-0.1875 0.46875,0 0.703125,0 c 0.28125,0 0.5625,-0.015625 0.828125,-0.015625 0.28125,0 0.5625,-0.015625 0.828125,-0.015625 0.296875,0 0.578125,0.015625 0.84375,0.015625 C 3.484375,-0.015625 3.78125,0 4.0625,0 4.171875,0 4.375,0 4.375,-0.3125 c 0,-0.203125 -0.125,-0.203125 -0.453125,-0.203125 -0.21875,0 -0.4375,-0.015625 -0.65625,-0.015625 z M 4.75,-6.765625 C 4.796875,-6.9375 4.8125,-6.953125 4.875,-6.953125 4.96875,-6.96875 5.046875,-6.96875 5.171875,-6.96875 h 1.125 c 0.625,0 1.4375,0.109375 1.4375,0.859375 0,0.125 -0.140625,1.25 -0.546875,1.765625 -0.234375,0.296875 -0.71875,0.609375 -1.703125,0.609375 h -1.5 z m 0,0"
               id="id-c4e483b3-925b-4d4f-9b55-cb3fa38d81f2" />
          </g>
          <g
             id="id-047c7bf2-997d-4cfb-82cc-7f88f056c232">
            <path
               d="m 2.015625,-2.65625 c 0.625,0 1.03125,0.453125 1.03125,1.296875 0,1 -0.5625,1.28125 -0.984375,1.28125 -0.4375,0 -1.046875,-0.15625 -1.328125,-0.578125 0.296875,0 0.5,-0.1875 0.5,-0.4375 0,-0.265625 -0.1875,-0.4375 -0.453125,-0.4375 -0.203125,0 -0.4375,0.125 -0.4375,0.453125 0,0.75 0.8125,1.25 1.734375,1.25 C 3.125,0.171875 3.875,-0.5625 3.875,-1.359375 3.875,-2.03125 3.34375,-2.625 2.53125,-2.8125 c 0.625,-0.21875 1.109375,-0.75 1.109375,-1.390625 0,-0.640625 -0.71875,-1.09375 -1.546875,-1.09375 -0.859375,0 -1.5,0.453125 -1.5,1.0625 0,0.296875 0.1875,0.421875 0.40625,0.421875 0.25,0 0.40625,-0.171875 0.40625,-0.40625 0,-0.296875 -0.265625,-0.40625 -0.4375,-0.40625 0.34375,-0.4375 0.953125,-0.46875 1.09375,-0.46875 0.203125,0 0.8125,0.0625 0.8125,0.890625 0,0.546875 -0.234375,0.890625 -0.34375,1.015625 -0.234375,0.25 -0.421875,0.265625 -0.90625,0.296875 -0.15625,0 -0.21875,0.015625 -0.21875,0.125 0,0.109375 0.078125,0.109375 0.21875,0.109375 z m 0,0"
               id="id-f939db8c-a14a-488c-9753-e6ed3dfa3116" />
          </g>
        </g>
      </defs>
      <g
         fill="#000000"
         fill-opacity="1"
         id="id-64d3c34b-cdc3-4ed4-a9c3-5888520e5b9d"
         transform="translate(-143.204,-133.258)"
         style="fill:#828282">
        <g
           transform="translate(142.735,140.742)"
           id="g123"
           style="fill:#828282">
          <path
             d="M 3.953125,-3.296875 H 5.875 c 2.015625,0 3.390625,-1.21875 3.390625,-2.5 0,-1.125 -1.015625,-1.6875 -2.453125,-1.6875 H 2.625 c -0.21875,0 -0.40625,0 -0.40625,0.3125 0,0.203125 0.140625,0.203125 0.453125,0.203125 0.234375,0 0.4375,0.015625 0.671875,0.015625 l -1.5625,6.21875 c -0.046875,0.171875 -0.0625,0.1875 -0.25,0.203125 -0.1875,0.015625 -0.40625,0.015625 -0.578125,0.015625 -0.28125,0 -0.3125,0 -0.34375,0.03125 C 0.46875,-0.421875 0.46875,-0.25 0.46875,-0.203125 0.46875,-0.1875 0.46875,0 0.703125,0 c 0.28125,0 0.5625,-0.015625 0.828125,-0.015625 0.28125,0 0.5625,-0.015625 0.828125,-0.015625 0.296875,0 0.578125,0.015625 0.84375,0.015625 C 3.484375,-0.015625 3.78125,0 4.0625,0 4.171875,0 4.375,0 4.375,-0.3125 c 0,-0.203125 -0.125,-0.203125 -0.453125,-0.203125 -0.21875,0 -0.4375,-0.015625 -0.65625,-0.015625 z M 4.75,-6.765625 C 4.796875,-6.9375 4.8125,-6.953125 4.875,-6.953125 4.96875,-6.96875 5.046875,-6.96875 5.171875,-6.96875 h 1.125 c 0.625,0 1.4375,0.109375 1.4375,0.859375 0,0.125 -0.140625,1.25 -0.546875,1.765625 -0.234375,0.296875 -0.71875,0.609375 -1.703125,0.609375 h -1.5 z m 0,0"
             id="id-3e00f8d4-dd05-42b4-af64-fd0973729fbd"
             style="fill:#828282" />
        </g>
      </g>
      <g
         fill="#000000"
         fill-opacity="1"
         id="id-bbacb72f-6f29-4dad-af6e-ee13a5069d9c"
         transform="translate(-143.204,-133.258)"
         style="fill:#828282">
        <g
           transform="translate(150.623,142.379)"
           id="g124"
           style="fill:#828282">
          <path
             d="m 2.015625,-2.65625 c 0.625,0 1.03125,0.453125 1.03125,1.296875 0,1 -0.5625,1.28125 -0.984375,1.28125 -0.4375,0 -1.046875,-0.15625 -1.328125,-0.578125 0.296875,0 0.5,-0.1875 0.5,-0.4375 0,-0.265625 -0.1875,-0.4375 -0.453125,-0.4375 -0.203125,0 -0.4375,0.125 -0.4375,0.453125 0,0.75 0.8125,1.25 1.734375,1.25 C 3.125,0.171875 3.875,-0.5625 3.875,-1.359375 3.875,-2.03125 3.34375,-2.625 2.53125,-2.8125 c 0.625,-0.21875 1.109375,-0.75 1.109375,-1.390625 0,-0.640625 -0.71875,-1.09375 -1.546875,-1.09375 -0.859375,0 -1.5,0.453125 -1.5,1.0625 0,0.296875 0.1875,0.421875 0.40625,0.421875 0.25,0 0.40625,-0.171875 0.40625,-0.40625 0,-0.296875 -0.265625,-0.40625 -0.4375,-0.40625 0.34375,-0.4375 0.953125,-0.46875 1.09375,-0.46875 0.203125,0 0.8125,0.0625 0.8125,0.890625 0,0.546875 -0.234375,0.890625 -0.34375,1.015625 -0.234375,0.25 -0.421875,0.265625 -0.90625,0.296875 -0.15625,0 -0.21875,0.015625 -0.21875,0.125 0,0.109375 0.078125,0.109375 0.21875,0.109375 z m 0,0"
             id="id-03dc6288-abd6-408c-9557-2dad7e13921f"
             style="fill:#828282" />
        </g>
      </g>
    </g>
    <g
       transform="matrix(0.352778,0,0,0.352778,39.128803,4.0000381)"
       ns2:version="1.10.2"
       ns2:texconverter="pdflatex"
       ns2:pdfconverter="inkscape"
       ns2:text="$\\bm{F}_2$"
       ns2:preamble="/Users/ali/.config/inkscape/textext_preamble.tex"
       ns2:scale="1.0"
       ns2:alignment="middle center"
       ns2:stroke-to-path="0"
       ns2:jacobian_sqrt="0.352778"
       id="g43">
      <defs
         id="id-ca00728e-cceb-42f0-bf54-1f1a7636e228">
        <g
           id="id-204d81d2-83a3-4c6b-82a7-ac4eef085f84">
          <g
             id="id-217070a8-0a52-4b60-8e3a-043f893ef4d5">
            <path
               d="m 3.984375,-3.453125 h 0.71875 c 0.65625,0 0.84375,0.109375 0.84375,0.46875 C 5.546875,-2.875 5.5,-2.65625 5.46875,-2.53125 5.453125,-2.453125 5.4375,-2.40625 5.4375,-2.375 c 0,0.15625 0.140625,0.1875 0.25,0.1875 0.21875,0 0.21875,-0.0625 0.28125,-0.25 L 6.578125,-4.875 C 6.625,-5.015625 6.625,-5.03125 6.625,-5.046875 6.625,-5.25 6.40625,-5.25 6.359375,-5.25 c -0.203125,0 -0.234375,0.078125 -0.28125,0.28125 -0.21875,0.828125 -0.5625,1 -1.34375,1 H 4.125 L 4.84375,-6.875 c 0.140625,-0.03125 0.265625,-0.03125 0.375,-0.03125 h 1.296875 c 1.234375,0 1.625,0.3125 1.625,1.28125 0,0.265625 -0.046875,0.59375 -0.046875,0.625 0,0.21875 0.203125,0.21875 0.265625,0.21875 0.21875,0 0.234375,-0.109375 0.25,-0.3125 L 8.8125,-7.046875 8.828125,-7.21875 c 0,-0.203125 -0.1875,-0.203125 -0.359375,-0.203125 h -5.875 c -0.234375,0 -0.234375,0.015625 -0.296875,0.0625 -0.078125,0.046875 -0.09375,0.25 -0.09375,0.265625 0,0.1875 0.15625,0.1875 0.453125,0.1875 0.21875,0 0.4375,0.015625 0.65625,0.03125 l -1.53125,6.140625 c -0.046875,0.171875 -0.0625,0.1875 -0.25,0.203125 -0.1875,0.015625 -0.40625,0.015625 -0.578125,0.015625 -0.28125,0 -0.3125,0 -0.359375,0.03125 -0.125,0.0625 -0.125,0.25 -0.125,0.28125 0,0.015625 0,0.203125 0.234375,0.203125 0.28125,0 0.5625,-0.015625 0.828125,-0.015625 0.296875,0 0.59375,-0.015625 0.890625,-0.015625 0.328125,0 0.65625,0.015625 0.984375,0.015625 0.3125,0 0.625,0.015625 0.9375,0.015625 0.125,0 0.328125,0 0.328125,-0.3125 0,-0.203125 -0.1875,-0.203125 -0.359375,-0.203125 H 3.953125 c -0.421875,0 -0.578125,-0.015625 -0.6875,-0.046875 z m 0,0"
               id="id-e7597a1b-07fd-43d0-84e5-581ef29d4d8d" />
          </g>
          <g
             id="id-78309675-264a-4231-bbd6-30b5bc191b36">
            <path
               d="m 2.25,-1.625 c 0.125,-0.125 0.453125,-0.390625 0.59375,-0.5 0.484375,-0.453125 0.953125,-0.890625 0.953125,-1.609375 0,-0.953125 -0.796875,-1.5625 -1.78125,-1.5625 -0.96875,0 -1.59375,0.71875 -1.59375,1.4375 0,0.390625 0.3125,0.4375 0.421875,0.4375 0.171875,0 0.421875,-0.109375 0.421875,-0.421875 0,-0.40625 -0.40625,-0.40625 -0.5,-0.40625 C 1,-4.84375 1.53125,-5.03125 1.921875,-5.03125 c 0.734375,0 1.125,0.625 1.125,1.296875 0,0.828125 -0.578125,1.4375 -1.53125,2.390625 l -1,1.046875 C 0.421875,-0.21875 0.421875,-0.203125 0.421875,0 H 3.5625 l 0.234375,-1.421875 h -0.25 C 3.53125,-1.265625 3.46875,-0.875 3.375,-0.71875 c -0.046875,0.0625 -0.65625,0.0625 -0.78125,0.0625 H 1.171875 Z m 0,0"
               id="id-2084caa8-62a3-4dd4-9c3c-bd11fc5f0413" />
          </g>
        </g>
      </defs>
      <g
         fill="#000000"
         fill-opacity="1"
         id="id-c8cfbc2e-a33b-47d1-a032-d586d5650115"
         transform="translate(-143.204,-133.32)">
        <g
           transform="translate(142.735,140.742)"
           id="g41">
          <path
             d="m 3.984375,-3.453125 h 0.71875 c 0.65625,0 0.84375,0.109375 0.84375,0.46875 C 5.546875,-2.875 5.5,-2.65625 5.46875,-2.53125 5.453125,-2.453125 5.4375,-2.40625 5.4375,-2.375 c 0,0.15625 0.140625,0.1875 0.25,0.1875 0.21875,0 0.21875,-0.0625 0.28125,-0.25 L 6.578125,-4.875 C 6.625,-5.015625 6.625,-5.03125 6.625,-5.046875 6.625,-5.25 6.40625,-5.25 6.359375,-5.25 c -0.203125,0 -0.234375,0.078125 -0.28125,0.28125 -0.21875,0.828125 -0.5625,1 -1.34375,1 H 4.125 L 4.84375,-6.875 c 0.140625,-0.03125 0.265625,-0.03125 0.375,-0.03125 h 1.296875 c 1.234375,0 1.625,0.3125 1.625,1.28125 0,0.265625 -0.046875,0.59375 -0.046875,0.625 0,0.21875 0.203125,0.21875 0.265625,0.21875 0.21875,0 0.234375,-0.109375 0.25,-0.3125 L 8.8125,-7.046875 8.828125,-7.21875 c 0,-0.203125 -0.1875,-0.203125 -0.359375,-0.203125 h -5.875 c -0.234375,0 -0.234375,0.015625 -0.296875,0.0625 -0.078125,0.046875 -0.09375,0.25 -0.09375,0.265625 0,0.1875 0.15625,0.1875 0.453125,0.1875 0.21875,0 0.4375,0.015625 0.65625,0.03125 l -1.53125,6.140625 c -0.046875,0.171875 -0.0625,0.1875 -0.25,0.203125 -0.1875,0.015625 -0.40625,0.015625 -0.578125,0.015625 -0.28125,0 -0.3125,0 -0.359375,0.03125 -0.125,0.0625 -0.125,0.25 -0.125,0.28125 0,0.015625 0,0.203125 0.234375,0.203125 0.28125,0 0.5625,-0.015625 0.828125,-0.015625 0.296875,0 0.59375,-0.015625 0.890625,-0.015625 0.328125,0 0.65625,0.015625 0.984375,0.015625 0.3125,0 0.625,0.015625 0.9375,0.015625 0.125,0 0.328125,0 0.328125,-0.3125 0,-0.203125 -0.1875,-0.203125 -0.359375,-0.203125 H 3.953125 c -0.421875,0 -0.578125,-0.015625 -0.6875,-0.046875 z m 0,0"
             id="id-8a58e1aa-e330-4338-97b2-7ec9ee6e9095" />
        </g>
      </g>
      <g
         fill="#000000"
         fill-opacity="1"
         id="id-4e3dc1fe-a9f5-49f9-9405-a19ba50d810f"
         transform="translate(-143.204,-133.32)">
        <g
           transform="translate(150.25,142.379)"
           id="g42">
          <path
             d="m 2.25,-1.625 c 0.125,-0.125 0.453125,-0.390625 0.59375,-0.5 0.484375,-0.453125 0.953125,-0.890625 0.953125,-1.609375 0,-0.953125 -0.796875,-1.5625 -1.78125,-1.5625 -0.96875,0 -1.59375,0.71875 -1.59375,1.4375 0,0.390625 0.3125,0.4375 0.421875,0.4375 0.171875,0 0.421875,-0.109375 0.421875,-0.421875 0,-0.40625 -0.40625,-0.40625 -0.5,-0.40625 C 1,-4.84375 1.53125,-5.03125 1.921875,-5.03125 c 0.734375,0 1.125,0.625 1.125,1.296875 0,0.828125 -0.578125,1.4375 -1.53125,2.390625 l -1,1.046875 C 0.421875,-0.21875 0.421875,-0.203125 0.421875,0 H 3.5625 l 0.234375,-1.421875 h -0.25 C 3.53125,-1.265625 3.46875,-0.875 3.375,-0.71875 c -0.046875,0.0625 -0.65625,0.0625 -0.78125,0.0625 H 1.171875 Z m 0,0"
             id="id-2f831fef-47c9-4e23-9cd7-f0e7002f148d" />
        </g>
      </g>
    </g>
    <path
       style="fill:#e9e9f2;stroke:#000000;stroke-width:0.176389;stroke-linecap:round;stroke-linejoin:round;stroke-miterlimit:0;stroke-dasharray:none;marker-end:url(#marker3);paint-order:fill markers stroke"
       d="M 45.274745,2.545007 V 9.3586093"
       id="path28" />
    <g
       transform="matrix(0.352778,0,0,0.352778,76.052014,5.3575013)"
       ns2:version="1.10.2"
       ns2:texconverter="pdflatex"
       ns2:pdfconverter="inkscape"
       ns2:text="$\\bm{F}_1$"
       ns2:preamble="/Users/ali/.config/inkscape/textext_preamble.tex"
       ns2:scale="1.0"
       ns2:alignment="middle center"
       ns2:stroke-to-path="0"
       ns2:jacobian_sqrt="0.352778"
       id="g33">
      <defs
         id="id-810f571f-a095-4552-863a-22884da85e83">
        <g
           id="id-c078f418-f3c6-4e34-be1e-142392a06d56">
          <g
             id="id-b3e7f988-fbc8-4679-a257-7335e1e6adf5">
            <path
               d="m 3.984375,-3.453125 h 0.71875 c 0.65625,0 0.84375,0.109375 0.84375,0.46875 C 5.546875,-2.875 5.5,-2.65625 5.46875,-2.53125 5.453125,-2.453125 5.4375,-2.40625 5.4375,-2.375 c 0,0.15625 0.140625,0.1875 0.25,0.1875 0.21875,0 0.21875,-0.0625 0.28125,-0.25 L 6.578125,-4.875 C 6.625,-5.015625 6.625,-5.03125 6.625,-5.046875 6.625,-5.25 6.40625,-5.25 6.359375,-5.25 c -0.203125,0 -0.234375,0.078125 -0.28125,0.28125 -0.21875,0.828125 -0.5625,1 -1.34375,1 H 4.125 L 4.84375,-6.875 c 0.140625,-0.03125 0.265625,-0.03125 0.375,-0.03125 h 1.296875 c 1.234375,0 1.625,0.3125 1.625,1.28125 0,0.265625 -0.046875,0.59375 -0.046875,0.625 0,0.21875 0.203125,0.21875 0.265625,0.21875 0.21875,0 0.234375,-0.109375 0.25,-0.3125 L 8.8125,-7.046875 8.828125,-7.21875 c 0,-0.203125 -0.1875,-0.203125 -0.359375,-0.203125 h -5.875 c -0.234375,0 -0.234375,0.015625 -0.296875,0.0625 -0.078125,0.046875 -0.09375,0.25 -0.09375,0.265625 0,0.1875 0.15625,0.1875 0.453125,0.1875 0.21875,0 0.4375,0.015625 0.65625,0.03125 l -1.53125,6.140625 c -0.046875,0.171875 -0.0625,0.1875 -0.25,0.203125 -0.1875,0.015625 -0.40625,0.015625 -0.578125,0.015625 -0.28125,0 -0.3125,0 -0.359375,0.03125 -0.125,0.0625 -0.125,0.25 -0.125,0.28125 0,0.015625 0,0.203125 0.234375,0.203125 0.28125,0 0.5625,-0.015625 0.828125,-0.015625 0.296875,0 0.59375,-0.015625 0.890625,-0.015625 0.328125,0 0.65625,0.015625 0.984375,0.015625 0.3125,0 0.625,0.015625 0.9375,0.015625 0.125,0 0.328125,0 0.328125,-0.3125 0,-0.203125 -0.1875,-0.203125 -0.359375,-0.203125 H 3.953125 c -0.421875,0 -0.578125,-0.015625 -0.6875,-0.046875 z m 0,0"
               id="id-a7fbede6-c1b2-4379-a12a-242abef59171" />
          </g>
          <g
             id="id-347d7a9d-7c0e-41e2-a78a-c420cb417b54">
            <path
               d="m 2.5,-5.078125 c 0,-0.21875 -0.015625,-0.21875 -0.234375,-0.21875 -0.328125,0.3125 -0.75,0.5 -1.5,0.5 v 0.265625 c 0.21875,0 0.640625,0 1.109375,-0.203125 v 4.078125 c 0,0.296875 -0.03125,0.390625 -0.78125,0.390625 H 0.8125 V 0 c 0.328125,-0.03125 1.015625,-0.03125 1.375,-0.03125 0.359375,0 1.046875,0 1.375,0.03125 V -0.265625 H 3.28125 c -0.75,0 -0.78125,-0.09375 -0.78125,-0.390625 z m 0,0"
               id="id-6b2459c8-ee40-416f-b879-39687c341d82" />
          </g>
        </g>
      </defs>
      <g
         fill="#000000"
         fill-opacity="1"
         id="id-0fbcd8df-3d8f-4d1b-843b-f74e090372ba"
         transform="translate(-143.204,-133.32)">
        <g
           transform="translate(142.735,140.742)"
           id="g44">
          <path
             d="m 3.984375,-3.453125 h 0.71875 c 0.65625,0 0.84375,0.109375 0.84375,0.46875 C 5.546875,-2.875 5.5,-2.65625 5.46875,-2.53125 5.453125,-2.453125 5.4375,-2.40625 5.4375,-2.375 c 0,0.15625 0.140625,0.1875 0.25,0.1875 0.21875,0 0.21875,-0.0625 0.28125,-0.25 L 6.578125,-4.875 C 6.625,-5.015625 6.625,-5.03125 6.625,-5.046875 6.625,-5.25 6.40625,-5.25 6.359375,-5.25 c -0.203125,0 -0.234375,0.078125 -0.28125,0.28125 -0.21875,0.828125 -0.5625,1 -1.34375,1 H 4.125 L 4.84375,-6.875 c 0.140625,-0.03125 0.265625,-0.03125 0.375,-0.03125 h 1.296875 c 1.234375,0 1.625,0.3125 1.625,1.28125 0,0.265625 -0.046875,0.59375 -0.046875,0.625 0,0.21875 0.203125,0.21875 0.265625,0.21875 0.21875,0 0.234375,-0.109375 0.25,-0.3125 L 8.8125,-7.046875 8.828125,-7.21875 c 0,-0.203125 -0.1875,-0.203125 -0.359375,-0.203125 h -5.875 c -0.234375,0 -0.234375,0.015625 -0.296875,0.0625 -0.078125,0.046875 -0.09375,0.25 -0.09375,0.265625 0,0.1875 0.15625,0.1875 0.453125,0.1875 0.21875,0 0.4375,0.015625 0.65625,0.03125 l -1.53125,6.140625 c -0.046875,0.171875 -0.0625,0.1875 -0.25,0.203125 -0.1875,0.015625 -0.40625,0.015625 -0.578125,0.015625 -0.28125,0 -0.3125,0 -0.359375,0.03125 -0.125,0.0625 -0.125,0.25 -0.125,0.28125 0,0.015625 0,0.203125 0.234375,0.203125 0.28125,0 0.5625,-0.015625 0.828125,-0.015625 0.296875,0 0.59375,-0.015625 0.890625,-0.015625 0.328125,0 0.65625,0.015625 0.984375,0.015625 0.3125,0 0.625,0.015625 0.9375,0.015625 0.125,0 0.328125,0 0.328125,-0.3125 0,-0.203125 -0.1875,-0.203125 -0.359375,-0.203125 H 3.953125 c -0.421875,0 -0.578125,-0.015625 -0.6875,-0.046875 z m 0,0"
             id="id-a2f19a29-6827-43be-831d-a8fbf02ec713" />
        </g>
      </g>
      <g
         fill="#000000"
         fill-opacity="1"
         id="id-f66d2721-84dc-4860-93fb-f7bfd594ebda"
         transform="translate(-143.204,-133.32)">
        <g
           transform="translate(150.25,142.379)"
           id="g45">
          <path
             d="m 2.5,-5.078125 c 0,-0.21875 -0.015625,-0.21875 -0.234375,-0.21875 -0.328125,0.3125 -0.75,0.5 -1.5,0.5 v 0.265625 c 0.21875,0 0.640625,0 1.109375,-0.203125 v 4.078125 c 0,0.296875 -0.03125,0.390625 -0.78125,0.390625 H 0.8125 V 0 c 0.328125,-0.03125 1.015625,-0.03125 1.375,-0.03125 0.359375,0 1.046875,0 1.375,0.03125 V -0.265625 H 3.28125 c -0.75,0 -0.78125,-0.09375 -0.78125,-0.390625 z m 0,0"
             id="id-efe716e4-2e1a-49ff-bc41-8115afb18a4e" />
        </g>
      </g>
    </g>
    <path
       style="fill:#e9e9f2;stroke:#000000;stroke-width:0.176389;stroke-linecap:round;stroke-linejoin:round;stroke-miterlimit:0;stroke-dasharray:none;marker-end:url(#marker3);paint-order:fill markers stroke"
       d="M 81.196171,10.046444 H 74.382569"
       id="path29" />
    <path
       style="fill:none;stroke:#828282;stroke-width:0.176389;stroke-linecap:round;stroke-linejoin:round;stroke-miterlimit:0;stroke-dasharray:none;marker-end:url(#marker3);paint-order:fill markers stroke"
       d="m 136.91285,8.2707333 h -6.8136"
       id="path51" />
    <g
       transform="matrix(0.352778,0,0,0.352778,122.90307,2.3520464)"
       ns2:version="1.10.2"
       ns2:texconverter="pdflatex"
       ns2:pdfconverter="inkscape"
       ns2:text="$\\bm{F}_2$"
       ns2:preamble="/Users/ali/.config/inkscape/textext_preamble.tex"
       ns2:scale="1.0"
       ns2:alignment="middle center"
       ns2:stroke-to-path="0"
       ns2:jacobian_sqrt="0.352778"
       id="g59">
      <defs
         id="defs54">
        <g
           id="g54">
          <g
             id="g52">
            <path
               d="m 3.984375,-3.453125 h 0.71875 c 0.65625,0 0.84375,0.109375 0.84375,0.46875 C 5.546875,-2.875 5.5,-2.65625 5.46875,-2.53125 5.453125,-2.453125 5.4375,-2.40625 5.4375,-2.375 c 0,0.15625 0.140625,0.1875 0.25,0.1875 0.21875,0 0.21875,-0.0625 0.28125,-0.25 L 6.578125,-4.875 C 6.625,-5.015625 6.625,-5.03125 6.625,-5.046875 6.625,-5.25 6.40625,-5.25 6.359375,-5.25 c -0.203125,0 -0.234375,0.078125 -0.28125,0.28125 -0.21875,0.828125 -0.5625,1 -1.34375,1 H 4.125 L 4.84375,-6.875 c 0.140625,-0.03125 0.265625,-0.03125 0.375,-0.03125 h 1.296875 c 1.234375,0 1.625,0.3125 1.625,1.28125 0,0.265625 -0.046875,0.59375 -0.046875,0.625 0,0.21875 0.203125,0.21875 0.265625,0.21875 0.21875,0 0.234375,-0.109375 0.25,-0.3125 L 8.8125,-7.046875 8.828125,-7.21875 c 0,-0.203125 -0.1875,-0.203125 -0.359375,-0.203125 h -5.875 c -0.234375,0 -0.234375,0.015625 -0.296875,0.0625 -0.078125,0.046875 -0.09375,0.25 -0.09375,0.265625 0,0.1875 0.15625,0.1875 0.453125,0.1875 0.21875,0 0.4375,0.015625 0.65625,0.03125 l -1.53125,6.140625 c -0.046875,0.171875 -0.0625,0.1875 -0.25,0.203125 -0.1875,0.015625 -0.40625,0.015625 -0.578125,0.015625 -0.28125,0 -0.3125,0 -0.359375,0.03125 -0.125,0.0625 -0.125,0.25 -0.125,0.28125 0,0.015625 0,0.203125 0.234375,0.203125 0.28125,0 0.5625,-0.015625 0.828125,-0.015625 0.296875,0 0.59375,-0.015625 0.890625,-0.015625 0.328125,0 0.65625,0.015625 0.984375,0.015625 0.3125,0 0.625,0.015625 0.9375,0.015625 0.125,0 0.328125,0 0.328125,-0.3125 0,-0.203125 -0.1875,-0.203125 -0.359375,-0.203125 H 3.953125 c -0.421875,0 -0.578125,-0.015625 -0.6875,-0.046875 z m 0,0"
               id="path52" />
          </g>
          <g
             id="g53">
            <path
               d="m 2.25,-1.625 c 0.125,-0.125 0.453125,-0.390625 0.59375,-0.5 0.484375,-0.453125 0.953125,-0.890625 0.953125,-1.609375 0,-0.953125 -0.796875,-1.5625 -1.78125,-1.5625 -0.96875,0 -1.59375,0.71875 -1.59375,1.4375 0,0.390625 0.3125,0.4375 0.421875,0.4375 0.171875,0 0.421875,-0.109375 0.421875,-0.421875 0,-0.40625 -0.40625,-0.40625 -0.5,-0.40625 C 1,-4.84375 1.53125,-5.03125 1.921875,-5.03125 c 0.734375,0 1.125,0.625 1.125,1.296875 0,0.828125 -0.578125,1.4375 -1.53125,2.390625 l -1,1.046875 C 0.421875,-0.21875 0.421875,-0.203125 0.421875,0 H 3.5625 l 0.234375,-1.421875 h -0.25 C 3.53125,-1.265625 3.46875,-0.875 3.375,-0.71875 c -0.046875,0.0625 -0.65625,0.0625 -0.78125,0.0625 H 1.171875 Z m 0,0"
               id="path53" />
          </g>
        </g>
      </defs>
      <g
         fill="#000000"
         fill-opacity="1"
         id="g56"
         transform="translate(-143.204,-133.32)">
        <g
           transform="translate(142.735,140.742)"
           id="g55">
          <path
             d="m 3.984375,-3.453125 h 0.71875 c 0.65625,0 0.84375,0.109375 0.84375,0.46875 C 5.546875,-2.875 5.5,-2.65625 5.46875,-2.53125 5.453125,-2.453125 5.4375,-2.40625 5.4375,-2.375 c 0,0.15625 0.140625,0.1875 0.25,0.1875 0.21875,0 0.21875,-0.0625 0.28125,-0.25 L 6.578125,-4.875 C 6.625,-5.015625 6.625,-5.03125 6.625,-5.046875 6.625,-5.25 6.40625,-5.25 6.359375,-5.25 c -0.203125,0 -0.234375,0.078125 -0.28125,0.28125 -0.21875,0.828125 -0.5625,1 -1.34375,1 H 4.125 L 4.84375,-6.875 c 0.140625,-0.03125 0.265625,-0.03125 0.375,-0.03125 h 1.296875 c 1.234375,0 1.625,0.3125 1.625,1.28125 0,0.265625 -0.046875,0.59375 -0.046875,0.625 0,0.21875 0.203125,0.21875 0.265625,0.21875 0.21875,0 0.234375,-0.109375 0.25,-0.3125 L 8.8125,-7.046875 8.828125,-7.21875 c 0,-0.203125 -0.1875,-0.203125 -0.359375,-0.203125 h -5.875 c -0.234375,0 -0.234375,0.015625 -0.296875,0.0625 -0.078125,0.046875 -0.09375,0.25 -0.09375,0.265625 0,0.1875 0.15625,0.1875 0.453125,0.1875 0.21875,0 0.4375,0.015625 0.65625,0.03125 l -1.53125,6.140625 c -0.046875,0.171875 -0.0625,0.1875 -0.25,0.203125 -0.1875,0.015625 -0.40625,0.015625 -0.578125,0.015625 -0.28125,0 -0.3125,0 -0.359375,0.03125 -0.125,0.0625 -0.125,0.25 -0.125,0.28125 0,0.015625 0,0.203125 0.234375,0.203125 0.28125,0 0.5625,-0.015625 0.828125,-0.015625 0.296875,0 0.59375,-0.015625 0.890625,-0.015625 0.328125,0 0.65625,0.015625 0.984375,0.015625 0.3125,0 0.625,0.015625 0.9375,0.015625 0.125,0 0.328125,0 0.328125,-0.3125 0,-0.203125 -0.1875,-0.203125 -0.359375,-0.203125 H 3.953125 c -0.421875,0 -0.578125,-0.015625 -0.6875,-0.046875 z m 0,0"
             id="path54" />
        </g>
      </g>
      <g
         fill="#000000"
         fill-opacity="1"
         id="g58"
         transform="translate(-143.204,-133.32)">
        <g
           transform="translate(150.25,142.379)"
           id="g57">
          <path
             d="m 2.25,-1.625 c 0.125,-0.125 0.453125,-0.390625 0.59375,-0.5 0.484375,-0.453125 0.953125,-0.890625 0.953125,-1.609375 0,-0.953125 -0.796875,-1.5625 -1.78125,-1.5625 -0.96875,0 -1.59375,0.71875 -1.59375,1.4375 0,0.390625 0.3125,0.4375 0.421875,0.4375 0.171875,0 0.421875,-0.109375 0.421875,-0.421875 0,-0.40625 -0.40625,-0.40625 -0.5,-0.40625 C 1,-4.84375 1.53125,-5.03125 1.921875,-5.03125 c 0.734375,0 1.125,0.625 1.125,1.296875 0,0.828125 -0.578125,1.4375 -1.53125,2.390625 l -1,1.046875 C 0.421875,-0.21875 0.421875,-0.203125 0.421875,0 H 3.5625 l 0.234375,-1.421875 h -0.25 C 3.53125,-1.265625 3.46875,-0.875 3.375,-0.71875 c -0.046875,0.0625 -0.65625,0.0625 -0.78125,0.0625 H 1.171875 Z m 0,0"
             id="path56" />
        </g>
      </g>
    </g>
    <path
       style="fill:#e9e9f2;stroke:#000000;stroke-width:0.176389;stroke-linecap:round;stroke-linejoin:round;stroke-miterlimit:0;stroke-dasharray:none;marker-end:url(#marker3);paint-order:fill markers stroke"
       d="M 128.92192,0.3573407 V 7.170943"
       id="path59" />
    <path
       style="fill:none;stroke:#828282;stroke-width:0.176389;stroke-linecap:round;stroke-linejoin:round;stroke-miterlimit:0;stroke-dasharray:none;marker-end:url(#marker3-5);paint-order:fill markers stroke"
       d="m 129.35017,8.9842643 3.40686,5.9007167"
       id="path61"
       inkscape:transform-center-x="0.15304978"
       inkscape:transform-center-y="-0.2731425" />
    <path
       style="fill:#e9e9f2;stroke:#828282;stroke-width:0.176389;stroke-linecap:round;stroke-linejoin:round;stroke-miterlimit:0;stroke-dasharray:none;marker-end:url(#marker3);paint-order:fill markers stroke"
       d="m 116.21003,32.553958 h 6.81361"
       id="path62" />
    <path
       style="fill:none;stroke:#000000;stroke-width:0.176389;stroke-linecap:round;stroke-linejoin:round;stroke-miterlimit:0;stroke-dasharray:none;marker-end:url(#marker3);paint-order:fill markers stroke"
       d="m 114.98099,40.642659 v -6.81361"
       id="path70" />
    <path
       style="fill:none;stroke:#000000;stroke-width:0.176389;stroke-linecap:round;stroke-linejoin:round;stroke-miterlimit:0;stroke-dasharray:none;marker-end:url(#marker3);paint-order:fill markers stroke"
       d="m 106.74356,32.553958 h 6.81361"
       id="path71" />
  </g>
</svg>
