<?xml version="1.0" encoding="UTF-8" standalone="no"?>
<!-- Created with Inkscape (http://www.inkscape.org/) -->

<svg
   width="170mm"
   height="46mm"
   viewBox="0 0 170 46"
   version="1.1"
   id="svg1"
   inkscape:version="1.4 (e7c3feb1, 2024-10-09)"
   sodipodi:docname="BL_mass_balance.svg"
   xmlns:inkscape="http://www.inkscape.org/namespaces/inkscape"
   xmlns:sodipodi="http://sodipodi.sourceforge.net/DTD/sodipodi-0.dtd"
   xmlns="http://www.w3.org/2000/svg"
   xmlns:svg="http://www.w3.org/2000/svg"
   xmlns:ns2="http://www.iki.fi/pav/software/textext/">
  <sodipodi:namedview
     id="namedview1"
     pagecolor="#ffffff"
     bordercolor="#999999"
     borderopacity="1"
     inkscape:showpageshadow="0"
     inkscape:pageopacity="0"
     inkscape:pagecheckerboard="0"
     inkscape:deskcolor="#d1d1d1"
     inkscape:document-units="mm"
     inkscape:zoom="1.2524463"
     inkscape:cx="388.83903"
     inkscape:cy="91.021868"
     inkscape:window-width="1440"
     inkscape:window-height="847"
     inkscape:window-x="0"
     inkscape:window-y="25"
     inkscape:window-maximized="1"
     inkscape:current-layer="layer1"
     showguides="true"
     showgrid="false" />
  <defs
     id="defs1">
    <marker
       style="overflow:visible"
       id="Square"
       refX="0"
       refY="0"
       orient="0"
       inkscape:stockid="Square"
       markerWidth="1"
       markerHeight="1"
       viewBox="0 0 1 1"
       inkscape:isstock="true"
       inkscape:collect="always"
       preserveAspectRatio="xMidYMid">
      <path
         transform="scale(0.5)"
         style="fill:context-stroke;fill-rule:evenodd;stroke:none"
         d="M -5,-5 V 5 H 5 V -5 Z"
         id="path18" />
    </marker>
    <inkscape:path-effect
       effect="powerstroke"
       message=""
       id="path-effect3"
       is_visible="true"
       lpeversion="1.3"
       scale_width="1"
       interpolator_type="CentripetalCatmullRom"
       interpolator_beta="0.75"
       start_linecap_type="round"
       end_linecap_type="round"
       offset_points="0.34376925,0.49025612"
       linejoin_type="spiro"
       miter_limit="4"
       not_jump="true"
       sort_points="true" />
    <marker
       markerWidth="5.2141981"
       markerHeight="10.929886"
       refX="2.6070993"
       refY="5.4649429"
       orient="auto-start-reverse"
       id="marker3"
       viewBox="0 0 5.2141984 10.929886"
       preserveAspectRatio="xMidYMid">
      <path
         style="fill:context-stroke;stroke-width:1"
         d="M 0.2200441,10.861292 C 0.0019654,10.743635 -0.0331842,10.546759 0.0873827,10.11609 0.9177449,7.1468211 2.9997732,6.029143 2.9059276,5.4444312 2.8121953,4.8597194 1.5162709,4.029807 0.6814866,2.3250851 0.3919748,1.7338951 0,0.62498553 0,0.39723876 0,0.08667498 0.4095874,-0.11447903 0.6634583,0.07140569 0.7186394,0.11169545 0.8679307,0.45382585 0.9956787,0.83172569 1.6888441,2.8844627 2.8271244,4.1971984 4.5120378,4.8868904 5.064189,5.1129062 5.2141984,5.2320369 5.2141984,5.4444312 c 0,0.2392063 -0.1058267,0.3313512 -0.6370393,0.5536214 C 3.8187969,6.3155329 3.3030425,6.651567 2.737474,7.1967714 1.9265764,7.9785137 1.3710992,8.9057036 0.9846425,10.122613 0.7465323,10.872207 0.5654551,11.047331 0.220611,10.861299 Z"
         id="path1-3"
         sodipodi:nodetypes="cccsssscsscssc" />
    </marker>
  </defs>
  <g
     inkscape:label="Layer 1"
     inkscape:groupmode="layer"
     id="layer1">
    <text
       xml:space="preserve"
       style="font-style:normal;font-variant:normal;font-weight:normal;font-stretch:normal;font-size:3.08603px;line-height:1.25;font-family:'Latin Modern Roman';-inkscape-font-specification:'Latin Modern Roman, Normal';font-variant-ligatures:normal;font-variant-caps:normal;font-variant-numeric:normal;font-variant-east-asian:normal;text-align:start;text-anchor:start;stroke-width:0.264583"
       x="58.240757"
       y="40.441872"
       id="text75"
       transform="scale(1.000174,0.99982603)"><tspan
         style="font-style:normal;font-variant:normal;font-weight:normal;font-stretch:normal;font-size:3.08603px;font-family:'Latin Modern Roman';-inkscape-font-specification:'Latin Modern Roman, Normal';font-variant-ligatures:normal;font-variant-caps:normal;font-variant-numeric:normal;font-variant-east-asian:normal;text-align:start;text-anchor:start;stroke-width:0.264583"
         x="58.240757"
         y="40.441872"
         id="tspan76"
         sodipodi:role="line" /></text>
    <path
       style="fill:#e9e9f2;stroke:#000000;stroke-width:0.176389;stroke-linecap:butt;stroke-linejoin:miter;stroke-dasharray:none;stroke-opacity:1"
       d="M 53.581089,11.201561 C 44.445857,10.2162 39.483182,14.45926 40.481864,21.214741 c 1.838944,6.913447 9.729018,9.756746 16.239363,9.775144 6.236421,0.05614 12.579566,-0.921673 18.420913,-3.094791 C 81.999627,24.800449 86.433336,15.632231 82.195425,8.8439846 78.085798,3.2237181 69.73458,3.4032086 64.304492,6.9094026 60.934888,8.8071456 57.409847,11.614545 53.581089,11.201561 Z"
       id="path1"
       sodipodi:nodetypes="scccccs" />
    <ellipse
       style="fill:#000000;stroke:#000000;stroke-width:0.352777;stroke-linecap:round;stroke-linejoin:round;stroke-miterlimit:0;stroke-dasharray:none;paint-order:fill markers stroke"
       id="path2"
       cx="66.89402"
       cy="18.079069"
       rx="0.57306957"
       ry="0.5736115" />
    <path
       style="fill:#e9e9f2;stroke:#000000;stroke-width:0.176389;stroke-linecap:butt;stroke-linejoin:miter;stroke-dasharray:none;stroke-opacity:1"
       d="M 111.12787,8.0627296 C 108.5115,16.878816 96.254855,24.691402 99.829839,30.506541 c 4.409561,5.629024 12.781231,5.131329 18.773491,2.581288 5.75527,-2.407354 14.14507,-3.20299 14.08259,-14.750431 -0.0282,-5.21996 7.192,-11.0797454 0.62627,-15.6478223 -8.86888,-5.2504017 -20.37651,-0.7184677 -22.18432,5.3731539 z"
       id="path3"
       sodipodi:nodetypes="sccscs" />
    <ellipse
       style="fill:#000000;stroke:#000000;stroke-width:0.352777;stroke-linecap:round;stroke-linejoin:round;stroke-miterlimit:0;stroke-dasharray:none;paint-order:fill markers stroke"
       id="circle3"
       cx="118.48939"
       cy="11.624002"
       rx="0.57306957"
       ry="0.5736115" />
    <path
       style="fill:none;stroke:#000000;stroke-width:0.141111;stroke-linecap:round;stroke-linejoin:round;stroke-miterlimit:0;stroke-dasharray:1.12889, 0.564444;stroke-dashoffset:0;marker-mid:url(#marker3);paint-order:fill markers stroke"
       d="m 66.894021,18.079071 c 0,0 14.667345,1.013628 26.582928,-8.4409104 19.655431,-15.5958059 24.326231,2.3095144 25.012431,1.9858414"
       id="path4"
       sodipodi:nodetypes="csc" />
    <g
       transform="matrix(0.35284,0,0,0.352716,64.38592,12.428201)"
       ns2:version="1.10.2"
       ns2:texconverter="pdflatex"
       ns2:pdfconverter="inkscape"
       ns2:text="\\(\\bm{X}\\)"
       ns2:preamble="/Users/ali/.config/inkscape/textext_preamble.tex"
       ns2:scale="1.0"
       ns2:alignment="middle center"
       ns2:stroke-to-path="0"
       ns2:inkscapeversion="1.4"
       ns2:jacobian_sqrt="0.3527779945518144"
       style="stroke-width:0"
       id="g74">
      <defs
         id="id-cd6b8414-2a83-4d44-9217-11b659359589"
         style="stroke-width:0">
        <g
           id="id-c74195b3-e2f8-41bf-b4bb-a5eed3beda56"
           style="stroke-width:0">
          <g
             id="id-2c25c084-d39a-48f2-8462-2284d02e4fe3"
             style="stroke-width:0">
            <path
               d="m 6.34375,-4.3125 1.4375,-1.40625 0.6875,-0.6875 c 0.4375,-0.421875 0.5625,-0.546875 1.703125,-0.5625 0.203125,0 0.21875,-0.28125 0.21875,-0.3125 0,-0.0625 -0.04687,-0.203125 -0.21875,-0.203125 -0.375,0 -0.796875,0.03125 -1.1875,0.03125 -0.3125,0 -1.09375,-0.03125 -1.421875,-0.03125 -0.078125,0 -0.296875,0 -0.296875,0.3125 0,0.1875 0.171875,0.203125 0.265625,0.203125 0.328125,0.015625 0.609375,0.09375 0.65625,0.109375 l -2.078125,2.0625 -1,-2.109375 c 0.109375,-0.015625 0.4375,-0.0625 0.625,-0.0625 0.125,0 0.3125,0 0.3125,-0.3125 0,-0.140625 -0.09375,-0.203125 -0.234375,-0.203125 -0.375,0 -1.28125,0.03125 -1.65625,0.03125 -0.25,0 -0.5,0 -0.75,0 -0.25,0 -0.515625,-0.03125 -0.765625,-0.03125 -0.09375,0 -0.3125,0 -0.3125,0.3125 0,0.203125 0.140625,0.203125 0.453125,0.203125 0.15625,0 0.265625,0 0.421875,0.015625 0.15625,0.015625 0.171875,0.03125 0.234375,0.15625 l 1.5,3.15625 L 2.203125,-0.9375 C 2,-0.75 1.78125,-0.53125 0.8125,-0.515625 c -0.203125,0 -0.390625,0 -0.390625,0.3125 C 0.421875,-0.125 0.484375,0 0.640625,0 0.90625,0 1.578125,-0.03125 1.828125,-0.03125 2.15625,-0.03125 2.9375,0 3.25,0 c 0.09375,0 0.3125,0 0.3125,-0.3125 0,-0.203125 -0.203125,-0.203125 -0.296875,-0.203125 -0.21875,0 -0.4375,-0.03125 -0.640625,-0.109375 l 2.546875,-2.53125 1.234375,2.578125 c -0.015625,0 -0.375,0.0625 -0.640625,0.0625 -0.109375,0 -0.3125,0 -0.3125,0.3125 C 5.453125,-0.15625 5.46875,0 5.6875,0 c 0.375,0 1.296875,-0.03125 1.671875,-0.03125 0.25,0 0.5,0.015625 0.75,0.015625 C 8.359375,-0.015625 8.625,0 8.875,0 c 0.09375,0 0.3125,0 0.3125,-0.3125 0,-0.203125 -0.171875,-0.203125 -0.4375,-0.203125 -0.15625,0 -0.265625,0 -0.421875,-0.015625 -0.171875,-0.015625 -0.1875,-0.03125 -0.25,-0.171875 z m 0,0"
               id="id-998bb836-f2d5-4bdc-829f-2f41eda3ca4f"
               style="stroke-width:0" />
          </g>
        </g>
      </defs>
      <g
         fill="#000000"
         fill-opacity="1"
         id="id-1c4b7bf7-70ec-4e4f-a7c9-5a5a566e43ec"
         transform="translate(-143.157,-133.258)"
         style="stroke-width:0">
        <g
           transform="translate(142.735,140.742)"
           style="stroke-width:0"
           id="g3">
          <path
             d="m 6.34375,-4.3125 1.4375,-1.40625 0.6875,-0.6875 c 0.4375,-0.421875 0.5625,-0.546875 1.703125,-0.5625 0.203125,0 0.21875,-0.28125 0.21875,-0.3125 0,-0.0625 -0.04687,-0.203125 -0.21875,-0.203125 -0.375,0 -0.796875,0.03125 -1.1875,0.03125 -0.3125,0 -1.09375,-0.03125 -1.421875,-0.03125 -0.078125,0 -0.296875,0 -0.296875,0.3125 0,0.1875 0.171875,0.203125 0.265625,0.203125 0.328125,0.015625 0.609375,0.09375 0.65625,0.109375 l -2.078125,2.0625 -1,-2.109375 c 0.109375,-0.015625 0.4375,-0.0625 0.625,-0.0625 0.125,0 0.3125,0 0.3125,-0.3125 0,-0.140625 -0.09375,-0.203125 -0.234375,-0.203125 -0.375,0 -1.28125,0.03125 -1.65625,0.03125 -0.25,0 -0.5,0 -0.75,0 -0.25,0 -0.515625,-0.03125 -0.765625,-0.03125 -0.09375,0 -0.3125,0 -0.3125,0.3125 0,0.203125 0.140625,0.203125 0.453125,0.203125 0.15625,0 0.265625,0 0.421875,0.015625 0.15625,0.015625 0.171875,0.03125 0.234375,0.15625 l 1.5,3.15625 L 2.203125,-0.9375 C 2,-0.75 1.78125,-0.53125 0.8125,-0.515625 c -0.203125,0 -0.390625,0 -0.390625,0.3125 C 0.421875,-0.125 0.484375,0 0.640625,0 0.90625,0 1.578125,-0.03125 1.828125,-0.03125 2.15625,-0.03125 2.9375,0 3.25,0 c 0.09375,0 0.3125,0 0.3125,-0.3125 0,-0.203125 -0.203125,-0.203125 -0.296875,-0.203125 -0.21875,0 -0.4375,-0.03125 -0.640625,-0.109375 l 2.546875,-2.53125 1.234375,2.578125 c -0.015625,0 -0.375,0.0625 -0.640625,0.0625 -0.109375,0 -0.3125,0 -0.3125,0.3125 C 5.453125,-0.15625 5.46875,0 5.6875,0 c 0.375,0 1.296875,-0.03125 1.671875,-0.03125 0.25,0 0.5,0.015625 0.75,0.015625 C 8.359375,-0.015625 8.625,0 8.875,0 c 0.09375,0 0.3125,0 0.3125,-0.3125 0,-0.203125 -0.171875,-0.203125 -0.4375,-0.203125 -0.15625,0 -0.265625,0 -0.421875,-0.015625 -0.171875,-0.015625 -0.1875,-0.03125 -0.25,-0.171875 z m 0,0"
             id="id-ed0a4310-d97a-40d0-bda0-4e69163c4e40"
             style="stroke-width:0" />
        </g>
      </g>
    </g>
    <g
       transform="matrix(0.35284,0,0,0.352716,120.9536,9.1048656)"
       ns2:version="1.10.2"
       ns2:texconverter="pdflatex"
       ns2:pdfconverter="inkscape"
       ns2:text="\\(\\bm{x}\\)"
       ns2:preamble="/Users/ali/.config/inkscape/textext_preamble.tex"
       ns2:scale="1.0"
       ns2:alignment="middle center"
       ns2:stroke-to-path="0"
       ns2:inkscapeversion="1.4"
       ns2:jacobian_sqrt="0.3527779945518144"
       style="stroke-width:0"
       id="g68">
      <defs
         id="id-1c378d9c-3ff4-46a3-b0e3-2c55093b3f54"
         style="stroke-width:0">
        <g
           id="id-00c8eaac-a5eb-4721-be8a-c5b54c1f49b4"
           style="stroke-width:0">
          <g
             id="id-521548c1-e6c3-498e-878e-dcfe81a32b6f"
             style="stroke-width:0">
            <path
               d="M 5.84375,-4.375 C 5.453125,-4.265625 5.25,-3.890625 5.25,-3.625 c 0,0.25 0.1875,0.5 0.546875,0.5 0.390625,0 0.796875,-0.3125 0.796875,-0.84375 0,-0.578125 -0.578125,-0.953125 -1.25,-0.953125 -0.625,0 -1.03125,0.46875 -1.171875,0.65625 -0.265625,-0.453125 -0.875,-0.65625 -1.5,-0.65625 -1.375,0 -2.109375,1.328125 -2.109375,1.6875 0,0.15625 0.15625,0.15625 0.25,0.15625 0.140625,0 0.21875,0 0.25,-0.140625 0.328125,-0.984375 1.109375,-1.3125 1.5625,-1.3125 0.40625,0 0.609375,0.1875 0.609375,0.546875 0,0.203125 -0.15625,0.796875 -0.25,1.1875 l -0.375,1.5 C 2.4375,-0.625 2.046875,-0.3125 1.671875,-0.3125 1.625,-0.3125 1.375,-0.3125 1.15625,-0.46875 1.546875,-0.578125 1.75,-0.953125 1.75,-1.21875 c 0,-0.25 -0.1875,-0.5 -0.546875,-0.5 -0.390625,0 -0.78125,0.3125 -0.78125,0.84375 0,0.578125 0.578125,0.96875 1.234375,0.96875 0.625,0 1.03125,-0.46875 1.171875,-0.671875 0.265625,0.453125 0.875,0.671875 1.5,0.671875 1.375,0 2.125,-1.34375 2.125,-1.703125 0,-0.15625 -0.171875,-0.15625 -0.265625,-0.15625 -0.140625,0 -0.203125,0 -0.25,0.140625 -0.328125,1 -1.109375,1.3125 -1.546875,1.3125 -0.421875,0 -0.609375,-0.1875 -0.609375,-0.53125 0,-0.234375 0.140625,-0.8125 0.234375,-1.21875 0.078125,-0.28125 0.328125,-1.3125 0.375,-1.484375 0.171875,-0.65625 0.546875,-0.984375 0.9375,-0.984375 0.046875,0 0.296875,0 0.515625,0.15625 z m 0,0"
               id="id-d3930e7f-d9e7-408d-bbd8-0d6545f7d7bd"
               style="stroke-width:0" />
          </g>
        </g>
      </defs>
      <g
         fill="#000000"
         fill-opacity="1"
         id="id-3a89f610-72d7-4485-a929-f3940e7bb554"
         transform="translate(-143.157,-135.82)"
         style="stroke-width:0">
        <g
           transform="translate(142.735,140.742)"
           style="stroke-width:0"
           id="g4">
          <path
             d="M 5.84375,-4.375 C 5.453125,-4.265625 5.25,-3.890625 5.25,-3.625 c 0,0.25 0.1875,0.5 0.546875,0.5 0.390625,0 0.796875,-0.3125 0.796875,-0.84375 0,-0.578125 -0.578125,-0.953125 -1.25,-0.953125 -0.625,0 -1.03125,0.46875 -1.171875,0.65625 -0.265625,-0.453125 -0.875,-0.65625 -1.5,-0.65625 -1.375,0 -2.109375,1.328125 -2.109375,1.6875 0,0.15625 0.15625,0.15625 0.25,0.15625 0.140625,0 0.21875,0 0.25,-0.140625 0.328125,-0.984375 1.109375,-1.3125 1.5625,-1.3125 0.40625,0 0.609375,0.1875 0.609375,0.546875 0,0.203125 -0.15625,0.796875 -0.25,1.1875 l -0.375,1.5 C 2.4375,-0.625 2.046875,-0.3125 1.671875,-0.3125 1.625,-0.3125 1.375,-0.3125 1.15625,-0.46875 1.546875,-0.578125 1.75,-0.953125 1.75,-1.21875 c 0,-0.25 -0.1875,-0.5 -0.546875,-0.5 -0.390625,0 -0.78125,0.3125 -0.78125,0.84375 0,0.578125 0.578125,0.96875 1.234375,0.96875 0.625,0 1.03125,-0.46875 1.171875,-0.671875 0.265625,0.453125 0.875,0.671875 1.5,0.671875 1.375,0 2.125,-1.34375 2.125,-1.703125 0,-0.15625 -0.171875,-0.15625 -0.265625,-0.15625 -0.140625,0 -0.203125,0 -0.25,0.140625 -0.328125,1 -1.109375,1.3125 -1.546875,1.3125 -0.421875,0 -0.609375,-0.1875 -0.609375,-0.53125 0,-0.234375 0.140625,-0.8125 0.234375,-1.21875 0.078125,-0.28125 0.328125,-1.3125 0.375,-1.484375 0.171875,-0.65625 0.546875,-0.984375 0.9375,-0.984375 0.046875,0 0.296875,0 0.515625,0.15625 z m 0,0"
             id="id-9748da7a-3b75-4387-81cf-4532c9059748"
             style="stroke-width:0" />
        </g>
      </g>
    </g>
    <path
       style="opacity:0.5;fill:none;stroke:#000000;stroke-width:0.176389;stroke-linecap:round;stroke-linejoin:round;stroke-miterlimit:0;stroke-dasharray:none;stroke-dashoffset:0;marker-end:url(#Square);paint-order:fill markers stroke"
       d="m 67.228174,30.076337 1.122434,5.980598"
       id="path13"
       sodipodi:nodetypes="cc" />
    <text
       xml:space="preserve"
       style="font-size:3.88056px;line-height:1.25;font-family:'Latin Modern Roman';-inkscape-font-specification:'Latin Modern Roman, Normal';text-align:start;text-anchor:start;stroke-width:0.264583"
       x="45.84724"
       y="40.056244"
       id="text13"><tspan
         style="text-align:start;text-anchor:start;stroke-width:0.264583"
         x="45.84724"
         y="40.056244"
         id="tspan14"
         sodipodi:role="line">Either the <tspan
   style="font-style:italic"
   id="tspan1">whole system</tspan> or</tspan><tspan
         style="text-align:start;text-anchor:start;stroke-width:0.264583"
         x="45.84724"
         y="44.906944"
         sodipodi:role="line"
         id="tspan15"><tspan
   style="font-style:italic"
   id="tspan2">any</tspan> free body diagram</tspan></text>
    <g
       transform="matrix(0.35284 0 0 0.352716 92.6565 3.17903)"
       ns2:version="1.10.2"
       ns2:texconverter="pdflatex"
       ns2:pdfconverter="inkscape"
       ns2:text="\\(\\mb{\\chi}_t\\)"
       ns2:preamble="/Users/ali/Library/Application Support/org.inkscape.Inkscape/config/inkscape/extensions/textext/default_packages.tex"
       ns2:scale="1.0"
       ns2:alignment="middle center"
       ns2:stroke-to-path="0"
       ns2:inkscapeversion="1.4"
       ns2:jacobian_sqrt="0.3527779945518144"
       style="stroke-width:0"
       id="g6">
      <defs
         id="id-e9960870-8be3-4638-92c2-9c0a9c482fb2"
         style="stroke-width:0">
        <g
           id="id-86df69c0-5b92-4b41-bab8-a6aede93f075"
           style="stroke-width:0">
          <g
             id="id-68990151-7126-4cf5-a817-502876b2e1e4"
             style="stroke-width:0">
            <path
               d="m 6.359375,-4.390625 c 0.125,-0.125 0.125,-0.140625 0.125,-0.171875 0,-0.078125 -0.046875,-0.140625 -0.140625,-0.140625 -0.0625,0 -0.109375,0.0625 -0.171875,0.140625 l -2.5,2.78125 c -0.4375,-1.390625 -0.515625,-1.671875 -0.765625,-2.25 -0.125,-0.25 -0.359375,-0.796875 -1.328125,-0.796875 -0.625,0 -0.90625,0.578125 -0.90625,0.734375 0,0 0,0.109375 0.125,0.109375 0.09375,0 0.125,-0.078125 0.140625,-0.125 0.15625,-0.421875 0.515625,-0.46875 0.578125,-0.46875 0.328125,0 0.65625,0.828125 0.84375,1.3125 0.34375,0.859375 0.6875,2.125 0.6875,2.15625 0,0.015625 0,0.03125 -0.078125,0.109375 L 0.453125,1.8125 C 0.34375,1.9375 0.34375,1.953125 0.34375,1.984375 c 0,0.0625 0.0625,0.125 0.125,0.125 0.078125,0 0.125,-0.0625 0.171875,-0.109375 l 2.5,-2.8125 C 3.484375,0.328125 3.625,0.75 3.875,1.359375 c 0.15625,0.328125 0.390625,0.875 1.359375,0.875 0.640625,0 0.921875,-0.5625 0.921875,-0.703125 0,-0.0625 -0.015625,-0.125 -0.125,-0.125 -0.109375,0 -0.125,0.046875 -0.15625,0.15625 C 5.78125,1.828125 5.5,2 5.296875,2 4.75,2 4,-0.640625 3.765625,-1.484375 Z m 0,0"
               id="id-a554a2f1-c9a0-42f2-8595-bb516df677ff"
               style="stroke-width:0" />
          </g>
          <g
             id="id-62faeaca-3a9f-447a-b0fd-8d5f1bc5d90b"
             style="stroke-width:0">
            <path
               d="m 1.765625,-3.171875 h 0.78125 c 0.140625,0 0.234375,0 0.234375,-0.15625 C 2.78125,-3.4375 2.6875,-3.4375 2.546875,-3.4375 h -0.71875 l 0.28125,-1.125 c 0.03125,-0.125 0.03125,-0.15625 0.03125,-0.171875 0,-0.171875 -0.125,-0.25 -0.265625,-0.25 -0.265625,0 -0.328125,0.21875 -0.40625,0.578125 l -0.25,0.96875 H 0.453125 c -0.15625,0 -0.25,0 -0.25,0.15625 0,0.109375 0.09375,0.109375 0.234375,0.109375 h 0.71875 l -0.484375,1.90625 C 0.625,-1.0625 0.5625,-0.78125 0.5625,-0.671875 c 0,0.484375 0.390625,0.75 0.8125,0.75 0.84375,0 1.328125,-1.125 1.328125,-1.21875 C 2.703125,-1.234375 2.640625,-1.25 2.59375,-1.25 2.5,-1.25 2.5,-1.21875 2.4375,-1.09375 2.28125,-0.703125 1.875,-0.140625 1.390625,-0.140625 1.234375,-0.140625 1.125,-0.25 1.125,-0.515625 c 0,-0.15625 0.03125,-0.234375 0.046875,-0.34375 z m 0,0"
               id="id-8d27bb27-96f8-4b6b-9515-726eceac6ed5"
               style="stroke-width:0" />
          </g>
        </g>
      </defs>
      <g
         fill="#000000"
         fill-opacity="1"
         id="id-1d2b95d8-ebce-4190-9f11-1d7bdfa16d16"
         transform="translate(-143.079, -135.914)"
         style="stroke-width:0">
        <g
           transform="translate(142.735, 140.742)"
           style="stroke-width:0"
           id="g1">
          <path
             d="m 6.359375,-4.390625 c 0.125,-0.125 0.125,-0.140625 0.125,-0.171875 0,-0.078125 -0.046875,-0.140625 -0.140625,-0.140625 -0.0625,0 -0.109375,0.0625 -0.171875,0.140625 l -2.5,2.78125 c -0.4375,-1.390625 -0.515625,-1.671875 -0.765625,-2.25 -0.125,-0.25 -0.359375,-0.796875 -1.328125,-0.796875 -0.625,0 -0.90625,0.578125 -0.90625,0.734375 0,0 0,0.109375 0.125,0.109375 0.09375,0 0.125,-0.078125 0.140625,-0.125 0.15625,-0.421875 0.515625,-0.46875 0.578125,-0.46875 0.328125,0 0.65625,0.828125 0.84375,1.3125 0.34375,0.859375 0.6875,2.125 0.6875,2.15625 0,0.015625 0,0.03125 -0.078125,0.109375 L 0.453125,1.8125 C 0.34375,1.9375 0.34375,1.953125 0.34375,1.984375 c 0,0.0625 0.0625,0.125 0.125,0.125 0.078125,0 0.125,-0.0625 0.171875,-0.109375 l 2.5,-2.8125 C 3.484375,0.328125 3.625,0.75 3.875,1.359375 c 0.15625,0.328125 0.390625,0.875 1.359375,0.875 0.640625,0 0.921875,-0.5625 0.921875,-0.703125 0,-0.0625 -0.015625,-0.125 -0.125,-0.125 -0.109375,0 -0.125,0.046875 -0.15625,0.15625 C 5.78125,1.828125 5.5,2 5.296875,2 4.75,2 4,-0.640625 3.765625,-1.484375 Z m 0,0"
             id="id-83e6c959-eac3-4ea7-89ae-af3702628a00"
             style="stroke-width:0" />
        </g>
      </g>
      <g
         fill="#000000"
         fill-opacity="1"
         id="id-1cb3ee90-5576-4867-af2c-e4107cddcec8"
         transform="translate(-143.079, -135.914)"
         style="stroke-width:0">
        <g
           transform="translate(149.56, 142.379)"
           style="stroke-width:0"
           id="g2">
          <path
             d="m 1.765625,-3.171875 h 0.78125 c 0.140625,0 0.234375,0 0.234375,-0.15625 C 2.78125,-3.4375 2.6875,-3.4375 2.546875,-3.4375 h -0.71875 l 0.28125,-1.125 c 0.03125,-0.125 0.03125,-0.15625 0.03125,-0.171875 0,-0.171875 -0.125,-0.25 -0.265625,-0.25 -0.265625,0 -0.328125,0.21875 -0.40625,0.578125 l -0.25,0.96875 H 0.453125 c -0.15625,0 -0.25,0 -0.25,0.15625 0,0.109375 0.09375,0.109375 0.234375,0.109375 h 0.71875 l -0.484375,1.90625 C 0.625,-1.0625 0.5625,-0.78125 0.5625,-0.671875 c 0,0.484375 0.390625,0.75 0.8125,0.75 0.84375,0 1.328125,-1.125 1.328125,-1.21875 C 2.703125,-1.234375 2.640625,-1.25 2.59375,-1.25 2.5,-1.25 2.5,-1.21875 2.4375,-1.09375 2.28125,-0.703125 1.875,-0.140625 1.390625,-0.140625 1.234375,-0.140625 1.125,-0.25 1.125,-0.515625 c 0,-0.15625 0.03125,-0.234375 0.046875,-0.34375 z m 0,0"
             id="id-8d8f8816-0b22-416b-81dc-3ce9446898df"
             style="stroke-width:0" />
        </g>
      </g>
    </g>
    <g
       transform="matrix(0.352839 0 0 0.352717 106.12 25.3157)"
       ns2:version="1.10.2"
       ns2:texconverter="pdflatex"
       ns2:pdfconverter="inkscape"
       ns2:text="\\(\\mathcal{R}\\)"
       ns2:preamble="/Users/ali/Library/Application Support/org.inkscape.Inkscape/config/inkscape/extensions/textext/default_packages.tex"
       ns2:scale="1.0"
       ns2:alignment="middle center"
       ns2:stroke-to-path="0"
       ns2:inkscapeversion="1.4"
       ns2:jacobian_sqrt="0.35277799472614507"
       style="stroke-width:0"
       id="g38">
      <defs
         id="id-2b54204c-8551-4adf-a52b-55e9e715b60b"
         style="stroke-width:0">
        <g
           id="id-06dcfb35-f8a1-4ef3-a9de-3f62a2e6e976"
           style="stroke-width:0">
          <g
             id="id-10183772-939f-4900-856e-8ab1bba58036"
             style="stroke-width:0">
            <path
               d="m 4.421875,-6.84375 c 2.09375,0 2.640625,0.5 2.640625,1.234375 0,0.65625 -0.53125,1.96875 -2.328125,2.03125 -0.53125,0.015625 -0.90625,0.40625 -0.90625,0.53125 0,0.0625 0.046875,0.0625 0.046875,0.0625 0.46875,0.078125 0.6875,0.296875 1.25,1.578125 0.5,1.140625 0.78125,1.640625 1.421875,1.640625 1.328125,0 2.578125,-1.328125 2.578125,-1.578125 0,-0.078125 -0.078125,-0.078125 -0.109375,-0.078125 -0.140625,0 -0.5625,0.15625 -0.796875,0.46875 -0.171875,0.25 -0.40625,0.59375 -0.9375,0.59375 -0.5625,0 -0.90625,-0.78125 -1.265625,-1.625 -0.234375,-0.546875 -0.4375,-0.953125 -0.6875,-1.25 1.59375,-0.578125 2.65625,-1.71875 2.65625,-2.84375 0,-1.375 -1.828125,-1.375 -3.484375,-1.375 -1.09375,0 -1.703125,0 -2.609375,0.390625 -1.46875,0.65625 -1.65625,1.5625 -1.65625,1.640625 0,0.0625 0.03125,0.09375 0.109375,0.09375 0.171875,0 0.421875,-0.15625 0.5,-0.21875 0.234375,-0.140625 0.265625,-0.21875 0.328125,-0.421875 0.15625,-0.4375 0.46875,-0.8125 1.84375,-0.875 -0.0625,0.65625 -0.15625,1.671875 -0.53125,3.265625 C 2.1875,-2.359375 1.78125,-1.15625 1.3125,0.015625 1.25,0.125 1.25,0.15625 1.25,0.15625 c 0,0.078125 0.09375,0.078125 0.109375,0.078125 0.21875,0 0.6875,-0.25 0.796875,-0.46875 0.03125,-0.046875 1.40625,-3.125 1.75,-6.609375 z m 0,0"
               id="id-16fcbd23-0746-4aa0-b66b-106742fca51d"
               style="stroke-width:0" />
          </g>
        </g>
      </defs>
      <g
         fill="#000000"
         fill-opacity="1"
         id="id-1fea7387-6b96-4a4d-8aa8-3fcc838aa8e0"
         transform="translate(-142.969, -133.289)"
         style="stroke-width:0">
        <g
           transform="translate(142.735, 140.742)"
           style="stroke-width:0"
           id="g11">
          <path
             d="m 4.421875,-6.84375 c 2.09375,0 2.640625,0.5 2.640625,1.234375 0,0.65625 -0.53125,1.96875 -2.328125,2.03125 -0.53125,0.015625 -0.90625,0.40625 -0.90625,0.53125 0,0.0625 0.046875,0.0625 0.046875,0.0625 0.46875,0.078125 0.6875,0.296875 1.25,1.578125 0.5,1.140625 0.78125,1.640625 1.421875,1.640625 1.328125,0 2.578125,-1.328125 2.578125,-1.578125 0,-0.078125 -0.078125,-0.078125 -0.109375,-0.078125 -0.140625,0 -0.5625,0.15625 -0.796875,0.46875 -0.171875,0.25 -0.40625,0.59375 -0.9375,0.59375 -0.5625,0 -0.90625,-0.78125 -1.265625,-1.625 -0.234375,-0.546875 -0.4375,-0.953125 -0.6875,-1.25 1.59375,-0.578125 2.65625,-1.71875 2.65625,-2.84375 0,-1.375 -1.828125,-1.375 -3.484375,-1.375 -1.09375,0 -1.703125,0 -2.609375,0.390625 -1.46875,0.65625 -1.65625,1.5625 -1.65625,1.640625 0,0.0625 0.03125,0.09375 0.109375,0.09375 0.171875,0 0.421875,-0.15625 0.5,-0.21875 0.234375,-0.140625 0.265625,-0.21875 0.328125,-0.421875 0.15625,-0.4375 0.46875,-0.8125 1.84375,-0.875 -0.0625,0.65625 -0.15625,1.671875 -0.53125,3.265625 C 2.1875,-2.359375 1.78125,-1.15625 1.3125,0.015625 1.25,0.125 1.25,0.15625 1.25,0.15625 c 0,0.078125 0.09375,0.078125 0.109375,0.078125 0.21875,0 0.6875,-0.25 0.796875,-0.46875 0.03125,-0.046875 1.40625,-3.125 1.75,-6.609375 z m 0,0"
             id="id-a9f10288-1925-49ec-b89c-c7492a215a79"
             style="stroke-width:0" />
        </g>
      </g>
    </g>
    <g
       transform="matrix(0.352839 0 0 0.352717 92.1619 25.2523)"
       ns2:version="1.10.2"
       ns2:texconverter="pdflatex"
       ns2:pdfconverter="inkscape"
       ns2:text="\\(\\partial \\mathcal{R}\\)"
       ns2:preamble="/Users/ali/Library/Application Support/org.inkscape.Inkscape/config/inkscape/extensions/textext/default_packages.tex"
       ns2:scale="1.0"
       ns2:alignment="middle center"
       ns2:stroke-to-path="0"
       ns2:inkscapeversion="1.4"
       ns2:jacobian_sqrt="0.35277799472614507"
       style="stroke-width:0"
       id="g51">
      <defs
         id="id-4e049cee-6904-4c5e-9f47-f1cc30d6a3e3"
         style="stroke-width:0">
        <g
           id="id-94160996-55eb-487d-8fed-1fd566295f9e"
           style="stroke-width:0">
          <g
             id="id-5a845d8d-c43b-4c0f-8987-33063bcccbf4"
             style="stroke-width:0">
            <path
               d="M 5.046875,-3.703125 C 4.9375,-4.375 4.5,-4.984375 3.640625,-4.984375 c -0.65625,0 -1.375,0.171875 -2.21875,1.03125 -0.90625,0.90625 -0.984375,1.90625 -0.984375,2.25 0,0.671875 0.484375,1.9375 2,1.9375 2.59375,0 3.734375,-3.65625 3.734375,-5.21875 0,-1.734375 -1.015625,-2.828125 -2.359375,-2.828125 -1.578125,0 -2.078125,1.421875 -2.078125,1.734375 0,0.140625 0.09375,0.375 0.421875,0.375 0.359375,0 0.578125,-0.328125 0.578125,-0.578125 0,-0.375 -0.328125,-0.375 -0.515625,-0.375 0.484375,-0.8125 1.265625,-0.875 1.578125,-0.875 0.796875,0 1.5625,0.5625 1.5625,1.96875 0,0.421875 -0.0625,0.984375 -0.296875,1.859375 z M 2.46875,-0.0625 c -1.1875,0 -1.1875,-1.125 -1.1875,-1.234375 C 1.28125,-1.59375 1.546875,-3.125 2,-3.78125 2.4375,-4.390625 2.96875,-4.75 3.640625,-4.75 c 1.1875,0 1.21875,1.234375 1.21875,1.453125 0,0.78125 -0.703125,3.234375 -2.390625,3.234375 z m 0,0"
               id="id-228a71a1-4cc6-4f88-b5fa-4f6de227fc39"
               style="stroke-width:0" />
          </g>
          <g
             id="id-0a8d6e72-ac4e-4df4-af22-71764813e38a"
             style="stroke-width:0">
            <path
               d="m 4.421875,-6.84375 c 2.09375,0 2.640625,0.5 2.640625,1.234375 0,0.65625 -0.53125,1.96875 -2.328125,2.03125 -0.53125,0.015625 -0.90625,0.40625 -0.90625,0.53125 0,0.0625 0.046875,0.0625 0.046875,0.0625 0.46875,0.078125 0.6875,0.296875 1.25,1.578125 0.5,1.140625 0.78125,1.640625 1.421875,1.640625 1.328125,0 2.578125,-1.328125 2.578125,-1.578125 0,-0.078125 -0.078125,-0.078125 -0.109375,-0.078125 -0.140625,0 -0.5625,0.15625 -0.796875,0.46875 -0.171875,0.25 -0.40625,0.59375 -0.9375,0.59375 -0.5625,0 -0.90625,-0.78125 -1.265625,-1.625 -0.234375,-0.546875 -0.4375,-0.953125 -0.6875,-1.25 1.59375,-0.578125 2.65625,-1.71875 2.65625,-2.84375 0,-1.375 -1.828125,-1.375 -3.484375,-1.375 -1.09375,0 -1.703125,0 -2.609375,0.390625 -1.46875,0.65625 -1.65625,1.5625 -1.65625,1.640625 0,0.0625 0.03125,0.09375 0.109375,0.09375 0.171875,0 0.421875,-0.15625 0.5,-0.21875 0.234375,-0.140625 0.265625,-0.21875 0.328125,-0.421875 0.15625,-0.4375 0.46875,-0.8125 1.84375,-0.875 -0.0625,0.65625 -0.15625,1.671875 -0.53125,3.265625 C 2.1875,-2.359375 1.78125,-1.15625 1.3125,0.015625 1.25,0.125 1.25,0.15625 1.25,0.15625 c 0,0.078125 0.09375,0.078125 0.109375,0.078125 0.21875,0 0.6875,-0.25 0.796875,-0.46875 0.03125,-0.046875 1.40625,-3.125 1.75,-6.609375 z m 0,0"
               id="id-b8f816b8-1231-43c9-b09c-54a84c799ada"
               style="stroke-width:0" />
          </g>
        </g>
      </defs>
      <g
         fill="#000000"
         fill-opacity="1"
         id="id-a70baea5-3281-4203-81a0-df88a3ab9a4f"
         transform="translate(-143.173, -132.929)"
         style="stroke-width:0">
        <g
           transform="translate(142.735, 140.742)"
           style="stroke-width:0"
           id="g14">
          <path
             d="M 5.046875,-3.703125 C 4.9375,-4.375 4.5,-4.984375 3.640625,-4.984375 c -0.65625,0 -1.375,0.171875 -2.21875,1.03125 -0.90625,0.90625 -0.984375,1.90625 -0.984375,2.25 0,0.671875 0.484375,1.9375 2,1.9375 2.59375,0 3.734375,-3.65625 3.734375,-5.21875 0,-1.734375 -1.015625,-2.828125 -2.359375,-2.828125 -1.578125,0 -2.078125,1.421875 -2.078125,1.734375 0,0.140625 0.09375,0.375 0.421875,0.375 0.359375,0 0.578125,-0.328125 0.578125,-0.578125 0,-0.375 -0.328125,-0.375 -0.515625,-0.375 0.484375,-0.8125 1.265625,-0.875 1.578125,-0.875 0.796875,0 1.5625,0.5625 1.5625,1.96875 0,0.421875 -0.0625,0.984375 -0.296875,1.859375 z M 2.46875,-0.0625 c -1.1875,0 -1.1875,-1.125 -1.1875,-1.234375 C 1.28125,-1.59375 1.546875,-3.125 2,-3.78125 2.4375,-4.390625 2.96875,-4.75 3.640625,-4.75 c 1.1875,0 1.21875,1.234375 1.21875,1.453125 0,0.78125 -0.703125,3.234375 -2.390625,3.234375 z m 0,0"
             id="id-7bdbc4ae-6881-4d1a-8b59-293a21ec17d1"
             style="stroke-width:0" />
        </g>
      </g>
      <g
         fill="#000000"
         fill-opacity="1"
         id="id-27eaa193-8805-4f3f-8ae5-9f8ec4566e28"
         transform="translate(-143.173, -132.929)"
         style="stroke-width:0">
        <g
           transform="translate(149.132, 140.742)"
           style="stroke-width:0"
           id="g15">
          <path
             d="m 4.421875,-6.84375 c 2.09375,0 2.640625,0.5 2.640625,1.234375 0,0.65625 -0.53125,1.96875 -2.328125,2.03125 -0.53125,0.015625 -0.90625,0.40625 -0.90625,0.53125 0,0.0625 0.046875,0.0625 0.046875,0.0625 0.46875,0.078125 0.6875,0.296875 1.25,1.578125 0.5,1.140625 0.78125,1.640625 1.421875,1.640625 1.328125,0 2.578125,-1.328125 2.578125,-1.578125 0,-0.078125 -0.078125,-0.078125 -0.109375,-0.078125 -0.140625,0 -0.5625,0.15625 -0.796875,0.46875 -0.171875,0.25 -0.40625,0.59375 -0.9375,0.59375 -0.5625,0 -0.90625,-0.78125 -1.265625,-1.625 -0.234375,-0.546875 -0.4375,-0.953125 -0.6875,-1.25 1.59375,-0.578125 2.65625,-1.71875 2.65625,-2.84375 0,-1.375 -1.828125,-1.375 -3.484375,-1.375 -1.09375,0 -1.703125,0 -2.609375,0.390625 -1.46875,0.65625 -1.65625,1.5625 -1.65625,1.640625 0,0.0625 0.03125,0.09375 0.109375,0.09375 0.171875,0 0.421875,-0.15625 0.5,-0.21875 0.234375,-0.140625 0.265625,-0.21875 0.328125,-0.421875 0.15625,-0.4375 0.46875,-0.8125 1.84375,-0.875 -0.0625,0.65625 -0.15625,1.671875 -0.53125,3.265625 C 2.1875,-2.359375 1.78125,-1.15625 1.3125,0.015625 1.25,0.125 1.25,0.15625 1.25,0.15625 c 0,0.078125 0.09375,0.078125 0.109375,0.078125 0.21875,0 0.6875,-0.25 0.796875,-0.46875 0.03125,-0.046875 1.40625,-3.125 1.75,-6.609375 z m 0,0"
             id="id-fe875e12-bf39-427b-8d84-df06ab62b67d"
             style="stroke-width:0" />
        </g>
      </g>
    </g>
    <g
       transform="matrix(0.352839 0 0 0.352717 49.1811 23.9777)"
       ns2:version="1.10.2"
       ns2:texconverter="pdflatex"
       ns2:pdfconverter="inkscape"
       ns2:text="\\(\\mathcal{R}_0\\)"
       ns2:preamble="/Users/ali/Library/Application Support/org.inkscape.Inkscape/config/inkscape/extensions/textext/default_packages.tex"
       ns2:scale="1.0"
       ns2:alignment="middle center"
       ns2:stroke-to-path="0"
       ns2:inkscapeversion="1.4"
       ns2:jacobian_sqrt="0.35277799472614507"
       style="stroke-width:0"
       id="g18">
      <defs
         id="id-85dd2135-ff97-4429-9fdd-a4f4c5700e9c"
         style="stroke-width:0">
        <g
           id="id-42c46af9-bbc5-4f99-9a2b-077498c2a6d8"
           style="stroke-width:0">
          <g
             id="id-d21503ea-89a2-42a4-9482-0aa294865dd4"
             style="stroke-width:0">
            <path
               d="m 4.421875,-6.84375 c 2.09375,0 2.640625,0.5 2.640625,1.234375 0,0.65625 -0.53125,1.96875 -2.328125,2.03125 -0.53125,0.015625 -0.90625,0.40625 -0.90625,0.53125 0,0.0625 0.046875,0.0625 0.046875,0.0625 0.46875,0.078125 0.6875,0.296875 1.25,1.578125 0.5,1.140625 0.78125,1.640625 1.421875,1.640625 1.328125,0 2.578125,-1.328125 2.578125,-1.578125 0,-0.078125 -0.078125,-0.078125 -0.109375,-0.078125 -0.140625,0 -0.5625,0.15625 -0.796875,0.46875 -0.171875,0.25 -0.40625,0.59375 -0.9375,0.59375 -0.5625,0 -0.90625,-0.78125 -1.265625,-1.625 -0.234375,-0.546875 -0.4375,-0.953125 -0.6875,-1.25 1.59375,-0.578125 2.65625,-1.71875 2.65625,-2.84375 0,-1.375 -1.828125,-1.375 -3.484375,-1.375 -1.09375,0 -1.703125,0 -2.609375,0.390625 -1.46875,0.65625 -1.65625,1.5625 -1.65625,1.640625 0,0.0625 0.03125,0.09375 0.109375,0.09375 0.171875,0 0.421875,-0.15625 0.5,-0.21875 0.234375,-0.140625 0.265625,-0.21875 0.328125,-0.421875 0.15625,-0.4375 0.46875,-0.8125 1.84375,-0.875 -0.0625,0.65625 -0.15625,1.671875 -0.53125,3.265625 C 2.1875,-2.359375 1.78125,-1.15625 1.3125,0.015625 1.25,0.125 1.25,0.15625 1.25,0.15625 c 0,0.078125 0.09375,0.078125 0.109375,0.078125 0.21875,0 0.6875,-0.25 0.796875,-0.46875 0.03125,-0.046875 1.40625,-3.125 1.75,-6.609375 z m 0,0"
               id="id-3b5a32ae-7c3c-40cb-8595-4dd00f3ef70a"
               style="stroke-width:0" />
          </g>
          <g
             id="id-98899e1f-3d15-49dd-8f22-dbb00a0bd8f8"
             style="stroke-width:0">
            <path
               d="m 3.890625,-2.546875 c 0,-0.84375 -0.078125,-1.359375 -0.34375,-1.875 -0.34375,-0.703125 -1,-0.875 -1.4375,-0.875 -1,0 -1.375,0.75 -1.484375,0.96875 -0.28125,0.578125 -0.296875,1.375 -0.296875,1.78125 0,0.53125 0.015625,1.328125 0.40625,1.96875 0.359375,0.59375 0.953125,0.75 1.375,0.75 0.390625,0 1.0625,-0.125 1.46875,-0.90625 0.296875,-0.578125 0.3125,-1.296875 0.3125,-1.8125 z M 2.109375,-0.0625 C 1.84375,-0.0625 1.296875,-0.1875 1.125,-1.015625 1.03125,-1.46875 1.03125,-2.21875 1.03125,-2.640625 1.03125,-3.1875 1.03125,-3.75 1.125,-4.1875 1.296875,-5 1.90625,-5.078125 2.109375,-5.078125 c 0.265625,0 0.828125,0.140625 0.984375,0.859375 0.09375,0.4375 0.09375,1.046875 0.09375,1.578125 0,0.46875 0,1.1875 -0.09375,1.640625 -0.171875,0.828125 -0.71875,0.9375 -0.984375,0.9375 z m 0,0"
               id="id-39c69712-86c9-4ae1-bcc3-a7df6d5fc4e6"
               style="stroke-width:0" />
          </g>
        </g>
      </defs>
      <g
         fill="#000000"
         fill-opacity="1"
         id="id-0a6b313c-998f-48d7-bb9d-e21ff5397263"
         transform="translate(-142.969, -133.289)"
         style="stroke-width:0">
        <g
           transform="translate(142.735, 140.742)"
           style="stroke-width:0"
           id="g16">
          <path
             d="m 4.421875,-6.84375 c 2.09375,0 2.640625,0.5 2.640625,1.234375 0,0.65625 -0.53125,1.96875 -2.328125,2.03125 -0.53125,0.015625 -0.90625,0.40625 -0.90625,0.53125 0,0.0625 0.046875,0.0625 0.046875,0.0625 0.46875,0.078125 0.6875,0.296875 1.25,1.578125 0.5,1.140625 0.78125,1.640625 1.421875,1.640625 1.328125,0 2.578125,-1.328125 2.578125,-1.578125 0,-0.078125 -0.078125,-0.078125 -0.109375,-0.078125 -0.140625,0 -0.5625,0.15625 -0.796875,0.46875 -0.171875,0.25 -0.40625,0.59375 -0.9375,0.59375 -0.5625,0 -0.90625,-0.78125 -1.265625,-1.625 -0.234375,-0.546875 -0.4375,-0.953125 -0.6875,-1.25 1.59375,-0.578125 2.65625,-1.71875 2.65625,-2.84375 0,-1.375 -1.828125,-1.375 -3.484375,-1.375 -1.09375,0 -1.703125,0 -2.609375,0.390625 -1.46875,0.65625 -1.65625,1.5625 -1.65625,1.640625 0,0.0625 0.03125,0.09375 0.109375,0.09375 0.171875,0 0.421875,-0.15625 0.5,-0.21875 0.234375,-0.140625 0.265625,-0.21875 0.328125,-0.421875 0.15625,-0.4375 0.46875,-0.8125 1.84375,-0.875 -0.0625,0.65625 -0.15625,1.671875 -0.53125,3.265625 C 2.1875,-2.359375 1.78125,-1.15625 1.3125,0.015625 1.25,0.125 1.25,0.15625 1.25,0.15625 c 0,0.078125 0.09375,0.078125 0.109375,0.078125 0.21875,0 0.6875,-0.25 0.796875,-0.46875 0.03125,-0.046875 1.40625,-3.125 1.75,-6.609375 z m 0,0"
             id="id-f4af914e-5942-44eb-9066-fd60412af5cf"
             style="stroke-width:0" />
        </g>
      </g>
      <g
         fill="#000000"
         fill-opacity="1"
         id="id-41d1ce4c-8f6f-41b1-8582-aaff4884a49d"
         transform="translate(-142.969, -133.289)"
         style="stroke-width:0">
        <g
           transform="translate(151.98, 142.379)"
           style="stroke-width:0"
           id="g17">
          <path
             d="m 3.890625,-2.546875 c 0,-0.84375 -0.078125,-1.359375 -0.34375,-1.875 -0.34375,-0.703125 -1,-0.875 -1.4375,-0.875 -1,0 -1.375,0.75 -1.484375,0.96875 -0.28125,0.578125 -0.296875,1.375 -0.296875,1.78125 0,0.53125 0.015625,1.328125 0.40625,1.96875 0.359375,0.59375 0.953125,0.75 1.375,0.75 0.390625,0 1.0625,-0.125 1.46875,-0.90625 0.296875,-0.578125 0.3125,-1.296875 0.3125,-1.8125 z M 2.109375,-0.0625 C 1.84375,-0.0625 1.296875,-0.1875 1.125,-1.015625 1.03125,-1.46875 1.03125,-2.21875 1.03125,-2.640625 1.03125,-3.1875 1.03125,-3.75 1.125,-4.1875 1.296875,-5 1.90625,-5.078125 2.109375,-5.078125 c 0.265625,0 0.828125,0.140625 0.984375,0.859375 0.09375,0.4375 0.09375,1.046875 0.09375,1.578125 0,0.46875 0,1.1875 -0.09375,1.640625 -0.171875,0.828125 -0.71875,0.9375 -0.984375,0.9375 z m 0,0"
             id="id-2d1c88f9-e0c1-4d67-b7f0-c568afd0930d"
             style="stroke-width:0" />
        </g>
      </g>
    </g>
    <g
       transform="matrix(0.352839 0 0 0.352717 33.6713 23.6367)"
       ns2:version="1.10.2"
       ns2:texconverter="pdflatex"
       ns2:pdfconverter="inkscape"
       ns2:text="\\(\\partial \\mathcal{R}_0\\)"
       ns2:preamble="/Users/ali/Library/Application Support/org.inkscape.Inkscape/config/inkscape/extensions/textext/default_packages.tex"
       ns2:scale="1.0"
       ns2:alignment="middle center"
       ns2:stroke-to-path="0"
       ns2:inkscapeversion="1.4"
       ns2:jacobian_sqrt="0.35277799472614507"
       style="stroke-width:0"
       id="g27">
      <defs
         id="id-a99b8fd4-7a61-4913-b99e-22856093770a"
         style="stroke-width:0">
        <g
           id="id-c18e6444-3364-411e-b292-44fad18857fb"
           style="stroke-width:0">
          <g
             id="id-99af1a89-fbb3-433e-8d01-b300db5fe502"
             style="stroke-width:0">
            <path
               d="M 5.046875,-3.703125 C 4.9375,-4.375 4.5,-4.984375 3.640625,-4.984375 c -0.65625,0 -1.375,0.171875 -2.21875,1.03125 -0.90625,0.90625 -0.984375,1.90625 -0.984375,2.25 0,0.671875 0.484375,1.9375 2,1.9375 2.59375,0 3.734375,-3.65625 3.734375,-5.21875 0,-1.734375 -1.015625,-2.828125 -2.359375,-2.828125 -1.578125,0 -2.078125,1.421875 -2.078125,1.734375 0,0.140625 0.09375,0.375 0.421875,0.375 0.359375,0 0.578125,-0.328125 0.578125,-0.578125 0,-0.375 -0.328125,-0.375 -0.515625,-0.375 0.484375,-0.8125 1.265625,-0.875 1.578125,-0.875 0.796875,0 1.5625,0.5625 1.5625,1.96875 0,0.421875 -0.0625,0.984375 -0.296875,1.859375 z M 2.46875,-0.0625 c -1.1875,0 -1.1875,-1.125 -1.1875,-1.234375 C 1.28125,-1.59375 1.546875,-3.125 2,-3.78125 2.4375,-4.390625 2.96875,-4.75 3.640625,-4.75 c 1.1875,0 1.21875,1.234375 1.21875,1.453125 0,0.78125 -0.703125,3.234375 -2.390625,3.234375 z m 0,0"
               id="id-c484d923-de6c-4db3-be7a-f9bac58c1059"
               style="stroke-width:0" />
          </g>
          <g
             id="id-159063a9-c9e1-4735-8a23-c326fe70c355"
             style="stroke-width:0">
            <path
               d="m 4.421875,-6.84375 c 2.09375,0 2.640625,0.5 2.640625,1.234375 0,0.65625 -0.53125,1.96875 -2.328125,2.03125 -0.53125,0.015625 -0.90625,0.40625 -0.90625,0.53125 0,0.0625 0.046875,0.0625 0.046875,0.0625 0.46875,0.078125 0.6875,0.296875 1.25,1.578125 0.5,1.140625 0.78125,1.640625 1.421875,1.640625 1.328125,0 2.578125,-1.328125 2.578125,-1.578125 0,-0.078125 -0.078125,-0.078125 -0.109375,-0.078125 -0.140625,0 -0.5625,0.15625 -0.796875,0.46875 -0.171875,0.25 -0.40625,0.59375 -0.9375,0.59375 -0.5625,0 -0.90625,-0.78125 -1.265625,-1.625 -0.234375,-0.546875 -0.4375,-0.953125 -0.6875,-1.25 1.59375,-0.578125 2.65625,-1.71875 2.65625,-2.84375 0,-1.375 -1.828125,-1.375 -3.484375,-1.375 -1.09375,0 -1.703125,0 -2.609375,0.390625 -1.46875,0.65625 -1.65625,1.5625 -1.65625,1.640625 0,0.0625 0.03125,0.09375 0.109375,0.09375 0.171875,0 0.421875,-0.15625 0.5,-0.21875 0.234375,-0.140625 0.265625,-0.21875 0.328125,-0.421875 0.15625,-0.4375 0.46875,-0.8125 1.84375,-0.875 -0.0625,0.65625 -0.15625,1.671875 -0.53125,3.265625 C 2.1875,-2.359375 1.78125,-1.15625 1.3125,0.015625 1.25,0.125 1.25,0.15625 1.25,0.15625 c 0,0.078125 0.09375,0.078125 0.109375,0.078125 0.21875,0 0.6875,-0.25 0.796875,-0.46875 0.03125,-0.046875 1.40625,-3.125 1.75,-6.609375 z m 0,0"
               id="id-5dcbddec-0bc8-428e-a4aa-c26b18cd0084"
               style="stroke-width:0" />
          </g>
          <g
             id="id-f97496ed-233f-4919-b3f2-71b63802a0ce"
             style="stroke-width:0">
            <path
               d="m 3.890625,-2.546875 c 0,-0.84375 -0.078125,-1.359375 -0.34375,-1.875 -0.34375,-0.703125 -1,-0.875 -1.4375,-0.875 -1,0 -1.375,0.75 -1.484375,0.96875 -0.28125,0.578125 -0.296875,1.375 -0.296875,1.78125 0,0.53125 0.015625,1.328125 0.40625,1.96875 0.359375,0.59375 0.953125,0.75 1.375,0.75 0.390625,0 1.0625,-0.125 1.46875,-0.90625 0.296875,-0.578125 0.3125,-1.296875 0.3125,-1.8125 z M 2.109375,-0.0625 C 1.84375,-0.0625 1.296875,-0.1875 1.125,-1.015625 1.03125,-1.46875 1.03125,-2.21875 1.03125,-2.640625 1.03125,-3.1875 1.03125,-3.75 1.125,-4.1875 1.296875,-5 1.90625,-5.078125 2.109375,-5.078125 c 0.265625,0 0.828125,0.140625 0.984375,0.859375 0.09375,0.4375 0.09375,1.046875 0.09375,1.578125 0,0.46875 0,1.1875 -0.09375,1.640625 -0.171875,0.828125 -0.71875,0.9375 -0.984375,0.9375 z m 0,0"
               id="id-987680c7-cc60-4412-bf5f-e4c0edbcbc5f"
               style="stroke-width:0" />
          </g>
        </g>
      </defs>
      <g
         fill="#000000"
         fill-opacity="1"
         id="id-c92daa7e-371c-4220-b28c-0bba29de8bcc"
         transform="translate(-143.173, -132.929)"
         style="stroke-width:0">
        <g
           transform="translate(142.735, 140.742)"
           style="stroke-width:0"
           id="g19">
          <path
             d="M 5.046875,-3.703125 C 4.9375,-4.375 4.5,-4.984375 3.640625,-4.984375 c -0.65625,0 -1.375,0.171875 -2.21875,1.03125 -0.90625,0.90625 -0.984375,1.90625 -0.984375,2.25 0,0.671875 0.484375,1.9375 2,1.9375 2.59375,0 3.734375,-3.65625 3.734375,-5.21875 0,-1.734375 -1.015625,-2.828125 -2.359375,-2.828125 -1.578125,0 -2.078125,1.421875 -2.078125,1.734375 0,0.140625 0.09375,0.375 0.421875,0.375 0.359375,0 0.578125,-0.328125 0.578125,-0.578125 0,-0.375 -0.328125,-0.375 -0.515625,-0.375 0.484375,-0.8125 1.265625,-0.875 1.578125,-0.875 0.796875,0 1.5625,0.5625 1.5625,1.96875 0,0.421875 -0.0625,0.984375 -0.296875,1.859375 z M 2.46875,-0.0625 c -1.1875,0 -1.1875,-1.125 -1.1875,-1.234375 C 1.28125,-1.59375 1.546875,-3.125 2,-3.78125 2.4375,-4.390625 2.96875,-4.75 3.640625,-4.75 c 1.1875,0 1.21875,1.234375 1.21875,1.453125 0,0.78125 -0.703125,3.234375 -2.390625,3.234375 z m 0,0"
             id="id-fcdec3d1-a4cd-4727-bf1d-54debb6b5d34"
             style="stroke-width:0" />
        </g>
      </g>
      <g
         fill="#000000"
         fill-opacity="1"
         id="id-13ab4909-9711-4f19-a398-41a11268e229"
         transform="translate(-143.173, -132.929)"
         style="stroke-width:0">
        <g
           transform="translate(149.132, 140.742)"
           style="stroke-width:0"
           id="g20">
          <path
             d="m 4.421875,-6.84375 c 2.09375,0 2.640625,0.5 2.640625,1.234375 0,0.65625 -0.53125,1.96875 -2.328125,2.03125 -0.53125,0.015625 -0.90625,0.40625 -0.90625,0.53125 0,0.0625 0.046875,0.0625 0.046875,0.0625 0.46875,0.078125 0.6875,0.296875 1.25,1.578125 0.5,1.140625 0.78125,1.640625 1.421875,1.640625 1.328125,0 2.578125,-1.328125 2.578125,-1.578125 0,-0.078125 -0.078125,-0.078125 -0.109375,-0.078125 -0.140625,0 -0.5625,0.15625 -0.796875,0.46875 -0.171875,0.25 -0.40625,0.59375 -0.9375,0.59375 -0.5625,0 -0.90625,-0.78125 -1.265625,-1.625 -0.234375,-0.546875 -0.4375,-0.953125 -0.6875,-1.25 1.59375,-0.578125 2.65625,-1.71875 2.65625,-2.84375 0,-1.375 -1.828125,-1.375 -3.484375,-1.375 -1.09375,0 -1.703125,0 -2.609375,0.390625 -1.46875,0.65625 -1.65625,1.5625 -1.65625,1.640625 0,0.0625 0.03125,0.09375 0.109375,0.09375 0.171875,0 0.421875,-0.15625 0.5,-0.21875 0.234375,-0.140625 0.265625,-0.21875 0.328125,-0.421875 0.15625,-0.4375 0.46875,-0.8125 1.84375,-0.875 -0.0625,0.65625 -0.15625,1.671875 -0.53125,3.265625 C 2.1875,-2.359375 1.78125,-1.15625 1.3125,0.015625 1.25,0.125 1.25,0.15625 1.25,0.15625 c 0,0.078125 0.09375,0.078125 0.109375,0.078125 0.21875,0 0.6875,-0.25 0.796875,-0.46875 0.03125,-0.046875 1.40625,-3.125 1.75,-6.609375 z m 0,0"
             id="id-a4acdc1d-f617-4306-a804-e09ab52d1721"
             style="stroke-width:0" />
        </g>
      </g>
      <g
         fill="#000000"
         fill-opacity="1"
         id="id-657c3be0-19ef-4393-a86e-f151e469bfe4"
         transform="translate(-143.173, -132.929)"
         style="stroke-width:0">
        <g
           transform="translate(158.378, 142.379)"
           style="stroke-width:0"
           id="g21">
          <path
             d="m 3.890625,-2.546875 c 0,-0.84375 -0.078125,-1.359375 -0.34375,-1.875 -0.34375,-0.703125 -1,-0.875 -1.4375,-0.875 -1,0 -1.375,0.75 -1.484375,0.96875 -0.28125,0.578125 -0.296875,1.375 -0.296875,1.78125 0,0.53125 0.015625,1.328125 0.40625,1.96875 0.359375,0.59375 0.953125,0.75 1.375,0.75 0.390625,0 1.0625,-0.125 1.46875,-0.90625 0.296875,-0.578125 0.3125,-1.296875 0.3125,-1.8125 z M 2.109375,-0.0625 C 1.84375,-0.0625 1.296875,-0.1875 1.125,-1.015625 1.03125,-1.46875 1.03125,-2.21875 1.03125,-2.640625 1.03125,-3.1875 1.03125,-3.75 1.125,-4.1875 1.296875,-5 1.90625,-5.078125 2.109375,-5.078125 c 0.265625,0 0.828125,0.140625 0.984375,0.859375 0.09375,0.4375 0.09375,1.046875 0.09375,1.578125 0,0.46875 0,1.1875 -0.09375,1.640625 -0.171875,0.828125 -0.71875,0.9375 -0.984375,0.9375 z m 0,0"
             id="id-da5da96a-12a9-46c7-9383-fe1484c4d09e"
             style="stroke-width:0" />
        </g>
      </g>
    </g>
  </g>
</svg>
