<?xml version="1.0" encoding="UTF-8" standalone="no"?>
<!-- Created with Inkscape (http://www.inkscape.org/) -->

<svg
   width="170mm"
   height="40mm"
   viewBox="0 0 170 40"
   version="1.1"
   id="svg1"
   inkscape:version="1.4 (e7c3feb1, 2024-10-09)"
   sodipodi:docname="BL_traction.svg"
   xmlns:inkscape="http://www.inkscape.org/namespaces/inkscape"
   xmlns:sodipodi="http://sodipodi.sourceforge.net/DTD/sodipodi-0.dtd"
   xmlns="http://www.w3.org/2000/svg"
   xmlns:svg="http://www.w3.org/2000/svg"
   xmlns:ns2="http://www.iki.fi/pav/software/textext/">
  <sodipodi:namedview
     id="namedview1"
     pagecolor="#ffffff"
     bordercolor="#999999"
     borderopacity="1"
     inkscape:showpageshadow="0"
     inkscape:pageopacity="0"
     inkscape:pagecheckerboard="0"
     inkscape:deskcolor="#d1d1d1"
     inkscape:document-units="mm"
     inkscape:zoom="1.3833815"
     inkscape:cx="404.80518"
     inkscape:cy="142.40468"
     inkscape:current-layer="layer1"
     inkscape:window-width="1440"
     inkscape:window-height="847"
     inkscape:window-x="0"
     inkscape:window-y="25"
     inkscape:window-maximized="1"
     showguides="true" />
  <defs
     id="defs1">
    <marker
       style="overflow:visible"
       id="Square"
       refX="0"
       refY="0"
       orient="0.00"
       inkscape:stockid="Square"
       markerWidth="1"
       markerHeight="1"
       viewBox="0 0 1 1"
       inkscape:isstock="true"
       inkscape:collect="always"
       preserveAspectRatio="xMidYMid">
      <path
         transform="scale(0.5)"
         style="fill:context-stroke;fill-rule:evenodd;stroke:none"
         d="M -5,-5 V 5 H 5 V -5 Z"
         id="path57" />
    </marker>
    <marker
       markerWidth="5.21419811"
       markerHeight="10.9298854"
       refX="2.6070993"
       refY="5.4649429"
       orient="auto-start-reverse"
       id="marker3"
       viewBox="0 0 5.2141984 10.929886"
       preserveAspectRatio="xMidYMid">
      <path
         style="fill:context-stroke;stroke-width:1"
         d="M 0.2200441,10.861292 C 0.0019654,10.743635 -0.0331842,10.546759 0.0873827,10.11609 0.9177449,7.1468211 2.9997732,6.029143 2.9059276,5.4444312 2.8121953,4.8597194 1.5162709,4.029807 0.6814866,2.3250851 0.3919748,1.7338951 0,0.62498553 0,0.39723876 0,0.08667498 0.4095874,-0.11447903 0.6634583,0.07140569 0.7186394,0.11169545 0.8679307,0.45382585 0.9956787,0.83172569 1.6888441,2.8844627 2.8271244,4.1971984 4.5120378,4.8868904 5.064189,5.1129062 5.2141984,5.2320369 5.2141984,5.4444312 c 0,0.2392063 -0.1058267,0.3313512 -0.6370393,0.5536214 C 3.8187969,6.3155329 3.3030425,6.651567 2.737474,7.1967714 1.9265764,7.9785137 1.3710992,8.9057036 0.9846425,10.122613 0.7465323,10.872207 0.5654551,11.047331 0.220611,10.861299 Z"
         id="path1"
         sodipodi:nodetypes="cccsssscsscssc" />
    </marker>
  </defs>
  <g
     inkscape:label="Layer 1"
     inkscape:groupmode="layer"
     id="layer1">
    <path
       style="opacity:0.1;fill:#dd9090;stroke:none;stroke-width:0.141111;stroke-linecap:round;stroke-linejoin:round;stroke-miterlimit:0;stroke-dasharray:none;stroke-opacity:1;paint-order:fill markers stroke"
       d="m 73.580903,11.136743 6.260708,-3.6146201 1.708655,5.2267581 0.423723,2.258243 0.08003,1.111228 -0.119029,1.393104 -0.429294,1.320932 -0.887873,1.45307 -1.435761,1.601925 -4.48904,-1.202835"
       id="path11" />
    <path
       style="fill:none;stroke:#a51d1e;stroke-width:0.141111;stroke-linecap:round;stroke-linejoin:round;stroke-miterlimit:0;stroke-dasharray:none;stroke-opacity:1;marker-end:url(#marker3);paint-order:fill markers stroke"
       d="m 74.693018,20.684548 4.104425,1.099778"
       id="path9"
       sodipodi:nodetypes="cc" />
    <path
       style="fill:#828282;stroke:#a51d1e;stroke-width:0.141111;stroke-linecap:round;stroke-linejoin:round;stroke-miterlimit:0;stroke-dasharray:none;stroke-opacity:1;marker-end:url(#marker3);paint-order:fill markers stroke"
       d="M 73.580903,11.136743 79.457544,7.7438637"
       id="path6"
       sodipodi:nodetypes="cc" />
    <path
       style="fill:#828282;stroke:#a51d1e;stroke-width:0.141111;stroke-linecap:round;stroke-linejoin:round;stroke-miterlimit:0;stroke-dasharray:none;stroke-opacity:1;marker-end:url(#marker3);paint-order:fill markers stroke"
       d="m 74.967886,14.512625 6.14734,-1.647175"
       id="path7"
       sodipodi:nodetypes="cc" />
    <path
       style="fill:#828282;stroke:#a51d1e;stroke-width:0.141111;stroke-linecap:round;stroke-linejoin:round;stroke-miterlimit:0;stroke-dasharray:none;stroke-opacity:1;marker-end:url(#marker3);paint-order:fill markers stroke"
       d="m 75.327941,17.50081 h 6.144497"
       id="path8"
       sodipodi:nodetypes="cc" />
    <path
       style="fill:none;stroke:#dd9090;stroke-width:0.141111;stroke-linecap:round;stroke-linejoin:round;stroke-miterlimit:0;stroke-dasharray:none;stroke-opacity:1;paint-order:fill markers stroke"
       d="m 79.182058,21.887383 c 3.16971,-3.111851 3.299759,-5.120668 2.368208,-9.138502 -0.393607,-1.790225 -1.708655,-5.2267581 -1.708655,-5.2267581"
       id="path10"
       sodipodi:nodetypes="csc" />
    <path
       style="fill:#e9e9f2;stroke:#000000;stroke-width:0.176389;stroke-linecap:butt;stroke-linejoin:miter;stroke-dasharray:none;stroke-opacity:1"
       d="m 44.966565,13.494319 c -9.135232,-0.98536 -14.097907,3.2577 -13.099225,10.01318 1.838944,6.91345 9.729018,9.75675 16.239363,9.77515 6.236421,0.0561 12.579571,-0.92168 18.420911,-3.0948 6.85749,-3.09464 11.2912,-12.26286 7.05329,-19.051105 -4.10963,-5.6202666 -12.46085,-5.4407756 -17.89094,-1.9345816 -3.3696,1.8977426 -6.894641,4.7051466 -10.723399,4.2921566 z"
       id="path1-9"
       sodipodi:nodetypes="scccccs" />
    <path
       style="opacity:0.5;fill:none;stroke:#000000;stroke-width:0.141111;stroke-linecap:round;stroke-linejoin:round;stroke-miterlimit:0;stroke-dasharray:1.12888801,0.564444;stroke-dashoffset:0;paint-order:fill markers stroke"
       d="M 46.466,6.6268759 64.742742,36.059517"
       id="path2"
       sodipodi:nodetypes="cc" />
    <path
       id="path1-9-5"
       style="opacity:0.2;fill:#e9e9f2;stroke:#000000;stroke-width:0.176389;stroke-linecap:butt;stroke-linejoin:miter;stroke-dasharray:none;stroke-opacity:1"
       d="m 127.92518,6.7168718 c -2.89409,0.05336 -5.82901,0.950643 -8.20467,2.484603 -1.82256,1.0264552 -3.69111,2.3158152 -5.62808,3.2209922 l 11.90883,19.195728 c 1.54483,-0.401387 3.06718,-0.876734 4.55683,-1.430922 6.85749,-3.09464 11.29123,-12.262788 7.05332,-19.051032 -2.31167,-3.1614002 -5.96524,-4.4879772 -9.68623,-4.4193692 z"
       sodipodi:nodetypes="scccccs" />
    <path
       id="path3"
       style="fill:#e9e9f2;stroke:#000000;stroke-width:0.176389;stroke-linecap:butt;stroke-linejoin:miter;stroke-dasharray:none;stroke-opacity:1"
       d="m 114.09245,12.422498 c -1.64463,0.768738 -3.33846,1.261436 -5.09684,1.071769 -9.135251,-0.98536 -14.09763,3.257862 -13.098948,10.013342 1.838944,6.91345 9.728938,9.756714 16.239318,9.775114 4.64659,0.0418 9.35192,-0.491647 13.86531,-1.664498 z" />
    <path
       style="fill:#828282;stroke:#ffffff;stroke-width:0.212;stroke-linecap:round;stroke-linejoin:round;stroke-miterlimit:0;stroke-dasharray:none;stroke-opacity:1;paint-order:fill markers stroke"
       d="m 114.12795,12.479722 11.8378,19.081217"
       id="path5" />
    <path
       style="opacity:0.5;fill:#e9e9f2;stroke:#000000;stroke-width:0.141111;stroke-linecap:round;stroke-linejoin:round;stroke-miterlimit:0;stroke-dasharray:1.12888801,0.564444;stroke-dashoffset:0;paint-order:fill markers stroke"
       d="M 110.49523,6.6268759 128.77207,36.059517"
       id="path4"
       sodipodi:nodetypes="cc" />
    <path
       style="fill:#dd9090;stroke:#3139ae;stroke-width:0.141111;stroke-linecap:round;stroke-linejoin:round;stroke-miterlimit:0;stroke-dasharray:none;stroke-opacity:1;marker-start:url(#marker3);paint-order:fill markers stroke"
       d="m 114.36087,12.27431 1.92573,-1.063136"
       id="path21"
       sodipodi:nodetypes="cc" />
    <path
       style="fill:#dd9090;stroke:#3139ae;stroke-width:0.141111;stroke-linecap:round;stroke-linejoin:round;stroke-miterlimit:0;stroke-dasharray:none;stroke-opacity:1;marker-end:url(#marker3);paint-order:fill markers stroke"
       d="m 115.00851,13.89909 2.25863,-1.24692"
       id="path23"
       sodipodi:nodetypes="cc" />
    <path
       style="fill:#dd9090;stroke:#3139ae;stroke-width:0.141111;stroke-linecap:round;stroke-linejoin:round;stroke-miterlimit:0;stroke-dasharray:none;stroke-opacity:1;marker-start:url(#marker3);paint-order:fill markers stroke"
       d="m 116.20561,15.220529 2.56064,-1.413651"
       id="path23-1"
       sodipodi:nodetypes="cc" />
    <path
       style="fill:#dd9090;stroke:#3139ae;stroke-width:0.141111;stroke-linecap:round;stroke-linejoin:round;stroke-miterlimit:0;stroke-dasharray:none;stroke-opacity:1;marker-end:url(#marker3);paint-order:fill markers stroke"
       d="m 116.84064,16.852274 2.58003,-1.424353"
       id="path23-5"
       sodipodi:nodetypes="cc" />
    <path
       style="fill:#dd9090;stroke:#3139ae;stroke-width:0.141111;stroke-linecap:round;stroke-linejoin:round;stroke-miterlimit:0;stroke-dasharray:none;stroke-opacity:1;marker-end:url(#marker3);paint-order:fill markers stroke"
       d="m 117.7567,18.328866 2.22426,-1.227944"
       id="path23-51"
       sodipodi:nodetypes="cc" />
    <path
       style="fill:#dd9090;stroke:#3139ae;stroke-width:0.141111;stroke-linecap:round;stroke-linejoin:round;stroke-miterlimit:0;stroke-dasharray:none;stroke-opacity:1;marker-start:url(#marker3);paint-order:fill markers stroke"
       d="m 118.94151,19.657087 1.85793,-1.025702"
       id="path23-3"
       sodipodi:nodetypes="cc" />
    <path
       style="fill:#dd9090;stroke:#3139ae;stroke-width:0.141111;stroke-linecap:round;stroke-linejoin:round;stroke-miterlimit:0;stroke-dasharray:none;stroke-opacity:1;marker-start:url(#marker3);paint-order:fill markers stroke"
       d="m 119.87279,21.125279 1.3845,-0.764338"
       id="path23-2"
       sodipodi:nodetypes="cc" />
    <path
       style="fill:#dd9090;stroke:#3139ae;stroke-width:0.141111;stroke-linecap:round;stroke-linejoin:round;stroke-miterlimit:0;stroke-dasharray:none;stroke-opacity:1;marker-start:url(#marker3);paint-order:fill markers stroke"
       d="m 120.78997,22.60126 1.87904,-1.037362"
       id="path23-15"
       sodipodi:nodetypes="cc" />
    <path
       style="fill:#dd9090;stroke:#3139ae;stroke-width:0.141111;stroke-linecap:round;stroke-linejoin:round;stroke-miterlimit:0;stroke-dasharray:none;stroke-opacity:1;marker-end:url(#marker3);paint-order:fill markers stroke"
       d="m 121.42095,24.235235 1.85604,-1.024663"
       id="path23-6"
       sodipodi:nodetypes="cc" />
    <path
       style="fill:#dd9090;stroke:#3139ae;stroke-width:0.141111;stroke-linecap:round;stroke-linejoin:round;stroke-miterlimit:0;stroke-dasharray:none;stroke-opacity:1;marker-end:url(#marker3);paint-order:fill markers stroke"
       d="m 122.33701,25.711827 2.33278,-1.287856"
       id="path23-16"
       sodipodi:nodetypes="cc" />
    <path
       style="fill:#dd9090;stroke:#3139ae;stroke-width:0.141111;stroke-linecap:round;stroke-linejoin:round;stroke-miterlimit:0;stroke-dasharray:none;stroke-opacity:1;marker-start:url(#marker3);paint-order:fill markers stroke"
       d="m 123.53007,27.035496 2.32294,-1.282422"
       id="path23-4"
       sodipodi:nodetypes="cc" />
    <path
       style="fill:#dd9090;stroke:#3139ae;stroke-width:0.141111;stroke-linecap:round;stroke-linejoin:round;stroke-miterlimit:0;stroke-dasharray:none;stroke-opacity:1;marker-end:url(#marker3);paint-order:fill markers stroke"
       d="m 124.16914,28.665011 2.51999,-1.39121"
       id="path23-7"
       sodipodi:nodetypes="cc" />
    <path
       style="fill:#dd9090;stroke:#3139ae;stroke-width:0.141111;stroke-linecap:round;stroke-linejoin:round;stroke-miterlimit:0;stroke-dasharray:none;stroke-opacity:1;marker-end:url(#marker3);paint-order:fill markers stroke"
       d="m 125.0852,30.141603 2.15243,-1.188286"
       id="path23-0"
       sodipodi:nodetypes="cc" />
    <path
       style="fill:#dd9090;stroke:#3139ae;stroke-width:0.141111;stroke-linecap:round;stroke-linejoin:round;stroke-miterlimit:0;stroke-dasharray:none;stroke-opacity:1;marker-end:url(#marker3);paint-order:fill markers stroke"
       d="m 126.00126,31.618195 1.76395,-0.973823"
       id="path23-0-0"
       sodipodi:nodetypes="cc" />
    <text
       xml:space="preserve"
       style="font-style:normal;font-variant:normal;font-weight:normal;font-stretch:normal;font-size:3.52778px;line-height:1.25;font-family:'Latin Modern Roman';-inkscape-font-specification:'Latin Modern Roman, Normal';font-variant-ligatures:normal;font-variant-caps:normal;font-variant-numeric:normal;font-variant-east-asian:normal;stroke-width:0.264583"
       x="89.668152"
       y="10.192044"
       id="text27"><tspan
         sodipodi:role="line"
         style="font-style:normal;font-variant:normal;font-weight:normal;font-stretch:normal;font-size:3.52778px;font-family:'Latin Modern Roman';-inkscape-font-specification:'Latin Modern Roman, Normal';font-variant-ligatures:normal;font-variant-caps:normal;font-variant-numeric:normal;font-variant-east-asian:normal;stroke-width:0.264583"
         x="89.668152"
         y="10.192044"
         id="tspan54">Inner surface</tspan></text>
    <g
       id="g54"
       transform="translate(0,69.320847)">
      <path
         id="path28"
         style="opacity:0.2;fill:#e9e9f2;stroke:#000000;stroke-width:0.176389;stroke-linecap:butt;stroke-linejoin:miter;stroke-dasharray:none;stroke-opacity:1"
         d="m 127.92518,6.7168718 c -2.89409,0.05336 -5.82901,0.950643 -8.20467,2.484603 -1.82256,1.0264552 -3.69111,2.3158152 -5.62808,3.2209922 l 11.90883,19.195728 c 1.54483,-0.401387 3.06718,-0.876734 4.55683,-1.430922 6.85749,-3.09464 11.29123,-12.262788 7.05332,-19.051032 -2.31167,-3.1614002 -5.96524,-4.4879772 -9.68623,-4.4193692 z" />
      <path
         id="path29"
         style="fill:#e9e9f2;stroke:#000000;stroke-width:0.176389;stroke-linecap:butt;stroke-linejoin:miter;stroke-dasharray:none;stroke-opacity:1"
         d="m 114.09245,12.422498 c -1.64463,0.768738 -3.33846,1.261436 -5.09684,1.071769 -9.135251,-0.98536 -14.09763,3.257862 -13.098948,10.013342 1.838944,6.91345 9.728938,9.756714 16.239318,9.775114 4.64659,0.0418 9.35192,-0.491647 13.86531,-1.664498 z" />
      <path
         style="fill:#828282;stroke:#ffffff;stroke-width:0.212;stroke-linecap:round;stroke-linejoin:round;stroke-miterlimit:0;stroke-dasharray:none;stroke-opacity:1;paint-order:fill markers stroke"
         d="m 114.12795,12.479722 11.8378,19.081217"
         id="path30" />
      <path
         style="opacity:0.5;fill:#e9e9f2;stroke:#828282;stroke-width:0.141111;stroke-linecap:round;stroke-linejoin:round;stroke-miterlimit:0;stroke-dasharray:0.940739, 0.47037;stroke-dashoffset:0;paint-order:fill markers stroke"
         d="M 110.49523,6.6268759 128.77207,36.059517"
         id="path31"
         sodipodi:nodetypes="cc" />
      <path
         style="opacity:0.1;fill:#3139ae;stroke:#3139ae;stroke-width:0.141111;stroke-linecap:round;stroke-linejoin:round;stroke-miterlimit:0;stroke-dasharray:none;stroke-dashoffset:0;stroke-opacity:1;paint-order:fill markers stroke"
         d="m 114.09243,12.422467 2.19417,-1.211293 1.37024,1.225855 1.10941,1.369849 1.04411,1.405907 0.56558,1.670081 0.4235,1.748519 0.15849,0.859126 0.29936,0.87043 1.41172,1.202957 1.00572,1.427096 1.39407,1.212696 0.78421,1.549384 1.22982,1.303379 0.55032,1.678508 0.52172,1.694292 -2.15361,1.188942 z"
         id="path32" />
      <g
         transform="matrix(0.352778,0,0,0.352778,94.671052,31.953636)"
         ns2:version="1.10.2"
         ns2:texconverter="pdflatex"
         ns2:pdfconverter="inkscape"
         ns2:text="$\\p R$"
         ns2:preamble="/Users/ali/Library/Application Support/org.inkscape.Inkscape/config/inkscape/extensions/textext/default_packages.tex"
         ns2:scale="1.0"
         ns2:alignment="middle center"
         ns2:stroke-to-path="0"
         ns2:inkscapeversion="1.4"
         ns2:jacobian_sqrt="0.352778"
         id="g40">
        <defs
           id="defs35">
          <g
             id="g35">
            <g
               id="g33">
              <path
                 d="M 5.046875,-3.703125 C 4.9375,-4.375 4.5,-4.984375 3.640625,-4.984375 c -0.65625,0 -1.375,0.171875 -2.21875,1.03125 -0.90625,0.90625 -0.984375,1.90625 -0.984375,2.25 0,0.671875 0.484375,1.9375 2,1.9375 2.59375,0 3.734375,-3.65625 3.734375,-5.21875 0,-1.734375 -1.015625,-2.828125 -2.359375,-2.828125 -1.578125,0 -2.078125,1.421875 -2.078125,1.734375 0,0.140625 0.09375,0.375 0.421875,0.375 0.359375,0 0.578125,-0.328125 0.578125,-0.578125 0,-0.375 -0.328125,-0.375 -0.515625,-0.375 0.484375,-0.8125 1.265625,-0.875 1.578125,-0.875 0.796875,0 1.5625,0.5625 1.5625,1.96875 0,0.421875 -0.0625,0.984375 -0.296875,1.859375 z M 2.46875,-0.0625 c -1.1875,0 -1.1875,-1.125 -1.1875,-1.234375 C 1.28125,-1.59375 1.546875,-3.125 2,-3.78125 2.4375,-4.390625 2.96875,-4.75 3.640625,-4.75 c 1.1875,0 1.21875,1.234375 1.21875,1.453125 0,0.78125 -0.703125,3.234375 -2.390625,3.234375 z m 0,0"
                 id="path33" />
            </g>
            <g
               id="g34">
              <path
                 d="M 4.09375,-6.703125 C 4.15625,-6.953125 4.1875,-7.0625 4.390625,-7.09375 4.5,-7.109375 4.84375,-7.109375 5.0625,-7.109375 c 0.765625,0 1.984375,0 1.984375,1.078125 0,0.375 -0.171875,1.125 -0.59375,1.546875 -0.296875,0.28125 -0.875,0.640625 -1.84375,0.640625 H 3.375 Z m 1.5625,3 C 6.765625,-3.953125 8.0625,-4.71875 8.0625,-5.8125 8.0625,-6.75 7.078125,-7.453125 5.65625,-7.453125 H 2.546875 c -0.21875,0 -0.328125,0 -0.328125,0.21875 0,0.125 0.109375,0.125 0.3125,0.125 0.015625,0 0.234375,0 0.40625,0.015625 0.203125,0.03125 0.296875,0.03125 0.296875,0.171875 0,0.046875 0,0.078125 -0.03125,0.21875 l -1.46875,5.859375 c -0.109375,0.421875 -0.125,0.5 -1,0.5 -0.1875,0 -0.28125,0 -0.28125,0.21875 0,0.125 0.125,0.125 0.140625,0.125 0.3125,0 1.078125,-0.03125 1.375,-0.03125 0.3125,0 1.078125,0.03125 1.390625,0.03125 0.09375,0 0.21875,0 0.21875,-0.21875 0,-0.125 -0.09375,-0.125 -0.3125,-0.125 -0.390625,0 -0.703125,0 -0.703125,-0.1875 0,-0.0625 0.015625,-0.125 0.03125,-0.1875 L 3.3125,-3.609375 h 1.296875 c 1,0 1.1875,0.609375 1.1875,0.984375 0,0.171875 -0.078125,0.515625 -0.140625,0.765625 -0.078125,0.296875 -0.1875,0.703125 -0.1875,0.921875 0,1.171875 1.3125,1.171875 1.453125,1.171875 0.9375,0 1.3125,-1.09375 1.3125,-1.25 0,-0.125 -0.125,-0.125 -0.125,-0.125 C 8,-1.140625 7.984375,-1.0625 7.96875,-1 c -0.28125,0.8125 -0.75,1 -1,1 C 6.609375,0 6.53125,-0.234375 6.53125,-0.671875 6.53125,-1 6.59375,-1.5625 6.640625,-1.90625 6.65625,-2.0625 6.6875,-2.265625 6.6875,-2.421875 c 0,-0.84375 -0.734375,-1.171875 -1.03125,-1.28125 z m 0,0"
                 id="path34" />
            </g>
          </g>
        </defs>
        <g
           fill="#000000"
           fill-opacity="1"
           id="g37"
           transform="translate(-143.173,-132.929)">
          <g
             transform="translate(142.735,140.742)"
             id="g36">
            <path
               d="M 5.046875,-3.703125 C 4.9375,-4.375 4.5,-4.984375 3.640625,-4.984375 c -0.65625,0 -1.375,0.171875 -2.21875,1.03125 -0.90625,0.90625 -0.984375,1.90625 -0.984375,2.25 0,0.671875 0.484375,1.9375 2,1.9375 2.59375,0 3.734375,-3.65625 3.734375,-5.21875 0,-1.734375 -1.015625,-2.828125 -2.359375,-2.828125 -1.578125,0 -2.078125,1.421875 -2.078125,1.734375 0,0.140625 0.09375,0.375 0.421875,0.375 0.359375,0 0.578125,-0.328125 0.578125,-0.578125 0,-0.375 -0.328125,-0.375 -0.515625,-0.375 0.484375,-0.8125 1.265625,-0.875 1.578125,-0.875 0.796875,0 1.5625,0.5625 1.5625,1.96875 0,0.421875 -0.0625,0.984375 -0.296875,1.859375 z M 2.46875,-0.0625 c -1.1875,0 -1.1875,-1.125 -1.1875,-1.234375 C 1.28125,-1.59375 1.546875,-3.125 2,-3.78125 2.4375,-4.390625 2.96875,-4.75 3.640625,-4.75 c 1.1875,0 1.21875,1.234375 1.21875,1.453125 0,0.78125 -0.703125,3.234375 -2.390625,3.234375 z m 0,0"
               id="path35" />
          </g>
        </g>
        <g
           fill="#000000"
           fill-opacity="1"
           id="g39"
           transform="translate(-143.173,-132.929)">
          <g
             transform="translate(149.138,140.742)"
             id="g38">
            <path
               d="M 4.09375,-6.703125 C 4.15625,-6.953125 4.1875,-7.0625 4.390625,-7.09375 4.5,-7.109375 4.84375,-7.109375 5.0625,-7.109375 c 0.765625,0 1.984375,0 1.984375,1.078125 0,0.375 -0.171875,1.125 -0.59375,1.546875 -0.296875,0.28125 -0.875,0.640625 -1.84375,0.640625 H 3.375 Z m 1.5625,3 C 6.765625,-3.953125 8.0625,-4.71875 8.0625,-5.8125 8.0625,-6.75 7.078125,-7.453125 5.65625,-7.453125 H 2.546875 c -0.21875,0 -0.328125,0 -0.328125,0.21875 0,0.125 0.109375,0.125 0.3125,0.125 0.015625,0 0.234375,0 0.40625,0.015625 0.203125,0.03125 0.296875,0.03125 0.296875,0.171875 0,0.046875 0,0.078125 -0.03125,0.21875 l -1.46875,5.859375 c -0.109375,0.421875 -0.125,0.5 -1,0.5 -0.1875,0 -0.28125,0 -0.28125,0.21875 0,0.125 0.125,0.125 0.140625,0.125 0.3125,0 1.078125,-0.03125 1.375,-0.03125 0.3125,0 1.078125,0.03125 1.390625,0.03125 0.09375,0 0.21875,0 0.21875,-0.21875 0,-0.125 -0.09375,-0.125 -0.3125,-0.125 -0.390625,0 -0.703125,0 -0.703125,-0.1875 0,-0.0625 0.015625,-0.125 0.03125,-0.1875 L 3.3125,-3.609375 h 1.296875 c 1,0 1.1875,0.609375 1.1875,0.984375 0,0.171875 -0.078125,0.515625 -0.140625,0.765625 -0.078125,0.296875 -0.1875,0.703125 -0.1875,0.921875 0,1.171875 1.3125,1.171875 1.453125,1.171875 0.9375,0 1.3125,-1.09375 1.3125,-1.25 0,-0.125 -0.125,-0.125 -0.125,-0.125 C 8,-1.140625 7.984375,-1.0625 7.96875,-1 c -0.28125,0.8125 -0.75,1 -1,1 C 6.609375,0 6.53125,-0.234375 6.53125,-0.671875 6.53125,-1 6.59375,-1.5625 6.640625,-1.90625 6.65625,-2.0625 6.6875,-2.265625 6.6875,-2.421875 c 0,-0.84375 -0.734375,-1.171875 -1.03125,-1.28125 z m 0,0"
               id="path37" />
          </g>
        </g>
      </g>
      <path
         style="fill:#dd9090;stroke:#3139ae;stroke-width:0.141111;stroke-linecap:round;stroke-linejoin:round;stroke-miterlimit:0;stroke-dasharray:none;stroke-opacity:1;marker-start:url(#marker3);paint-order:fill markers stroke"
         d="m 114.36087,12.27431 1.92573,-1.063136"
         id="path40"
         sodipodi:nodetypes="cc" />
      <path
         style="fill:#dd9090;stroke:#3139ae;stroke-width:0.141111;stroke-linecap:round;stroke-linejoin:round;stroke-miterlimit:0;stroke-dasharray:none;stroke-opacity:1;marker-end:url(#marker3);paint-order:fill markers stroke"
         d="m 115.00851,13.89909 2.25863,-1.24692"
         id="path41"
         sodipodi:nodetypes="cc" />
      <path
         style="fill:#dd9090;stroke:#3139ae;stroke-width:0.141111;stroke-linecap:round;stroke-linejoin:round;stroke-miterlimit:0;stroke-dasharray:none;stroke-opacity:1;marker-start:url(#marker3);paint-order:fill markers stroke"
         d="m 116.20561,15.220529 2.56064,-1.413651"
         id="path42"
         sodipodi:nodetypes="cc" />
      <path
         style="fill:#dd9090;stroke:#3139ae;stroke-width:0.141111;stroke-linecap:round;stroke-linejoin:round;stroke-miterlimit:0;stroke-dasharray:none;stroke-opacity:1;marker-end:url(#marker3);paint-order:fill markers stroke"
         d="m 116.84064,16.852274 2.58003,-1.424353"
         id="path43"
         sodipodi:nodetypes="cc" />
      <path
         style="fill:#dd9090;stroke:#3139ae;stroke-width:0.141111;stroke-linecap:round;stroke-linejoin:round;stroke-miterlimit:0;stroke-dasharray:none;stroke-opacity:1;marker-end:url(#marker3);paint-order:fill markers stroke"
         d="m 117.7567,18.328866 2.22426,-1.227944"
         id="path44"
         sodipodi:nodetypes="cc" />
      <path
         style="fill:#dd9090;stroke:#3139ae;stroke-width:0.141111;stroke-linecap:round;stroke-linejoin:round;stroke-miterlimit:0;stroke-dasharray:none;stroke-opacity:1;marker-start:url(#marker3);paint-order:fill markers stroke"
         d="m 118.94151,19.657087 1.85793,-1.025702"
         id="path45"
         sodipodi:nodetypes="cc" />
      <path
         style="fill:#dd9090;stroke:#3139ae;stroke-width:0.141111;stroke-linecap:round;stroke-linejoin:round;stroke-miterlimit:0;stroke-dasharray:none;stroke-opacity:1;marker-start:url(#marker3);paint-order:fill markers stroke"
         d="m 119.87279,21.125279 1.3845,-0.764338"
         id="path46"
         sodipodi:nodetypes="cc" />
      <path
         style="fill:#dd9090;stroke:#3139ae;stroke-width:0.141111;stroke-linecap:round;stroke-linejoin:round;stroke-miterlimit:0;stroke-dasharray:none;stroke-opacity:1;marker-start:url(#marker3);paint-order:fill markers stroke"
         d="m 120.78997,22.60126 1.87904,-1.037362"
         id="path47"
         sodipodi:nodetypes="cc" />
      <path
         style="fill:#dd9090;stroke:#3139ae;stroke-width:0.141111;stroke-linecap:round;stroke-linejoin:round;stroke-miterlimit:0;stroke-dasharray:none;stroke-opacity:1;marker-end:url(#marker3);paint-order:fill markers stroke"
         d="m 121.42095,24.235235 1.85604,-1.024663"
         id="path48"
         sodipodi:nodetypes="cc" />
      <path
         style="fill:#dd9090;stroke:#3139ae;stroke-width:0.141111;stroke-linecap:round;stroke-linejoin:round;stroke-miterlimit:0;stroke-dasharray:none;stroke-opacity:1;marker-end:url(#marker3);paint-order:fill markers stroke"
         d="m 122.33701,25.711827 2.33278,-1.287856"
         id="path49"
         sodipodi:nodetypes="cc" />
      <path
         style="fill:#dd9090;stroke:#3139ae;stroke-width:0.141111;stroke-linecap:round;stroke-linejoin:round;stroke-miterlimit:0;stroke-dasharray:none;stroke-opacity:1;marker-start:url(#marker3);paint-order:fill markers stroke"
         d="m 123.53007,27.035496 2.32294,-1.282422"
         id="path50"
         sodipodi:nodetypes="cc" />
      <path
         style="fill:#dd9090;stroke:#3139ae;stroke-width:0.141111;stroke-linecap:round;stroke-linejoin:round;stroke-miterlimit:0;stroke-dasharray:none;stroke-opacity:1;marker-end:url(#marker3);paint-order:fill markers stroke"
         d="m 124.16914,28.665011 2.51999,-1.39121"
         id="path51"
         sodipodi:nodetypes="cc" />
      <path
         style="fill:#dd9090;stroke:#3139ae;stroke-width:0.141111;stroke-linecap:round;stroke-linejoin:round;stroke-miterlimit:0;stroke-dasharray:none;stroke-opacity:1;marker-end:url(#marker3);paint-order:fill markers stroke"
         d="m 125.0852,30.141603 2.15243,-1.188286"
         id="path52"
         sodipodi:nodetypes="cc" />
      <path
         style="fill:#dd9090;stroke:#3139ae;stroke-width:0.141111;stroke-linecap:round;stroke-linejoin:round;stroke-miterlimit:0;stroke-dasharray:none;stroke-opacity:1;marker-end:url(#marker3);paint-order:fill markers stroke"
         d="m 126.00126,31.618195 1.76395,-0.973823"
         id="path53"
         sodipodi:nodetypes="cc" />
      <path
         style="fill:none;stroke:#3139ae;stroke-width:0.141111;stroke-linecap:round;stroke-linejoin:round;stroke-miterlimit:0;stroke-dasharray:none;stroke-dashoffset:0;stroke-opacity:1;paint-order:fill markers stroke"
         d="m 116.2866,11.211174 c 0,0 0.94766,0.781996 1.37024,1.225855 0.40516,0.425558 0.74926,0.905577 1.10941,1.369849 0.35779,0.461233 0.77318,0.888854 1.04411,1.405907 0.2728,0.520608 0.40198,1.10556 0.56558,1.670081 0.16693,0.575991 0.27618,1.167205 0.4235,1.748519 0.14651,0.578101 0.14009,1.224884 0.45785,1.729556 0.32941,0.523178 0.99508,0.746186 1.41172,1.202957 0.39219,0.42996 0.61573,0.99514 1.00572,1.427096 0.41274,0.457154 1.01562,0.72678 1.39407,1.212696 0.35568,0.456678 0.45144,1.07575 0.78421,1.549384 0.3434,0.488759 0.92446,0.789999 1.22982,1.303379 0.301,0.506053 0.37195,1.117368 0.55032,1.678508 0.17901,0.563167 0.52172,1.694292 0.52172,1.694292"
         id="path54"
         sodipodi:nodetypes="cssssssssssssc" />
    </g>
    <text
       xml:space="preserve"
       style="font-size:3.52777px;line-height:1.25;font-family:'Latin Modern Roman';-inkscape-font-specification:'Latin Modern Roman, Normal';stroke-width:0.264583"
       x="128.71449"
       y="12.289405"
       id="text55"><tspan
         sodipodi:role="line"
         id="tspan55"
         style="stroke-width:0.264583"
         x="128.71449"
         y="12.289405">Tractions <tspan
   style="font-style:italic;font-variant:normal;font-weight:normal;font-stretch:normal;font-family:'Latin Modern Roman';-inkscape-font-specification:'Latin Modern Roman,  Italic'"
   id="tspan59">cancel</tspan></tspan><tspan
         sodipodi:role="line"
         style="stroke-width:0.264583"
         x="128.71449"
         y="16.699118"
         id="tspan56"> each other</tspan></text>
    <path
       style="opacity:1;fill:none;stroke:#828282;stroke-width:0.141111;stroke-linecap:round;stroke-linejoin:round;stroke-miterlimit:0;stroke-dasharray:none;stroke-dashoffset:0;stroke-opacity:1;marker-start:url(#Square);paint-order:fill markers stroke"
       d="m 117.33805,17.707976 -12.61346,-1.292375 -5.656432,-5.00203"
       id="path56"
       sodipodi:nodetypes="cc" />
    <path
       style="opacity:1;fill:#3139ae;stroke:#828282;stroke-width:0.141111;stroke-linecap:round;stroke-linejoin:round;stroke-miterlimit:0;stroke-dasharray:none;stroke-dashoffset:0;stroke-opacity:1;marker-start:url(#Square);paint-order:fill markers stroke"
       d="m 125.34483,21.343196 3.30777,-7.021337"
       id="path58"
       sodipodi:nodetypes="cc" />
    <text
       xml:space="preserve"
       style="font-style:normal;font-variant:normal;font-weight:normal;font-stretch:normal;font-size:3.52778px;line-height:1.25;font-family:'Latin Modern Roman';-inkscape-font-specification:'Latin Modern Roman, Normal';font-variant-ligatures:normal;font-variant-caps:normal;font-variant-numeric:normal;font-variant-east-asian:normal;stroke-width:0.264583"
       x="16.113914"
       y="10.192044"
       id="text58"><tspan
         sodipodi:role="line"
         style="font-style:normal;font-variant:normal;font-weight:normal;font-stretch:normal;font-size:3.52778px;font-family:'Latin Modern Roman';-inkscape-font-specification:'Latin Modern Roman, Normal';font-variant-ligatures:normal;font-variant-caps:normal;font-variant-numeric:normal;font-variant-east-asian:normal;stroke-width:0.264583"
         x="16.113914"
         y="10.192044"
         id="tspan58">Outer surface</tspan></text>
    <path
       style="opacity:1;fill:#3139ae;stroke:#828282;stroke-width:0.141111;stroke-linecap:round;stroke-linejoin:round;stroke-miterlimit:0;stroke-dasharray:none;stroke-dashoffset:0;stroke-opacity:1;marker-start:url(#Square);paint-order:fill markers stroke"
       d="M 32.797366,17.676625 24.497967,12.118146"
       id="path59"
       sodipodi:nodetypes="cc" />
    <g
       transform="matrix(0.352778,0,0,0.352778,83.552398,14.045196)"
       ns2:version="1.10.2"
       ns2:texconverter="pdflatex"
       ns2:pdfconverter="inkscape"
       ns2:text="$\\mb{t}_1$"
       ns2:preamble="/Users/ali/Library/Application Support/org.inkscape.Inkscape/config/inkscape/extensions/textext/default_packages.tex"
       ns2:scale="1.0"
       ns2:alignment="middle center"
       ns2:stroke-to-path="0"
       ns2:inkscapeversion="1.4"
       ns2:jacobian_sqrt="0.352778"
       id="g64"
       style="fill:#a51d1e">
      <defs
         id="id-94feb6c0-badc-4281-b473-ad8cdd7967cc">
        <g
           id="id-429540e4-5039-4c9d-92cb-d07814d6d704">
          <g
             id="id-629b6b83-4a5c-408d-9e51-af233e0ef655">
            <path
               d="m 1.125,-4.328125 v 2.984375 c 0,1.171875 0.953125,1.40625 1.71875,1.40625 0.828125,0 1.328125,-0.625 1.328125,-1.421875 V -1.9375 H 3.65625 v 0.5625 c 0,0.75 -0.359375,1 -0.65625,1 -0.640625,0 -0.640625,-0.6875 -0.640625,-0.9375 v -3.015625 h 1.59375 V -4.84375 h -1.59375 v -2.078125 h -0.5 C 1.84375,-5.828125 1.3125,-4.75 0.234375,-4.71875 v 0.390625 z m 0,0"
               id="id-cd88815c-356c-483e-94f4-abf1c4b8620a" />
          </g>
          <g
             id="id-b656d089-fdea-40fa-b105-39c05f2cce0c">
            <path
               d="m 2.5,-5.078125 c 0,-0.21875 -0.015625,-0.21875 -0.234375,-0.21875 -0.328125,0.3125 -0.75,0.5 -1.5,0.5 v 0.265625 c 0.21875,0 0.640625,0 1.109375,-0.203125 v 4.078125 c 0,0.296875 -0.03125,0.390625 -0.78125,0.390625 H 0.8125 V 0 c 0.328125,-0.03125 1.015625,-0.03125 1.375,-0.03125 0.359375,0 1.046875,0 1.375,0.03125 V -0.265625 H 3.28125 c -0.75,0 -0.78125,-0.09375 -0.78125,-0.390625 z m 0,0"
               id="id-05cefe77-9d82-4e97-a39e-65a778d80c36" />
          </g>
        </g>
      </defs>
      <g
         fill="#000000"
         fill-opacity="1"
         id="id-b074942b-67fe-4f7e-b16e-887e08cfa232"
         transform="translate(-142.969,-133.82)"
         style="fill:#a51d1e">
        <g
           transform="translate(142.735,140.742)"
           id="g62"
           style="fill:#a51d1e">
          <path
             d="m 1.125,-4.328125 v 2.984375 c 0,1.171875 0.953125,1.40625 1.71875,1.40625 0.828125,0 1.328125,-0.625 1.328125,-1.421875 V -1.9375 H 3.65625 v 0.5625 c 0,0.75 -0.359375,1 -0.65625,1 -0.640625,0 -0.640625,-0.6875 -0.640625,-0.9375 v -3.015625 h 1.59375 V -4.84375 h -1.59375 v -2.078125 h -0.5 C 1.84375,-5.828125 1.3125,-4.75 0.234375,-4.71875 v 0.390625 z m 0,0"
             id="id-650b2743-9a9e-415c-98a7-bc8a19d5ed61"
             style="fill:#a51d1e" />
        </g>
      </g>
      <g
         fill="#000000"
         fill-opacity="1"
         id="id-51c5827a-16a9-475c-aa3b-2afeae6093a4"
         transform="translate(-142.969,-133.82)"
         style="fill:#a51d1e">
        <g
           transform="translate(147.613,142.379)"
           id="g63"
           style="fill:#a51d1e">
          <path
             d="m 2.5,-5.078125 c 0,-0.21875 -0.015625,-0.21875 -0.234375,-0.21875 -0.328125,0.3125 -0.75,0.5 -1.5,0.5 v 0.265625 c 0.21875,0 0.640625,0 1.109375,-0.203125 v 4.078125 c 0,0.296875 -0.03125,0.390625 -0.78125,0.390625 H 0.8125 V 0 c 0.328125,-0.03125 1.015625,-0.03125 1.375,-0.03125 0.359375,0 1.046875,0 1.375,0.03125 V -0.265625 H 3.28125 c -0.75,0 -0.78125,-0.09375 -0.78125,-0.390625 z m 0,0"
             id="id-864e482f-e254-42c8-9c5d-7e78f34225cf"
             style="fill:#a51d1e" />
        </g>
      </g>
    </g>
    <g
       transform="matrix(0.352778 0 0 0.352778 122.065 15.7033)"
       ns2:version="1.10.2"
       ns2:texconverter="pdflatex"
       ns2:pdfconverter="inkscape"
       ns2:text="$\\mb{t}_2$"
       ns2:preamble="/Users/ali/Library/Application Support/org.inkscape.Inkscape/config/inkscape/extensions/textext/default_packages.tex"
       ns2:scale="1.0"
       ns2:alignment="middle center"
       ns2:stroke-to-path="0"
       ns2:inkscapeversion="1.4"
       ns2:jacobian_sqrt="0.352778"
       style="fill:#3139ae;stroke-width:0"
       id="g74">
      <defs
         id="id-0617dec1-f499-4039-a1c1-195c7a4c6d75"
         style="fill:#3139ae;stroke-width:0">
        <g
           id="id-bdd1cc39-a73a-4bbf-9ad2-efce6da765fa"
           style="fill:#3139ae;stroke-width:0">
          <g
             id="id-ad077cbc-8599-45c6-a7e5-09406f7087b0"
             style="fill:#3139ae;stroke-width:0">
            <path
               d="m 1.125,-4.328125 v 2.984375 c 0,1.171875 0.953125,1.40625 1.71875,1.40625 0.828125,0 1.328125,-0.625 1.328125,-1.421875 V -1.9375 H 3.65625 v 0.5625 c 0,0.75 -0.359375,1 -0.65625,1 -0.640625,0 -0.640625,-0.6875 -0.640625,-0.9375 v -3.015625 h 1.59375 V -4.84375 h -1.59375 v -2.078125 h -0.5 C 1.84375,-5.828125 1.3125,-4.75 0.234375,-4.71875 v 0.390625 z m 0,0"
               id="id-be8490e9-d1c1-45ea-bc12-3ae16868feaf"
               style="fill:#3139ae;stroke-width:0" />
          </g>
          <g
             id="id-acffdb14-febf-4686-b9b1-36156ab230ec"
             style="fill:#3139ae;stroke-width:0">
            <path
               d="m 2.25,-1.625 c 0.125,-0.125 0.453125,-0.390625 0.59375,-0.5 0.484375,-0.453125 0.953125,-0.890625 0.953125,-1.609375 0,-0.953125 -0.796875,-1.5625 -1.78125,-1.5625 -0.96875,0 -1.59375,0.71875 -1.59375,1.4375 0,0.390625 0.3125,0.4375 0.421875,0.4375 0.171875,0 0.421875,-0.109375 0.421875,-0.421875 0,-0.40625 -0.40625,-0.40625 -0.5,-0.40625 C 1,-4.84375 1.53125,-5.03125 1.921875,-5.03125 c 0.734375,0 1.125,0.625 1.125,1.296875 0,0.828125 -0.578125,1.4375 -1.53125,2.390625 l -1,1.046875 C 0.421875,-0.21875 0.421875,-0.203125 0.421875,0 H 3.5625 l 0.234375,-1.421875 h -0.25 C 3.53125,-1.265625 3.46875,-0.875 3.375,-0.71875 c -0.046875,0.0625 -0.65625,0.0625 -0.78125,0.0625 H 1.171875 Z m 0,0"
               id="id-07da30c4-9281-4b5a-8f5e-83f748b11a0f"
               style="fill:#3139ae;stroke-width:0" />
          </g>
        </g>
      </defs>
      <g
         fill-opacity="1"
         id="id-a6056602-baf4-42f4-8555-4058f924b326"
         transform="translate(-142.969, -133.82)"
         style="fill:#3139ae;stroke-width:0">
        <g
           transform="translate(142.735, 140.742)"
           style="fill:#3139ae;stroke-width:0"
           id="g72">
          <path
             d="m 1.125,-4.328125 v 2.984375 c 0,1.171875 0.953125,1.40625 1.71875,1.40625 0.828125,0 1.328125,-0.625 1.328125,-1.421875 V -1.9375 H 3.65625 v 0.5625 c 0,0.75 -0.359375,1 -0.65625,1 -0.640625,0 -0.640625,-0.6875 -0.640625,-0.9375 v -3.015625 h 1.59375 V -4.84375 h -1.59375 v -2.078125 h -0.5 C 1.84375,-5.828125 1.3125,-4.75 0.234375,-4.71875 v 0.390625 z m 0,0"
             id="id-8baca6d6-15c1-4aab-9dcb-7093a497d2fc"
             style="fill:#3139ae;stroke-width:0" />
        </g>
      </g>
      <g
         fill-opacity="1"
         id="id-5db24634-e40f-4e6c-8a25-56c6300dd07d"
         transform="translate(-142.969, -133.82)"
         style="fill:#3139ae;stroke-width:0">
        <g
           transform="translate(147.613, 142.379)"
           style="fill:#3139ae;stroke-width:0"
           id="g73">
          <path
             d="m 2.25,-1.625 c 0.125,-0.125 0.453125,-0.390625 0.59375,-0.5 0.484375,-0.453125 0.953125,-0.890625 0.953125,-1.609375 0,-0.953125 -0.796875,-1.5625 -1.78125,-1.5625 -0.96875,0 -1.59375,0.71875 -1.59375,1.4375 0,0.390625 0.3125,0.4375 0.421875,0.4375 0.171875,0 0.421875,-0.109375 0.421875,-0.421875 0,-0.40625 -0.40625,-0.40625 -0.5,-0.40625 C 1,-4.84375 1.53125,-5.03125 1.921875,-5.03125 c 0.734375,0 1.125,0.625 1.125,1.296875 0,0.828125 -0.578125,1.4375 -1.53125,2.390625 l -1,1.046875 C 0.421875,-0.21875 0.421875,-0.203125 0.421875,0 H 3.5625 l 0.234375,-1.421875 h -0.25 C 3.53125,-1.265625 3.46875,-0.875 3.375,-0.71875 c -0.046875,0.0625 -0.65625,0.0625 -0.78125,0.0625 H 1.171875 Z m 0,0"
             id="id-1244c781-9727-4335-84c1-dd58104a0175"
             style="fill:#3139ae;stroke-width:0" />
        </g>
      </g>
    </g>
    <g
       transform="matrix(0.352778 0 0 0.352778 30.4855 31.9538)"
       ns2:version="1.10.2"
       ns2:texconverter="pdflatex"
       ns2:pdfconverter="inkscape"
       ns2:text="$\\p \\mathcal{R}$"
       ns2:preamble="/Users/ali/Library/Application Support/org.inkscape.Inkscape/config/inkscape/extensions/textext/default_packages.tex"
       ns2:scale="1.0"
       ns2:alignment="middle center"
       ns2:stroke-to-path="0"
       ns2:inkscapeversion="1.4"
       ns2:jacobian_sqrt="0.352778"
       id="g13">
      <defs
         id="id-8592d5a2-52ac-4234-8bbb-2b8de323493f">
        <g
           id="id-11a4322d-4172-496c-86eb-f15688f2583d">
          <g
             id="id-812f820b-1150-42fb-b75d-3e56a5437a77">
            <path
               d="M 5.046875,-3.703125 C 4.9375,-4.375 4.5,-4.984375 3.640625,-4.984375 c -0.65625,0 -1.375,0.171875 -2.21875,1.03125 -0.90625,0.90625 -0.984375,1.90625 -0.984375,2.25 0,0.671875 0.484375,1.9375 2,1.9375 2.59375,0 3.734375,-3.65625 3.734375,-5.21875 0,-1.734375 -1.015625,-2.828125 -2.359375,-2.828125 -1.578125,0 -2.078125,1.421875 -2.078125,1.734375 0,0.140625 0.09375,0.375 0.421875,0.375 0.359375,0 0.578125,-0.328125 0.578125,-0.578125 0,-0.375 -0.328125,-0.375 -0.515625,-0.375 0.484375,-0.8125 1.265625,-0.875 1.578125,-0.875 0.796875,0 1.5625,0.5625 1.5625,1.96875 0,0.421875 -0.0625,0.984375 -0.296875,1.859375 z M 2.46875,-0.0625 c -1.1875,0 -1.1875,-1.125 -1.1875,-1.234375 C 1.28125,-1.59375 1.546875,-3.125 2,-3.78125 2.4375,-4.390625 2.96875,-4.75 3.640625,-4.75 c 1.1875,0 1.21875,1.234375 1.21875,1.453125 0,0.78125 -0.703125,3.234375 -2.390625,3.234375 z m 0,0"
               id="id-31d3f726-266e-4c9d-b1a1-c7b07e9f98e9" />
          </g>
          <g
             id="id-0aaadc58-7440-4efd-b230-c9fb69814ea5">
            <path
               d="m 4.421875,-6.84375 c 2.09375,0 2.640625,0.5 2.640625,1.234375 0,0.65625 -0.53125,1.96875 -2.328125,2.03125 -0.53125,0.015625 -0.90625,0.40625 -0.90625,0.53125 0,0.0625 0.046875,0.0625 0.046875,0.0625 0.46875,0.078125 0.6875,0.296875 1.25,1.578125 0.5,1.140625 0.78125,1.640625 1.421875,1.640625 1.328125,0 2.578125,-1.328125 2.578125,-1.578125 0,-0.078125 -0.078125,-0.078125 -0.109375,-0.078125 -0.140625,0 -0.5625,0.15625 -0.796875,0.46875 -0.171875,0.25 -0.40625,0.59375 -0.9375,0.59375 -0.5625,0 -0.90625,-0.78125 -1.265625,-1.625 -0.234375,-0.546875 -0.4375,-0.953125 -0.6875,-1.25 1.59375,-0.578125 2.65625,-1.71875 2.65625,-2.84375 0,-1.375 -1.828125,-1.375 -3.484375,-1.375 -1.09375,0 -1.703125,0 -2.609375,0.390625 -1.46875,0.65625 -1.65625,1.5625 -1.65625,1.640625 0,0.0625 0.03125,0.09375 0.109375,0.09375 0.171875,0 0.421875,-0.15625 0.5,-0.21875 0.234375,-0.140625 0.265625,-0.21875 0.328125,-0.421875 0.15625,-0.4375 0.46875,-0.8125 1.84375,-0.875 -0.0625,0.65625 -0.15625,1.671875 -0.53125,3.265625 C 2.1875,-2.359375 1.78125,-1.15625 1.3125,0.015625 1.25,0.125 1.25,0.15625 1.25,0.15625 c 0,0.078125 0.09375,0.078125 0.109375,0.078125 0.21875,0 0.6875,-0.25 0.796875,-0.46875 0.03125,-0.046875 1.40625,-3.125 1.75,-6.609375 z m 0,0"
               id="id-8423988d-9f25-49eb-9995-342db7f0298f" />
          </g>
        </g>
      </defs>
      <g
         fill="#000000"
         fill-opacity="1"
         id="id-334d031a-3fa5-457e-bbf8-b5d85bfe3e44"
         transform="translate(-143.173, -132.929)">
        <g
           transform="translate(142.735, 140.742)"
           id="g1">
          <path
             d="M 5.046875,-3.703125 C 4.9375,-4.375 4.5,-4.984375 3.640625,-4.984375 c -0.65625,0 -1.375,0.171875 -2.21875,1.03125 -0.90625,0.90625 -0.984375,1.90625 -0.984375,2.25 0,0.671875 0.484375,1.9375 2,1.9375 2.59375,0 3.734375,-3.65625 3.734375,-5.21875 0,-1.734375 -1.015625,-2.828125 -2.359375,-2.828125 -1.578125,0 -2.078125,1.421875 -2.078125,1.734375 0,0.140625 0.09375,0.375 0.421875,0.375 0.359375,0 0.578125,-0.328125 0.578125,-0.578125 0,-0.375 -0.328125,-0.375 -0.515625,-0.375 0.484375,-0.8125 1.265625,-0.875 1.578125,-0.875 0.796875,0 1.5625,0.5625 1.5625,1.96875 0,0.421875 -0.0625,0.984375 -0.296875,1.859375 z M 2.46875,-0.0625 c -1.1875,0 -1.1875,-1.125 -1.1875,-1.234375 C 1.28125,-1.59375 1.546875,-3.125 2,-3.78125 2.4375,-4.390625 2.96875,-4.75 3.640625,-4.75 c 1.1875,0 1.21875,1.234375 1.21875,1.453125 0,0.78125 -0.703125,3.234375 -2.390625,3.234375 z m 0,0"
             id="id-dd024df0-8626-47f3-8898-049aabe70f55" />
        </g>
      </g>
      <g
         fill="#000000"
         fill-opacity="1"
         id="id-bb9c0577-352c-423a-b1b4-c833849a9e98"
         transform="translate(-143.173, -132.929)">
        <g
           transform="translate(149.132, 140.742)"
           id="g2">
          <path
             d="m 4.421875,-6.84375 c 2.09375,0 2.640625,0.5 2.640625,1.234375 0,0.65625 -0.53125,1.96875 -2.328125,2.03125 -0.53125,0.015625 -0.90625,0.40625 -0.90625,0.53125 0,0.0625 0.046875,0.0625 0.046875,0.0625 0.46875,0.078125 0.6875,0.296875 1.25,1.578125 0.5,1.140625 0.78125,1.640625 1.421875,1.640625 1.328125,0 2.578125,-1.328125 2.578125,-1.578125 0,-0.078125 -0.078125,-0.078125 -0.109375,-0.078125 -0.140625,0 -0.5625,0.15625 -0.796875,0.46875 -0.171875,0.25 -0.40625,0.59375 -0.9375,0.59375 -0.5625,0 -0.90625,-0.78125 -1.265625,-1.625 -0.234375,-0.546875 -0.4375,-0.953125 -0.6875,-1.25 1.59375,-0.578125 2.65625,-1.71875 2.65625,-2.84375 0,-1.375 -1.828125,-1.375 -3.484375,-1.375 -1.09375,0 -1.703125,0 -2.609375,0.390625 -1.46875,0.65625 -1.65625,1.5625 -1.65625,1.640625 0,0.0625 0.03125,0.09375 0.109375,0.09375 0.171875,0 0.421875,-0.15625 0.5,-0.21875 0.234375,-0.140625 0.265625,-0.21875 0.328125,-0.421875 0.15625,-0.4375 0.46875,-0.8125 1.84375,-0.875 -0.0625,0.65625 -0.15625,1.671875 -0.53125,3.265625 C 2.1875,-2.359375 1.78125,-1.15625 1.3125,0.015625 1.25,0.125 1.25,0.15625 1.25,0.15625 c 0,0.078125 0.09375,0.078125 0.109375,0.078125 0.21875,0 0.6875,-0.25 0.796875,-0.46875 0.03125,-0.046875 1.40625,-3.125 1.75,-6.609375 z m 0,0"
             id="id-88022ed0-0d17-479c-98a3-156584393ab5" />
        </g>
      </g>
    </g>
    <g
       transform="matrix(0.352778 0 0 0.352778 94.5149 31.9538)"
       ns2:version="1.10.2"
       ns2:texconverter="pdflatex"
       ns2:pdfconverter="inkscape"
       ns2:text="$\\p \\mathcal{R}$"
       ns2:preamble="/Users/ali/Library/Application Support/org.inkscape.Inkscape/config/inkscape/extensions/textext/default_packages.tex"
       ns2:scale="1.0"
       ns2:alignment="middle center"
       ns2:stroke-to-path="0"
       ns2:inkscapeversion="1.4"
       ns2:jacobian_sqrt="0.352778"
       id="g21">
      <defs
         id="id-e62f1c16-bdfd-4392-8352-0f958ae1ec94">
        <g
           id="id-5e65b1ae-2300-442e-bd23-724c8401470b">
          <g
             id="id-c3afaf37-97bb-4431-9663-e988b2da0b81">
            <path
               d="M 5.046875,-3.703125 C 4.9375,-4.375 4.5,-4.984375 3.640625,-4.984375 c -0.65625,0 -1.375,0.171875 -2.21875,1.03125 -0.90625,0.90625 -0.984375,1.90625 -0.984375,2.25 0,0.671875 0.484375,1.9375 2,1.9375 2.59375,0 3.734375,-3.65625 3.734375,-5.21875 0,-1.734375 -1.015625,-2.828125 -2.359375,-2.828125 -1.578125,0 -2.078125,1.421875 -2.078125,1.734375 0,0.140625 0.09375,0.375 0.421875,0.375 0.359375,0 0.578125,-0.328125 0.578125,-0.578125 0,-0.375 -0.328125,-0.375 -0.515625,-0.375 0.484375,-0.8125 1.265625,-0.875 1.578125,-0.875 0.796875,0 1.5625,0.5625 1.5625,1.96875 0,0.421875 -0.0625,0.984375 -0.296875,1.859375 z M 2.46875,-0.0625 c -1.1875,0 -1.1875,-1.125 -1.1875,-1.234375 C 1.28125,-1.59375 1.546875,-3.125 2,-3.78125 2.4375,-4.390625 2.96875,-4.75 3.640625,-4.75 c 1.1875,0 1.21875,1.234375 1.21875,1.453125 0,0.78125 -0.703125,3.234375 -2.390625,3.234375 z m 0,0"
               id="id-3a56183d-3315-4cd8-839e-ec8c4a0bd7da" />
          </g>
          <g
             id="id-21e30486-e211-41ca-93f2-f46f6d6709a2">
            <path
               d="m 4.421875,-6.84375 c 2.09375,0 2.640625,0.5 2.640625,1.234375 0,0.65625 -0.53125,1.96875 -2.328125,2.03125 -0.53125,0.015625 -0.90625,0.40625 -0.90625,0.53125 0,0.0625 0.046875,0.0625 0.046875,0.0625 0.46875,0.078125 0.6875,0.296875 1.25,1.578125 0.5,1.140625 0.78125,1.640625 1.421875,1.640625 1.328125,0 2.578125,-1.328125 2.578125,-1.578125 0,-0.078125 -0.078125,-0.078125 -0.109375,-0.078125 -0.140625,0 -0.5625,0.15625 -0.796875,0.46875 -0.171875,0.25 -0.40625,0.59375 -0.9375,0.59375 -0.5625,0 -0.90625,-0.78125 -1.265625,-1.625 -0.234375,-0.546875 -0.4375,-0.953125 -0.6875,-1.25 1.59375,-0.578125 2.65625,-1.71875 2.65625,-2.84375 0,-1.375 -1.828125,-1.375 -3.484375,-1.375 -1.09375,0 -1.703125,0 -2.609375,0.390625 -1.46875,0.65625 -1.65625,1.5625 -1.65625,1.640625 0,0.0625 0.03125,0.09375 0.109375,0.09375 0.171875,0 0.421875,-0.15625 0.5,-0.21875 0.234375,-0.140625 0.265625,-0.21875 0.328125,-0.421875 0.15625,-0.4375 0.46875,-0.8125 1.84375,-0.875 -0.0625,0.65625 -0.15625,1.671875 -0.53125,3.265625 C 2.1875,-2.359375 1.78125,-1.15625 1.3125,0.015625 1.25,0.125 1.25,0.15625 1.25,0.15625 c 0,0.078125 0.09375,0.078125 0.109375,0.078125 0.21875,0 0.6875,-0.25 0.796875,-0.46875 0.03125,-0.046875 1.40625,-3.125 1.75,-6.609375 z m 0,0"
               id="id-f1bba8d7-5358-45b0-8bea-035994a3036c" />
          </g>
        </g>
      </defs>
      <g
         fill="#000000"
         fill-opacity="1"
         id="id-ccd64a0d-7b63-451e-9ea4-e82cf4187df5"
         transform="translate(-143.173, -132.929)">
        <g
           transform="translate(142.735, 140.742)"
           id="g3">
          <path
             d="M 5.046875,-3.703125 C 4.9375,-4.375 4.5,-4.984375 3.640625,-4.984375 c -0.65625,0 -1.375,0.171875 -2.21875,1.03125 -0.90625,0.90625 -0.984375,1.90625 -0.984375,2.25 0,0.671875 0.484375,1.9375 2,1.9375 2.59375,0 3.734375,-3.65625 3.734375,-5.21875 0,-1.734375 -1.015625,-2.828125 -2.359375,-2.828125 -1.578125,0 -2.078125,1.421875 -2.078125,1.734375 0,0.140625 0.09375,0.375 0.421875,0.375 0.359375,0 0.578125,-0.328125 0.578125,-0.578125 0,-0.375 -0.328125,-0.375 -0.515625,-0.375 0.484375,-0.8125 1.265625,-0.875 1.578125,-0.875 0.796875,0 1.5625,0.5625 1.5625,1.96875 0,0.421875 -0.0625,0.984375 -0.296875,1.859375 z M 2.46875,-0.0625 c -1.1875,0 -1.1875,-1.125 -1.1875,-1.234375 C 1.28125,-1.59375 1.546875,-3.125 2,-3.78125 2.4375,-4.390625 2.96875,-4.75 3.640625,-4.75 c 1.1875,0 1.21875,1.234375 1.21875,1.453125 0,0.78125 -0.703125,3.234375 -2.390625,3.234375 z m 0,0"
             id="id-efe955a8-feb9-4115-b231-5b4893e1b603" />
        </g>
      </g>
      <g
         fill="#000000"
         fill-opacity="1"
         id="id-5af1c821-fc7e-4796-a47b-aeac599fce58"
         transform="translate(-143.173, -132.929)">
        <g
           transform="translate(149.132, 140.742)"
           id="g4">
          <path
             d="m 4.421875,-6.84375 c 2.09375,0 2.640625,0.5 2.640625,1.234375 0,0.65625 -0.53125,1.96875 -2.328125,2.03125 -0.53125,0.015625 -0.90625,0.40625 -0.90625,0.53125 0,0.0625 0.046875,0.0625 0.046875,0.0625 0.46875,0.078125 0.6875,0.296875 1.25,1.578125 0.5,1.140625 0.78125,1.640625 1.421875,1.640625 1.328125,0 2.578125,-1.328125 2.578125,-1.578125 0,-0.078125 -0.078125,-0.078125 -0.109375,-0.078125 -0.140625,0 -0.5625,0.15625 -0.796875,0.46875 -0.171875,0.25 -0.40625,0.59375 -0.9375,0.59375 -0.5625,0 -0.90625,-0.78125 -1.265625,-1.625 -0.234375,-0.546875 -0.4375,-0.953125 -0.6875,-1.25 1.59375,-0.578125 2.65625,-1.71875 2.65625,-2.84375 0,-1.375 -1.828125,-1.375 -3.484375,-1.375 -1.09375,0 -1.703125,0 -2.609375,0.390625 -1.46875,0.65625 -1.65625,1.5625 -1.65625,1.640625 0,0.0625 0.03125,0.09375 0.109375,0.09375 0.171875,0 0.421875,-0.15625 0.5,-0.21875 0.234375,-0.140625 0.265625,-0.21875 0.328125,-0.421875 0.15625,-0.4375 0.46875,-0.8125 1.84375,-0.875 -0.0625,0.65625 -0.15625,1.671875 -0.53125,3.265625 C 2.1875,-2.359375 1.78125,-1.15625 1.3125,0.015625 1.25,0.125 1.25,0.15625 1.25,0.15625 c 0,0.078125 0.09375,0.078125 0.109375,0.078125 0.21875,0 0.6875,-0.25 0.796875,-0.46875 0.03125,-0.046875 1.40625,-3.125 1.75,-6.609375 z m 0,0"
             id="id-74f45348-6cf4-4cad-b629-e34224f4bb55" />
        </g>
      </g>
    </g>
    <g
       transform="matrix(0.352778 0 0 0.352778 100.899 21.4341)"
       ns2:version="1.10.2"
       ns2:texconverter="pdflatex"
       ns2:pdfconverter="inkscape"
       ns2:text="$\\mathcal{R}$"
       ns2:preamble="/Users/ali/Library/Application Support/org.inkscape.Inkscape/config/inkscape/extensions/textext/default_packages.tex"
       ns2:scale="1.0"
       ns2:alignment="middle center"
       ns2:stroke-to-path="0"
       ns2:inkscapeversion="1.4"
       ns2:jacobian_sqrt="0.352778"
       id="g30">
      <defs
         id="id-a5c9963e-246c-4c9e-aef0-7da9ea0b2e70">
        <g
           id="id-3a308711-a200-47b2-85ac-a8e250ae55aa">
          <g
             id="id-334e0fe1-54d8-4636-a2d9-4a7ffee8a02d">
            <path
               d="m 4.421875,-6.84375 c 2.09375,0 2.640625,0.5 2.640625,1.234375 0,0.65625 -0.53125,1.96875 -2.328125,2.03125 -0.53125,0.015625 -0.90625,0.40625 -0.90625,0.53125 0,0.0625 0.046875,0.0625 0.046875,0.0625 0.46875,0.078125 0.6875,0.296875 1.25,1.578125 0.5,1.140625 0.78125,1.640625 1.421875,1.640625 1.328125,0 2.578125,-1.328125 2.578125,-1.578125 0,-0.078125 -0.078125,-0.078125 -0.109375,-0.078125 -0.140625,0 -0.5625,0.15625 -0.796875,0.46875 -0.171875,0.25 -0.40625,0.59375 -0.9375,0.59375 -0.5625,0 -0.90625,-0.78125 -1.265625,-1.625 -0.234375,-0.546875 -0.4375,-0.953125 -0.6875,-1.25 1.59375,-0.578125 2.65625,-1.71875 2.65625,-2.84375 0,-1.375 -1.828125,-1.375 -3.484375,-1.375 -1.09375,0 -1.703125,0 -2.609375,0.390625 -1.46875,0.65625 -1.65625,1.5625 -1.65625,1.640625 0,0.0625 0.03125,0.09375 0.109375,0.09375 0.171875,0 0.421875,-0.15625 0.5,-0.21875 0.234375,-0.140625 0.265625,-0.21875 0.328125,-0.421875 0.15625,-0.4375 0.46875,-0.8125 1.84375,-0.875 -0.0625,0.65625 -0.15625,1.671875 -0.53125,3.265625 C 2.1875,-2.359375 1.78125,-1.15625 1.3125,0.015625 1.25,0.125 1.25,0.15625 1.25,0.15625 c 0,0.078125 0.09375,0.078125 0.109375,0.078125 0.21875,0 0.6875,-0.25 0.796875,-0.46875 0.03125,-0.046875 1.40625,-3.125 1.75,-6.609375 z m 0,0"
               id="id-f0b20e7d-cfff-4f2c-935c-71d1ea5c2059" />
          </g>
        </g>
      </defs>
      <g
         fill="#000000"
         fill-opacity="1"
         id="id-c059644e-be38-415f-84d6-21ab0dabb160"
         transform="translate(-142.969, -133.289)">
        <g
           transform="translate(142.735, 140.742)"
           id="g29">
          <path
             d="m 4.421875,-6.84375 c 2.09375,0 2.640625,0.5 2.640625,1.234375 0,0.65625 -0.53125,1.96875 -2.328125,2.03125 -0.53125,0.015625 -0.90625,0.40625 -0.90625,0.53125 0,0.0625 0.046875,0.0625 0.046875,0.0625 0.46875,0.078125 0.6875,0.296875 1.25,1.578125 0.5,1.140625 0.78125,1.640625 1.421875,1.640625 1.328125,0 2.578125,-1.328125 2.578125,-1.578125 0,-0.078125 -0.078125,-0.078125 -0.109375,-0.078125 -0.140625,0 -0.5625,0.15625 -0.796875,0.46875 -0.171875,0.25 -0.40625,0.59375 -0.9375,0.59375 -0.5625,0 -0.90625,-0.78125 -1.265625,-1.625 -0.234375,-0.546875 -0.4375,-0.953125 -0.6875,-1.25 1.59375,-0.578125 2.65625,-1.71875 2.65625,-2.84375 0,-1.375 -1.828125,-1.375 -3.484375,-1.375 -1.09375,0 -1.703125,0 -2.609375,0.390625 -1.46875,0.65625 -1.65625,1.5625 -1.65625,1.640625 0,0.0625 0.03125,0.09375 0.109375,0.09375 0.171875,0 0.421875,-0.15625 0.5,-0.21875 0.234375,-0.140625 0.265625,-0.21875 0.328125,-0.421875 0.15625,-0.4375 0.46875,-0.8125 1.84375,-0.875 -0.0625,0.65625 -0.15625,1.671875 -0.53125,3.265625 C 2.1875,-2.359375 1.78125,-1.15625 1.3125,0.015625 1.25,0.125 1.25,0.15625 1.25,0.15625 c 0,0.078125 0.09375,0.078125 0.109375,0.078125 0.21875,0 0.6875,-0.25 0.796875,-0.46875 0.03125,-0.046875 1.40625,-3.125 1.75,-6.609375 z m 0,0"
             id="id-e20fc400-bf0e-4257-a0c2-15f8b3ed951e" />
        </g>
      </g>
    </g>
    <g
       transform="matrix(0.352778 0 0 0.352778 36.8696 21.4341)"
       ns2:version="1.10.2"
       ns2:texconverter="pdflatex"
       ns2:pdfconverter="inkscape"
       ns2:text="$\\mathcal{R}$"
       ns2:preamble="/Users/ali/Library/Application Support/org.inkscape.Inkscape/config/inkscape/extensions/textext/default_packages.tex"
       ns2:scale="1.0"
       ns2:alignment="middle center"
       ns2:stroke-to-path="0"
       ns2:inkscapeversion="1.4"
       ns2:jacobian_sqrt="0.352778"
       id="g20">
      <defs
         id="id-b0b42b9c-00e2-402c-afe7-5c4f9a151ba4">
        <g
           id="id-66b08320-f797-4c89-ae7f-b85edfe87fe7">
          <g
             id="id-bfecb40f-1015-45a9-8f8a-9875ecef369b">
            <path
               d="m 4.421875,-6.84375 c 2.09375,0 2.640625,0.5 2.640625,1.234375 0,0.65625 -0.53125,1.96875 -2.328125,2.03125 -0.53125,0.015625 -0.90625,0.40625 -0.90625,0.53125 0,0.0625 0.046875,0.0625 0.046875,0.0625 0.46875,0.078125 0.6875,0.296875 1.25,1.578125 0.5,1.140625 0.78125,1.640625 1.421875,1.640625 1.328125,0 2.578125,-1.328125 2.578125,-1.578125 0,-0.078125 -0.078125,-0.078125 -0.109375,-0.078125 -0.140625,0 -0.5625,0.15625 -0.796875,0.46875 -0.171875,0.25 -0.40625,0.59375 -0.9375,0.59375 -0.5625,0 -0.90625,-0.78125 -1.265625,-1.625 -0.234375,-0.546875 -0.4375,-0.953125 -0.6875,-1.25 1.59375,-0.578125 2.65625,-1.71875 2.65625,-2.84375 0,-1.375 -1.828125,-1.375 -3.484375,-1.375 -1.09375,0 -1.703125,0 -2.609375,0.390625 -1.46875,0.65625 -1.65625,1.5625 -1.65625,1.640625 0,0.0625 0.03125,0.09375 0.109375,0.09375 0.171875,0 0.421875,-0.15625 0.5,-0.21875 0.234375,-0.140625 0.265625,-0.21875 0.328125,-0.421875 0.15625,-0.4375 0.46875,-0.8125 1.84375,-0.875 -0.0625,0.65625 -0.15625,1.671875 -0.53125,3.265625 C 2.1875,-2.359375 1.78125,-1.15625 1.3125,0.015625 1.25,0.125 1.25,0.15625 1.25,0.15625 c 0,0.078125 0.09375,0.078125 0.109375,0.078125 0.21875,0 0.6875,-0.25 0.796875,-0.46875 0.03125,-0.046875 1.40625,-3.125 1.75,-6.609375 z m 0,0"
               id="id-8e6a27f6-240e-439a-814a-e4d4c0830d18" />
          </g>
        </g>
      </defs>
      <g
         fill="#000000"
         fill-opacity="1"
         id="id-c8307460-06ed-48cd-9c38-a204b9822393"
         transform="translate(-142.969, -133.289)">
        <g
           transform="translate(142.735, 140.742)"
           id="g31">
          <path
             d="m 4.421875,-6.84375 c 2.09375,0 2.640625,0.5 2.640625,1.234375 0,0.65625 -0.53125,1.96875 -2.328125,2.03125 -0.53125,0.015625 -0.90625,0.40625 -0.90625,0.53125 0,0.0625 0.046875,0.0625 0.046875,0.0625 0.46875,0.078125 0.6875,0.296875 1.25,1.578125 0.5,1.140625 0.78125,1.640625 1.421875,1.640625 1.328125,0 2.578125,-1.328125 2.578125,-1.578125 0,-0.078125 -0.078125,-0.078125 -0.109375,-0.078125 -0.140625,0 -0.5625,0.15625 -0.796875,0.46875 -0.171875,0.25 -0.40625,0.59375 -0.9375,0.59375 -0.5625,0 -0.90625,-0.78125 -1.265625,-1.625 -0.234375,-0.546875 -0.4375,-0.953125 -0.6875,-1.25 1.59375,-0.578125 2.65625,-1.71875 2.65625,-2.84375 0,-1.375 -1.828125,-1.375 -3.484375,-1.375 -1.09375,0 -1.703125,0 -2.609375,0.390625 -1.46875,0.65625 -1.65625,1.5625 -1.65625,1.640625 0,0.0625 0.03125,0.09375 0.109375,0.09375 0.171875,0 0.421875,-0.15625 0.5,-0.21875 0.234375,-0.140625 0.265625,-0.21875 0.328125,-0.421875 0.15625,-0.4375 0.46875,-0.8125 1.84375,-0.875 -0.0625,0.65625 -0.15625,1.671875 -0.53125,3.265625 C 2.1875,-2.359375 1.78125,-1.15625 1.3125,0.015625 1.25,0.125 1.25,0.15625 1.25,0.15625 c 0,0.078125 0.09375,0.078125 0.109375,0.078125 0.21875,0 0.6875,-0.25 0.796875,-0.46875 0.03125,-0.046875 1.40625,-3.125 1.75,-6.609375 z m 0,0"
             id="id-4dab9ccf-1bfa-4007-9a18-b0efc014774d" />
        </g>
      </g>
    </g>
  </g>
</svg>
